# Blender 5.2.0 LTS
# www.blender.org
mtllib col_left_1m.mtl
o Left_1m_co
v -0.381719 0.018275 0.152532 0.1389 0.0000 0.0000
v -0.512639 0.003420 0.152532 0.1389 0.0000 0.0000
v -0.512639 -0.496380 0.152532 0.1389 0.0000 0.0000
v -0.269542 -0.468752 0.152532 0.1389 0.0000 0.0000
v -0.067123 -0.400446 0.152532 0.1389 0.0000 0.0000
v 0.105725 -0.302568 0.152532 0.1389 0.0000 0.0000
v 0.253027 -0.179145 0.152532 0.1389 0.0000 0.0000
v 0.376450 -0.031843 0.152532 0.1389 0.0000 0.0000
v 0.474327 0.141004 0.152532 0.1389 0.0000 0.0000
v 0.542633 0.343423 0.152532 0.1389 0.0000 0.0000
v 0.570261 0.586520 0.152532 0.1389 0.0000 0.0000
v 0.070461 0.586520 0.152532 0.1389 0.0000 0.0000
v 0.055606 0.455601 0.152532 0.1389 0.0000 0.0000
v -0.272735 0.055066 0.152532 0.1389 0.0000 0.0000
v 0.018815 0.346616 0.152532 0.1389 0.0000 0.0000
v -0.179717 0.107823 0.152532 0.1389 0.0000 0.0000
v -0.033942 0.253598 0.152532 0.1389 0.0000 0.0000
v -0.100304 0.174185 0.152532 0.1389 0.0000 0.0000
v 0.105725 -0.302568 0.052532 0.1389 0.0000 0.0000
v -0.067123 -0.400446 0.052532 0.1389 0.0000 0.0000
v -0.269542 -0.468752 0.052532 0.1389 0.0000 0.0000
v -0.512639 -0.496380 0.052532 0.1389 0.0000 0.0000
v -0.512639 0.003420 0.052532 0.1389 0.0000 0.0000
v 0.055606 0.455601 0.052532 0.1389 0.0000 0.0000
v 0.070461 0.586520 0.052532 0.1389 0.0000 0.0000
v 0.570261 0.586520 0.052532 0.1389 0.0000 0.0000
v 0.542633 0.343423 0.052532 0.1389 0.0000 0.0000
v 0.474327 0.141004 0.052532 0.1389 0.0000 0.0000
v 0.376450 -0.031843 0.052532 0.1389 0.0000 0.0000
v 0.253027 -0.179145 0.052532 0.1389 0.0000 0.0000
v -0.381719 0.018275 0.052532 0.1389 0.0000 0.0000
v 0.018815 0.346616 0.052532 0.1389 0.0000 0.0000
v -0.033942 0.253598 0.052532 0.1389 0.0000 0.0000
v -0.272735 0.055066 0.052532 0.1389 0.0000 0.0000
v -0.100304 0.174185 0.052532 0.1389 0.0000 0.0000
v -0.179717 0.107823 0.052532 0.1389 0.0000 0.0000
v -0.512639 -0.521370 0.170032 0.1389 0.0000 0.0000
v -0.512639 -0.515122 0.177532 0.1389 0.0000 0.0000
v -0.512639 -0.496380 0.177532 0.1389 0.0000 0.0000
v -0.512639 -0.496380 -0.022468 0.1389 0.0000 0.0000
v -0.512639 -0.521370 -0.022468 0.1389 0.0000 0.0000
v 0.595251 0.586520 0.170032 0.1389 0.0000 0.0000
v 0.595251 0.586520 -0.022468 0.1389 0.0000 0.0000
v 0.570261 0.586520 -0.022468 0.1389 0.0000 0.0000
v 0.570261 0.586520 0.177532 0.1389 0.0000 0.0000
v 0.589004 0.586520 0.177532 0.1389 0.0000 0.0000
v -0.269542 -0.468752 0.177532 0.1389 0.0000 0.0000
v -0.269542 -0.468752 -0.022468 0.1389 0.0000 0.0000
v -0.067123 -0.400446 0.177532 0.1389 0.0000 0.0000
v -0.067123 -0.400446 -0.022468 0.1389 0.0000 0.0000
v 0.105725 -0.302568 0.177532 0.1389 0.0000 0.0000
v 0.105725 -0.302568 -0.022468 0.1389 0.0000 0.0000
v 0.253027 -0.179145 0.177532 0.1389 0.0000 0.0000
v 0.253027 -0.179145 -0.022468 0.1389 0.0000 0.0000
v 0.376450 -0.031843 0.177532 0.1389 0.0000 0.0000
v 0.376450 -0.031843 -0.022468 0.1389 0.0000 0.0000
v 0.474327 0.141004 0.177532 0.1389 0.0000 0.0000
v 0.474327 0.141004 -0.022468 0.1389 0.0000 0.0000
v 0.542633 0.343423 0.177532 0.1389 0.0000 0.0000
v 0.542633 0.343423 -0.022468 0.1389 0.0000 0.0000
v -0.056849 -0.423214 -0.022468 0.1389 0.0000 0.0000
v -0.263988 -0.493048 -0.022468 0.1389 0.0000 0.0000
v 0.566929 0.337870 -0.022468 0.1389 0.0000 0.0000
v 0.497096 0.130731 -0.022468 0.1389 0.0000 0.0000
v 0.396858 -0.046004 -0.022468 0.1389 0.0000 0.0000
v 0.270798 -0.196916 -0.022468 0.1389 0.0000 0.0000
v 0.119886 -0.322977 -0.022468 0.1389 0.0000 0.0000
v -0.263988 -0.493048 0.170032 0.1389 0.0000 0.0000
v -0.056849 -0.423214 0.170032 0.1389 0.0000 0.0000
v 0.119886 -0.322977 0.170032 0.1389 0.0000 0.0000
v 0.270798 -0.196916 0.170032 0.1389 0.0000 0.0000
v 0.396858 -0.046004 0.170032 0.1389 0.0000 0.0000
v 0.497096 0.130731 0.170032 0.1389 0.0000 0.0000
v 0.566929 0.337870 0.170032 0.1389 0.0000 0.0000
v -0.265377 -0.486939 0.177532 0.1389 0.0000 0.0000
v -0.059348 -0.417522 0.177532 0.1389 0.0000 0.0000
v 0.116415 -0.317840 0.177532 0.1389 0.0000 0.0000
v 0.266355 -0.192473 0.177532 0.1389 0.0000 0.0000
v 0.391721 -0.042533 0.177532 0.1389 0.0000 0.0000
v 0.491404 0.133230 0.177532 0.1389 0.0000 0.0000
v 0.560820 0.339258 0.177532 0.1389 0.0000 0.0000
v -0.512639 0.028410 0.170032 0.1389 0.0000 0.0000
v -0.512639 0.028410 -0.022468 0.1389 0.0000 0.0000
v -0.512639 0.003420 -0.022468 0.1389 0.0000 0.0000
v -0.512639 0.003420 0.177532 0.1389 0.0000 0.0000
v -0.512639 0.022163 0.177532 0.1389 0.0000 0.0000
v 0.045471 0.586520 0.170032 0.1389 0.0000 0.0000
v 0.051719 0.586520 0.177532 0.1389 0.0000 0.0000
v 0.070461 0.586520 0.177532 0.1389 0.0000 0.0000
v 0.070461 0.586520 -0.022468 0.1389 0.0000 0.0000
v 0.045471 0.586520 -0.022468 0.1389 0.0000 0.0000
v -0.381719 0.018276 0.177532 0.1389 0.0000 0.0000
v -0.381719 0.018276 -0.022468 0.1389 0.0000 0.0000
v -0.272735 0.055066 0.177532 0.1389 0.0000 0.0000
v -0.272735 0.055066 -0.022468 0.1389 0.0000 0.0000
v -0.179717 0.107823 0.177532 0.1389 0.0000 0.0000
v -0.179717 0.107823 -0.022468 0.1389 0.0000 0.0000
v -0.100304 0.174185 0.177532 0.1389 0.0000 0.0000
v -0.100304 0.174185 -0.022468 0.1389 0.0000 0.0000
v -0.033942 0.253598 0.177532 0.1389 0.0000 0.0000
v -0.033942 0.253598 -0.022468 0.1389 0.0000 0.0000
v 0.018815 0.346616 0.177532 0.1389 0.0000 0.0000
v 0.018815 0.346616 -0.022468 0.1389 0.0000 0.0000
v 0.055606 0.455601 0.177532 0.1389 0.0000 0.0000
v 0.055606 0.455601 -0.022468 0.1389 0.0000 0.0000
v -0.385884 0.036602 0.177532 0.1389 0.0000 0.0000
v 0.037280 0.459765 0.177532 0.1389 0.0000 0.0000
v -0.280510 0.072143 0.177532 0.1389 0.0000 0.0000
v 0.001739 0.354391 0.177532 0.1389 0.0000 0.0000
v -0.190407 0.123234 0.177532 0.1389 0.0000 0.0000
v -0.049352 0.264288 0.177532 0.1389 0.0000 0.0000
v -0.113632 0.187513 0.177532 0.1389 0.0000 0.0000
v -0.387411 0.042710 0.170032 0.1389 0.0000 0.0000
v -0.283009 0.077835 0.170032 0.1389 0.0000 0.0000
v -0.194017 0.128370 0.170032 0.1389 0.0000 0.0000
v -0.117936 0.191817 0.170032 0.1389 0.0000 0.0000
v -0.054489 0.267898 0.170032 0.1389 0.0000 0.0000
v -0.003954 0.356890 0.170032 0.1389 0.0000 0.0000
v 0.031171 0.461293 0.170032 0.1389 0.0000 0.0000
v -0.387411 0.042710 -0.022468 0.1389 0.0000 0.0000
v -0.283009 0.077835 -0.022468 0.1389 0.0000 0.0000
v -0.194017 0.128370 -0.022468 0.1389 0.0000 0.0000
v -0.117936 0.191817 -0.022468 0.1389 0.0000 0.0000
v -0.054489 0.267898 -0.022468 0.1389 0.0000 0.0000
v -0.003954 0.356890 -0.022468 0.1389 0.0000 0.0000
v 0.031171 0.461293 -0.022468 0.1389 0.0000 0.0000
v -0.456550 -0.411691 -0.597468 0.1389 0.0000 0.0000
v -0.415039 -0.408498 -0.597468 0.1389 0.0000 0.0000
v -0.408653 -0.491520 -0.597468 0.1389 0.0000 0.0000
v -0.450164 -0.494714 -0.597468 0.1389 0.0000 0.0000
v -0.415039 -0.408498 -0.587468 0.1389 0.0000 0.0000
v -0.456550 -0.411691 -0.587468 0.1389 0.0000 0.0000
v -0.450164 -0.494714 -0.587468 0.1389 0.0000 0.0000
v -0.408653 -0.491520 -0.587468 0.1389 0.0000 0.0000
v -0.434753 -0.473472 -0.587468 0.1389 0.0000 0.0000
v -0.433782 -0.472778 -0.587468 0.1389 0.0000 0.0000
v -0.432532 -0.472223 -0.587468 0.1389 0.0000 0.0000
v -0.431005 -0.471945 -0.587468 0.1389 0.0000 0.0000
v -0.429617 -0.472084 -0.587468 0.1389 0.0000 0.0000
v -0.428228 -0.472361 -0.587468 0.1389 0.0000 0.0000
v -0.427118 -0.472917 -0.587468 0.1389 0.0000 0.0000
v -0.426146 -0.473611 -0.587468 0.1389 0.0000 0.0000
v -0.425313 -0.474444 -0.587468 0.1389 0.0000 0.0000
v -0.424758 -0.475416 -0.587468 0.1389 0.0000 0.0000
v -0.424202 -0.476665 -0.587468 0.1389 0.0000 0.0000
v -0.423924 -0.478193 -0.587468 0.1389 0.0000 0.0000
v -0.423924 -0.479581 -0.587468 0.1389 0.0000 0.0000
v -0.424341 -0.480969 -0.587468 0.1389 0.0000 0.0000
v -0.424758 -0.482080 -0.587468 0.1389 0.0000 0.0000
v -0.425452 -0.482913 -0.587468 0.1389 0.0000 0.0000
v -0.426285 -0.483746 -0.587468 0.1389 0.0000 0.0000
v -0.427395 -0.484440 -0.587468 0.1389 0.0000 0.0000
v -0.428506 -0.484995 -0.587468 0.1389 0.0000 0.0000
v -0.430033 -0.485273 -0.587468 0.1389 0.0000 0.0000
v -0.431560 -0.485273 -0.587468 0.1389 0.0000 0.0000
v -0.432810 -0.484856 -0.587468 0.1389 0.0000 0.0000
v -0.433920 -0.484440 -0.587468 0.1389 0.0000 0.0000
v -0.434892 -0.483746 -0.587468 0.1389 0.0000 0.0000
v -0.435725 -0.482913 -0.587468 0.1389 0.0000 0.0000
v -0.436420 -0.481802 -0.587468 0.1389 0.0000 0.0000
v -0.436836 -0.480691 -0.587468 0.1389 0.0000 0.0000
v -0.437252 -0.479164 -0.587468 0.1389 0.0000 0.0000
v -0.437114 -0.477637 -0.587468 0.1389 0.0000 0.0000
v -0.436836 -0.476388 -0.587468 0.1389 0.0000 0.0000
v -0.436281 -0.475277 -0.587468 0.1389 0.0000 0.0000
v -0.435587 -0.474305 -0.587468 0.1389 0.0000 0.0000
v -0.428228 -0.472361 -0.457468 0.1389 0.0000 0.0000
v -0.429617 -0.472084 -0.457468 0.1389 0.0000 0.0000
v -0.431005 -0.471945 -0.457468 0.1389 0.0000 0.0000
v -0.432532 -0.472223 -0.457468 0.1389 0.0000 0.0000
v -0.433782 -0.472778 -0.457468 0.1389 0.0000 0.0000
v -0.434753 -0.473472 -0.457468 0.1389 0.0000 0.0000
v -0.435587 -0.474305 -0.457468 0.1389 0.0000 0.0000
v -0.436281 -0.475277 -0.457468 0.1389 0.0000 0.0000
v -0.436836 -0.476388 -0.457468 0.1389 0.0000 0.0000
v -0.437114 -0.477637 -0.457468 0.1389 0.0000 0.0000
v -0.437252 -0.479164 -0.457468 0.1389 0.0000 0.0000
v -0.436836 -0.480691 -0.457468 0.1389 0.0000 0.0000
v -0.436420 -0.481802 -0.457468 0.1389 0.0000 0.0000
v -0.435725 -0.482913 -0.457468 0.1389 0.0000 0.0000
v -0.434892 -0.483746 -0.457468 0.1389 0.0000 0.0000
v -0.433920 -0.484440 -0.457468 0.1389 0.0000 0.0000
v -0.432810 -0.484856 -0.457468 0.1389 0.0000 0.0000
v -0.431560 -0.485273 -0.457468 0.1389 0.0000 0.0000
v -0.430033 -0.485273 -0.457468 0.1389 0.0000 0.0000
v -0.428506 -0.484995 -0.457468 0.1389 0.0000 0.0000
v -0.427395 -0.484440 -0.457468 0.1389 0.0000 0.0000
v -0.426285 -0.483746 -0.457468 0.1389 0.0000 0.0000
v -0.425452 -0.482913 -0.457468 0.1389 0.0000 0.0000
v -0.424758 -0.482080 -0.457468 0.1389 0.0000 0.0000
v -0.424341 -0.480969 -0.457468 0.1389 0.0000 0.0000
v -0.423924 -0.479581 -0.457468 0.1389 0.0000 0.0000
v -0.423924 -0.478193 -0.457468 0.1389 0.0000 0.0000
v -0.424202 -0.476665 -0.457468 0.1389 0.0000 0.0000
v -0.424758 -0.475416 -0.457468 0.1389 0.0000 0.0000
v -0.425313 -0.474444 -0.457468 0.1389 0.0000 0.0000
v -0.426146 -0.473611 -0.457468 0.1389 0.0000 0.0000
v -0.427118 -0.472917 -0.457468 0.1389 0.0000 0.0000
v -0.410874 -0.462504 -0.447468 0.1389 0.0000 0.0000
v -0.452385 -0.465697 -0.447468 0.1389 0.0000 0.0000
v -0.450164 -0.494714 -0.447468 0.1389 0.0000 0.0000
v -0.408653 -0.491520 -0.447468 0.1389 0.0000 0.0000
v -0.452385 -0.465697 -0.457468 0.1389 0.0000 0.0000
v -0.410874 -0.462504 -0.457468 0.1389 0.0000 0.0000
v -0.408653 -0.491520 -0.457468 0.1389 0.0000 0.0000
v -0.450164 -0.494714 -0.457468 0.1389 0.0000 0.0000
v -0.414206 -0.462782 -0.447468 0.1389 0.0000 0.0000
v -0.449053 -0.465420 -0.447468 0.1389 0.0000 0.0000
v -0.412262 -0.488466 -0.447468 0.1389 0.0000 0.0000
v -0.447110 -0.491243 -0.447468 0.1389 0.0000 0.0000
v -0.449053 -0.465420 0.032532 0.1389 0.0000 0.0000
v -0.452385 -0.465697 0.032532 0.1389 0.0000 0.0000
v -0.450164 -0.494714 0.032532 0.1389 0.0000 0.0000
v -0.408653 -0.491520 0.032532 0.1389 0.0000 0.0000
v -0.410874 -0.462504 0.032532 0.1389 0.0000 0.0000
v -0.414206 -0.462782 0.032532 0.1389 0.0000 0.0000
v -0.447110 -0.491243 0.032532 0.1389 0.0000 0.0000
v -0.412262 -0.488466 0.032532 0.1389 0.0000 0.0000
v -0.440723 -0.076270 -0.597468 0.1389 0.0000 0.0000
v -0.482235 -0.079463 -0.597468 0.1389 0.0000 0.0000
v -0.488621 0.003559 -0.597468 0.1389 0.0000 0.0000
v -0.447110 0.006752 -0.597468 0.1389 0.0000 0.0000
v -0.482235 -0.079463 -0.587468 0.1389 0.0000 0.0000
v -0.440723 -0.076270 -0.587468 0.1389 0.0000 0.0000
v -0.447110 0.006752 -0.587468 0.1389 0.0000 0.0000
v -0.488621 0.003559 -0.587468 0.1389 0.0000 0.0000
v -0.462520 -0.014489 -0.587468 0.1389 0.0000 0.0000
v -0.463492 -0.015183 -0.587468 0.1389 0.0000 0.0000
v -0.464741 -0.015739 -0.587468 0.1389 0.0000 0.0000
v -0.466130 -0.016016 -0.587468 0.1389 0.0000 0.0000
v -0.467657 -0.016016 -0.587468 0.1389 0.0000 0.0000
v -0.469045 -0.015600 -0.587468 0.1389 0.0000 0.0000
v -0.470017 -0.015183 -0.587468 0.1389 0.0000 0.0000
v -0.470989 -0.014489 -0.587468 0.1389 0.0000 0.0000
v -0.471822 -0.013656 -0.587468 0.1389 0.0000 0.0000
v -0.472516 -0.012545 -0.587468 0.1389 0.0000 0.0000
v -0.473071 -0.011435 -0.587468 0.1389 0.0000 0.0000
v -0.473349 -0.009908 -0.587468 0.1389 0.0000 0.0000
v -0.473349 -0.008380 -0.587468 0.1389 0.0000 0.0000
v -0.472933 -0.007131 -0.587468 0.1389 0.0000 0.0000
v -0.472516 -0.006020 -0.587468 0.1389 0.0000 0.0000
v -0.471822 -0.005048 -0.587468 0.1389 0.0000 0.0000
v -0.470989 -0.004215 -0.587468 0.1389 0.0000 0.0000
v -0.469878 -0.003521 -0.587468 0.1389 0.0000 0.0000
v -0.468768 -0.002966 -0.587468 0.1389 0.0000 0.0000
v -0.467241 -0.002688 -0.587468 0.1389 0.0000 0.0000
v -0.465713 -0.002827 -0.587468 0.1389 0.0000 0.0000
v -0.464464 -0.003105 -0.587468 0.1389 0.0000 0.0000
v -0.463353 -0.003660 -0.587468 0.1389 0.0000 0.0000
v -0.462381 -0.004354 -0.587468 0.1389 0.0000 0.0000
v -0.461548 -0.005187 -0.587468 0.1389 0.0000 0.0000
v -0.460854 -0.006159 -0.587468 0.1389 0.0000 0.0000
v -0.460299 -0.007409 -0.587468 0.1389 0.0000 0.0000
v -0.460021 -0.008936 -0.587468 0.1389 0.0000 0.0000
v -0.460160 -0.010324 -0.587468 0.1389 0.0000 0.0000
v -0.460438 -0.011712 -0.587468 0.1389 0.0000 0.0000
v -0.460993 -0.012823 -0.587468 0.1389 0.0000 0.0000
v -0.461687 -0.013795 -0.587468 0.1389 0.0000 0.0000
v -0.469045 -0.015600 -0.457468 0.1389 0.0000 0.0000
v -0.467657 -0.016016 -0.457468 0.1389 0.0000 0.0000
v -0.466130 -0.016016 -0.457468 0.1389 0.0000 0.0000
v -0.464741 -0.015739 -0.457468 0.1389 0.0000 0.0000
v -0.463492 -0.015183 -0.457468 0.1389 0.0000 0.0000
v -0.462520 -0.014489 -0.457468 0.1389 0.0000 0.0000
v -0.461687 -0.013795 -0.457468 0.1389 0.0000 0.0000
v -0.460993 -0.012823 -0.457468 0.1389 0.0000 0.0000
v -0.460438 -0.011712 -0.457468 0.1389 0.0000 0.0000
v -0.460160 -0.010324 -0.457468 0.1389 0.0000 0.0000
v -0.460021 -0.008936 -0.457468 0.1389 0.0000 0.0000
v -0.460299 -0.007409 -0.457468 0.1389 0.0000 0.0000
v -0.460854 -0.006159 -0.457468 0.1389 0.0000 0.0000
v -0.461548 -0.005187 -0.457468 0.1389 0.0000 0.0000
v -0.462381 -0.004354 -0.457468 0.1389 0.0000 0.0000
v -0.463353 -0.003660 -0.457468 0.1389 0.0000 0.0000
v -0.464464 -0.003105 -0.457468 0.1389 0.0000 0.0000
v -0.465713 -0.002827 -0.457468 0.1389 0.0000 0.0000
v -0.467241 -0.002688 -0.457468 0.1389 0.0000 0.0000
v -0.468768 -0.002966 -0.457468 0.1389 0.0000 0.0000
v -0.469878 -0.003521 -0.457468 0.1389 0.0000 0.0000
v -0.470989 -0.004215 -0.457468 0.1389 0.0000 0.0000
v -0.471822 -0.005048 -0.457468 0.1389 0.0000 0.0000
v -0.472516 -0.006020 -0.457468 0.1389 0.0000 0.0000
v -0.472933 -0.007131 -0.457468 0.1389 0.0000 0.0000
v -0.473349 -0.008380 -0.457468 0.1389 0.0000 0.0000
v -0.473349 -0.009908 -0.457468 0.1389 0.0000 0.0000
v -0.473071 -0.011435 -0.457468 0.1389 0.0000 0.0000
v -0.472516 -0.012545 -0.457468 0.1389 0.0000 0.0000
v -0.471822 -0.013656 -0.457468 0.1389 0.0000 0.0000
v -0.470989 -0.014489 -0.457468 0.1389 0.0000 0.0000
v -0.470017 -0.015183 -0.457468 0.1389 0.0000 0.0000
v -0.486400 -0.025457 -0.447468 0.1389 0.0000 0.0000
v -0.444888 -0.022264 -0.447468 0.1389 0.0000 0.0000
v -0.447110 0.006752 -0.447468 0.1389 0.0000 0.0000
v -0.488621 0.003559 -0.447468 0.1389 0.0000 0.0000
v -0.444888 -0.022264 -0.457468 0.1389 0.0000 0.0000
v -0.486400 -0.025457 -0.457468 0.1389 0.0000 0.0000
v -0.488621 0.003559 -0.457468 0.1389 0.0000 0.0000
v -0.447110 0.006752 -0.457468 0.1389 0.0000 0.0000
v -0.483068 -0.025318 -0.447468 0.1389 0.0000 0.0000
v -0.448081 -0.022541 -0.447468 0.1389 0.0000 0.0000
v -0.485011 0.000505 -0.447468 0.1389 0.0000 0.0000
v -0.450164 0.003143 -0.447468 0.1389 0.0000 0.0000
v -0.448081 -0.022541 0.032532 0.1389 0.0000 0.0000
v -0.444888 -0.022264 0.032532 0.1389 0.0000 0.0000
v -0.447110 0.006752 0.032532 0.1389 0.0000 0.0000
v -0.488621 0.003559 0.032532 0.1389 0.0000 0.0000
v -0.486400 -0.025457 0.032532 0.1389 0.0000 0.0000
v -0.483068 -0.025318 0.032532 0.1389 0.0000 0.0000
v -0.450164 0.003143 0.032532 0.1389 0.0000 0.0000
v -0.485011 0.000505 0.032532 0.1389 0.0000 0.0000
v -0.491675 -0.498046 -0.022468 0.1389 0.0000 0.0000
v -0.367142 -0.488327 -0.022468 0.1389 0.0000 0.0000
v -0.366864 -0.492492 -0.022468 0.1389 0.0000 0.0000
v -0.491398 -0.502072 -0.022468 0.1389 0.0000 0.0000
v -0.405598 0.009946 -0.022468 0.1389 0.0000 0.0000
v -0.530132 0.000366 -0.022468 0.1389 0.0000 0.0000
v -0.530410 0.004531 -0.022468 0.1389 0.0000 0.0000
v -0.405876 0.014111 -0.022468 0.1389 0.0000 0.0000
v 0.179445 -0.134996 -0.597468 0.1389 0.0000 0.0000
v 0.208878 -0.105564 -0.597468 0.1389 0.0000 0.0000
v 0.267743 -0.164429 -0.597468 0.1389 0.0000 0.0000
v 0.238311 -0.193862 -0.597468 0.1389 0.0000 0.0000
v 0.208878 -0.105564 -0.587468 0.1389 0.0000 0.0000
v 0.179445 -0.134996 -0.587468 0.1389 0.0000 0.0000
v 0.238311 -0.193862 -0.587468 0.1389 0.0000 0.0000
v 0.267743 -0.164429 -0.587468 0.1389 0.0000 0.0000
v 0.236228 -0.167761 -0.587468 0.1389 0.0000 0.0000
v 0.236506 -0.166512 -0.587468 0.1389 0.0000 0.0000
v 0.237061 -0.165401 -0.587468 0.1389 0.0000 0.0000
v 0.238033 -0.164151 -0.587468 0.1389 0.0000 0.0000
v 0.239282 -0.163180 -0.587468 0.1389 0.0000 0.0000
v 0.240393 -0.162624 -0.587468 0.1389 0.0000 0.0000
v 0.241643 -0.162347 -0.587468 0.1389 0.0000 0.0000
v 0.242753 -0.162208 -0.587468 0.1389 0.0000 0.0000
v 0.244003 -0.162347 -0.587468 0.1389 0.0000 0.0000
v 0.245113 -0.162624 -0.587468 0.1389 0.0000 0.0000
v 0.246363 -0.163180 -0.587468 0.1389 0.0000 0.0000
v 0.247474 -0.164151 -0.587468 0.1389 0.0000 0.0000
v 0.248445 -0.165401 -0.587468 0.1389 0.0000 0.0000
v 0.249001 -0.166512 -0.587468 0.1389 0.0000 0.0000
v 0.249278 -0.167761 -0.587468 0.1389 0.0000 0.0000
v 0.249417 -0.168872 -0.587468 0.1389 0.0000 0.0000
v 0.249278 -0.170121 -0.587468 0.1389 0.0000 0.0000
v 0.249001 -0.171232 -0.587468 0.1389 0.0000 0.0000
v 0.248445 -0.172481 -0.587468 0.1389 0.0000 0.0000
v 0.247474 -0.173592 -0.587468 0.1389 0.0000 0.0000
v 0.246363 -0.174564 -0.587468 0.1389 0.0000 0.0000
v 0.245113 -0.175119 -0.587468 0.1389 0.0000 0.0000
v 0.244003 -0.175397 -0.587468 0.1389 0.0000 0.0000
v 0.242753 -0.175536 -0.587468 0.1389 0.0000 0.0000
v 0.241643 -0.175397 -0.587468 0.1389 0.0000 0.0000
v 0.240393 -0.175119 -0.587468 0.1389 0.0000 0.0000
v 0.239282 -0.174564 -0.587468 0.1389 0.0000 0.0000
v 0.238033 -0.173592 -0.587468 0.1389 0.0000 0.0000
v 0.237061 -0.172481 -0.587468 0.1389 0.0000 0.0000
v 0.236506 -0.171232 -0.587468 0.1389 0.0000 0.0000
v 0.236228 -0.170121 -0.587468 0.1389 0.0000 0.0000
v 0.236089 -0.168872 -0.587468 0.1389 0.0000 0.0000
v 0.240393 -0.162624 -0.457468 0.1389 0.0000 0.0000
v 0.239282 -0.163180 -0.457468 0.1389 0.0000 0.0000
v 0.238033 -0.164151 -0.457468 0.1389 0.0000 0.0000
v 0.237061 -0.165401 -0.457468 0.1389 0.0000 0.0000
v 0.236506 -0.166512 -0.457468 0.1389 0.0000 0.0000
v 0.236228 -0.167761 -0.457468 0.1389 0.0000 0.0000
v 0.236089 -0.168872 -0.457468 0.1389 0.0000 0.0000
v 0.236228 -0.170121 -0.457468 0.1389 0.0000 0.0000
v 0.236506 -0.171232 -0.457468 0.1389 0.0000 0.0000
v 0.237061 -0.172481 -0.457468 0.1389 0.0000 0.0000
v 0.238033 -0.173592 -0.457468 0.1389 0.0000 0.0000
v 0.239282 -0.174564 -0.457468 0.1389 0.0000 0.0000
v 0.240393 -0.175119 -0.457468 0.1389 0.0000 0.0000
v 0.241643 -0.175397 -0.457468 0.1389 0.0000 0.0000
v 0.242753 -0.175536 -0.457468 0.1389 0.0000 0.0000
v 0.244003 -0.175397 -0.457468 0.1389 0.0000 0.0000
v 0.245113 -0.175119 -0.457468 0.1389 0.0000 0.0000
v 0.246363 -0.174564 -0.457468 0.1389 0.0000 0.0000
v 0.247474 -0.173592 -0.457468 0.1389 0.0000 0.0000
v 0.248445 -0.172481 -0.457468 0.1389 0.0000 0.0000
v 0.249001 -0.171232 -0.457468 0.1389 0.0000 0.0000
v 0.249278 -0.170121 -0.457468 0.1389 0.0000 0.0000
v 0.249417 -0.168872 -0.457468 0.1389 0.0000 0.0000
v 0.249278 -0.167761 -0.457468 0.1389 0.0000 0.0000
v 0.249001 -0.166512 -0.457468 0.1389 0.0000 0.0000
v 0.248445 -0.165401 -0.457468 0.1389 0.0000 0.0000
v 0.247474 -0.164151 -0.457468 0.1389 0.0000 0.0000
v 0.246363 -0.163180 -0.457468 0.1389 0.0000 0.0000
v 0.245113 -0.162624 -0.457468 0.1389 0.0000 0.0000
v 0.244003 -0.162347 -0.457468 0.1389 0.0000 0.0000
v 0.242753 -0.162208 -0.457468 0.1389 0.0000 0.0000
v 0.241643 -0.162347 -0.457468 0.1389 0.0000 0.0000
v 0.247196 -0.143882 -0.447468 0.1389 0.0000 0.0000
v 0.217763 -0.173314 -0.447468 0.1389 0.0000 0.0000
v 0.238311 -0.193862 -0.447468 0.1389 0.0000 0.0000
v 0.267743 -0.164429 -0.447468 0.1389 0.0000 0.0000
v 0.217763 -0.173314 -0.457468 0.1389 0.0000 0.0000
v 0.247196 -0.143882 -0.457468 0.1389 0.0000 0.0000
v 0.267743 -0.164429 -0.457468 0.1389 0.0000 0.0000
v 0.238311 -0.193862 -0.457468 0.1389 0.0000 0.0000
v 0.244836 -0.146242 -0.447468 0.1389 0.0000 0.0000
v 0.220123 -0.170954 -0.447468 0.1389 0.0000 0.0000
v 0.263162 -0.164429 -0.447468 0.1389 0.0000 0.0000
v 0.238311 -0.189280 -0.447468 0.1389 0.0000 0.0000
v 0.220123 -0.170954 0.032532 0.1389 0.0000 0.0000
v 0.217763 -0.173314 0.032532 0.1389 0.0000 0.0000
v 0.238311 -0.193862 0.032532 0.1389 0.0000 0.0000
v 0.267743 -0.164429 0.032532 0.1389 0.0000 0.0000
v 0.247196 -0.143882 0.032532 0.1389 0.0000 0.0000
v 0.244836 -0.146242 0.032532 0.1389 0.0000 0.0000
v 0.238311 -0.189280 0.032532 0.1389 0.0000 0.0000
v 0.263162 -0.164429 0.032532 0.1389 0.0000 0.0000
v -0.026722 0.130036 -0.597468 0.1389 0.0000 0.0000
v -0.056155 0.100604 -0.597468 0.1389 0.0000 0.0000
v -0.115020 0.159469 -0.597468 0.1389 0.0000 0.0000
v -0.085588 0.188902 -0.597468 0.1389 0.0000 0.0000
v -0.056155 0.100604 -0.587468 0.1389 0.0000 0.0000
v -0.026722 0.130036 -0.587468 0.1389 0.0000 0.0000
v -0.085588 0.188902 -0.587468 0.1389 0.0000 0.0000
v -0.115020 0.159469 -0.587468 0.1389 0.0000 0.0000
v -0.083505 0.162662 -0.587468 0.1389 0.0000 0.0000
v -0.083783 0.161552 -0.587468 0.1389 0.0000 0.0000
v -0.084338 0.160302 -0.587468 0.1389 0.0000 0.0000
v -0.085310 0.159191 -0.587468 0.1389 0.0000 0.0000
v -0.086421 0.158220 -0.587468 0.1389 0.0000 0.0000
v -0.087670 0.157664 -0.587468 0.1389 0.0000 0.0000
v -0.088781 0.157387 -0.587468 0.1389 0.0000 0.0000
v -0.090030 0.157248 -0.587468 0.1389 0.0000 0.0000
v -0.091141 0.157387 -0.587468 0.1389 0.0000 0.0000
v -0.092391 0.157664 -0.587468 0.1389 0.0000 0.0000
v -0.093501 0.158220 -0.587468 0.1389 0.0000 0.0000
v -0.094751 0.159191 -0.587468 0.1389 0.0000 0.0000
v -0.095722 0.160302 -0.587468 0.1389 0.0000 0.0000
v -0.096278 0.161552 -0.587468 0.1389 0.0000 0.0000
v -0.096555 0.162662 -0.587468 0.1389 0.0000 0.0000
v -0.096694 0.163912 -0.587468 0.1389 0.0000 0.0000
v -0.096555 0.165022 -0.587468 0.1389 0.0000 0.0000
v -0.096278 0.166272 -0.587468 0.1389 0.0000 0.0000
v -0.095722 0.167383 -0.587468 0.1389 0.0000 0.0000
v -0.094751 0.168632 -0.587468 0.1389 0.0000 0.0000
v -0.093501 0.169604 -0.587468 0.1389 0.0000 0.0000
v -0.092391 0.170159 -0.587468 0.1389 0.0000 0.0000
v -0.091141 0.170437 -0.587468 0.1389 0.0000 0.0000
v -0.090030 0.170576 -0.587468 0.1389 0.0000 0.0000
v -0.088781 0.170437 -0.587468 0.1389 0.0000 0.0000
v -0.087670 0.170159 -0.587468 0.1389 0.0000 0.0000
v -0.086421 0.169604 -0.587468 0.1389 0.0000 0.0000
v -0.085310 0.168632 -0.587468 0.1389 0.0000 0.0000
v -0.084338 0.167383 -0.587468 0.1389 0.0000 0.0000
v -0.083783 0.166272 -0.587468 0.1389 0.0000 0.0000
v -0.083505 0.165022 -0.587468 0.1389 0.0000 0.0000
v -0.083366 0.163912 -0.587468 0.1389 0.0000 0.0000
v -0.087670 0.157664 -0.457468 0.1389 0.0000 0.0000
v -0.086421 0.158220 -0.457468 0.1389 0.0000 0.0000
v -0.085310 0.159191 -0.457468 0.1389 0.0000 0.0000
v -0.084338 0.160302 -0.457468 0.1389 0.0000 0.0000
v -0.083783 0.161552 -0.457468 0.1389 0.0000 0.0000
v -0.083505 0.162662 -0.457468 0.1389 0.0000 0.0000
v -0.083366 0.163912 -0.457468 0.1389 0.0000 0.0000
v -0.083505 0.165022 -0.457468 0.1389 0.0000 0.0000
v -0.083783 0.166272 -0.457468 0.1389 0.0000 0.0000
v -0.084338 0.167383 -0.457468 0.1389 0.0000 0.0000
v -0.085310 0.168632 -0.457468 0.1389 0.0000 0.0000
v -0.086421 0.169604 -0.457468 0.1389 0.0000 0.0000
v -0.087670 0.170159 -0.457468 0.1389 0.0000 0.0000
v -0.088781 0.170437 -0.457468 0.1389 0.0000 0.0000
v -0.090030 0.170576 -0.457468 0.1389 0.0000 0.0000
v -0.091141 0.170437 -0.457468 0.1389 0.0000 0.0000
v -0.092391 0.170159 -0.457468 0.1389 0.0000 0.0000
v -0.093501 0.169604 -0.457468 0.1389 0.0000 0.0000
v -0.094751 0.168632 -0.457468 0.1389 0.0000 0.0000
v -0.095722 0.167383 -0.457468 0.1389 0.0000 0.0000
v -0.096278 0.166272 -0.457468 0.1389 0.0000 0.0000
v -0.096555 0.165022 -0.457468 0.1389 0.0000 0.0000
v -0.096694 0.163912 -0.457468 0.1389 0.0000 0.0000
v -0.096555 0.162662 -0.457468 0.1389 0.0000 0.0000
v -0.096278 0.161552 -0.457468 0.1389 0.0000 0.0000
v -0.095722 0.160302 -0.457468 0.1389 0.0000 0.0000
v -0.094751 0.159191 -0.457468 0.1389 0.0000 0.0000
v -0.093501 0.158220 -0.457468 0.1389 0.0000 0.0000
v -0.092391 0.157664 -0.457468 0.1389 0.0000 0.0000
v -0.091141 0.157387 -0.457468 0.1389 0.0000 0.0000
v -0.090030 0.157248 -0.457468 0.1389 0.0000 0.0000
v -0.088781 0.157387 -0.457468 0.1389 0.0000 0.0000
v -0.094473 0.138922 -0.447468 0.1389 0.0000 0.0000
v -0.065040 0.168354 -0.447468 0.1389 0.0000 0.0000
v -0.085588 0.188902 -0.447468 0.1389 0.0000 0.0000
v -0.115020 0.159469 -0.447468 0.1389 0.0000 0.0000
v -0.065040 0.168354 -0.457468 0.1389 0.0000 0.0000
v -0.094473 0.138922 -0.457468 0.1389 0.0000 0.0000
v -0.115020 0.159469 -0.457468 0.1389 0.0000 0.0000
v -0.085588 0.188902 -0.457468 0.1389 0.0000 0.0000
v -0.092113 0.141282 -0.447468 0.1389 0.0000 0.0000
v -0.067400 0.165994 -0.447468 0.1389 0.0000 0.0000
v -0.110300 0.159469 -0.447468 0.1389 0.0000 0.0000
v -0.085588 0.184181 -0.447468 0.1389 0.0000 0.0000
v -0.067400 0.165994 0.032532 0.1389 0.0000 0.0000
v -0.065040 0.168354 0.032532 0.1389 0.0000 0.0000
v -0.085588 0.188902 0.032532 0.1389 0.0000 0.0000
v -0.115020 0.159469 0.032532 0.1389 0.0000 0.0000
v -0.094473 0.138922 0.032532 0.1389 0.0000 0.0000
v -0.092113 0.141282 0.032532 0.1389 0.0000 0.0000
v -0.085588 0.184181 0.032532 0.1389 0.0000 0.0000
v -0.110300 0.159469 0.032532 0.1389 0.0000 0.0000
v 0.208878 -0.223433 -0.022468 0.1389 0.0000 0.0000
v 0.297315 -0.134996 -0.022468 0.1389 0.0000 0.0000
v 0.300230 -0.137912 -0.022468 0.1389 0.0000 0.0000
v 0.211793 -0.226349 -0.022468 0.1389 0.0000 0.0000
v -0.056155 0.218334 -0.022468 0.1389 0.0000 0.0000
v -0.144453 0.130036 -0.022468 0.1389 0.0000 0.0000
v -0.147507 0.132952 -0.022468 0.1389 0.0000 0.0000
v -0.059070 0.221389 -0.022468 0.1389 0.0000 0.0000
v 0.482379 0.488921 -0.597468 0.1389 0.0000 0.0000
v 0.485573 0.530432 -0.597468 0.1389 0.0000 0.0000
v 0.568595 0.524045 -0.597468 0.1389 0.0000 0.0000
v 0.565402 0.482534 -0.597468 0.1389 0.0000 0.0000
v 0.485573 0.530432 -0.587468 0.1389 0.0000 0.0000
v 0.482379 0.488921 -0.587468 0.1389 0.0000 0.0000
v 0.565402 0.482534 -0.587468 0.1389 0.0000 0.0000
v 0.568595 0.524045 -0.587468 0.1389 0.0000 0.0000
v 0.546798 0.500999 -0.587468 0.1389 0.0000 0.0000
v 0.546243 0.502110 -0.587468 0.1389 0.0000 0.0000
v 0.545965 0.503498 -0.587468 0.1389 0.0000 0.0000
v 0.545826 0.504886 -0.587468 0.1389 0.0000 0.0000
v 0.546104 0.506414 -0.587468 0.1389 0.0000 0.0000
v 0.546659 0.507663 -0.587468 0.1389 0.0000 0.0000
v 0.547354 0.508635 -0.587468 0.1389 0.0000 0.0000
v 0.548186 0.509468 -0.587468 0.1389 0.0000 0.0000
v 0.549158 0.510162 -0.587468 0.1389 0.0000 0.0000
v 0.550269 0.510717 -0.587468 0.1389 0.0000 0.0000
v 0.551519 0.510995 -0.587468 0.1389 0.0000 0.0000
v 0.553046 0.511134 -0.587468 0.1389 0.0000 0.0000
v 0.554573 0.510717 -0.587468 0.1389 0.0000 0.0000
v 0.555684 0.510301 -0.587468 0.1389 0.0000 0.0000
v 0.556794 0.509607 -0.587468 0.1389 0.0000 0.0000
v 0.557627 0.508774 -0.587468 0.1389 0.0000 0.0000
v 0.558321 0.507802 -0.587468 0.1389 0.0000 0.0000
v 0.558738 0.506691 -0.587468 0.1389 0.0000 0.0000
v 0.559154 0.505442 -0.587468 0.1389 0.0000 0.0000
v 0.559154 0.503914 -0.587468 0.1389 0.0000 0.0000
v 0.558877 0.502387 -0.587468 0.1389 0.0000 0.0000
v 0.558321 0.501277 -0.587468 0.1389 0.0000 0.0000
v 0.557627 0.500166 -0.587468 0.1389 0.0000 0.0000
v 0.556794 0.499333 -0.587468 0.1389 0.0000 0.0000
v 0.555961 0.498639 -0.587468 0.1389 0.0000 0.0000
v 0.554851 0.498222 -0.587468 0.1389 0.0000 0.0000
v 0.553462 0.497806 -0.587468 0.1389 0.0000 0.0000
v 0.552074 0.497806 -0.587468 0.1389 0.0000 0.0000
v 0.550547 0.498084 -0.587468 0.1389 0.0000 0.0000
v 0.549297 0.498639 -0.587468 0.1389 0.0000 0.0000
v 0.548325 0.499194 -0.587468 0.1389 0.0000 0.0000
v 0.547492 0.500027 -0.587468 0.1389 0.0000 0.0000
v 0.546659 0.507663 -0.457468 0.1389 0.0000 0.0000
v 0.546104 0.506414 -0.457468 0.1389 0.0000 0.0000
v 0.545826 0.504886 -0.457468 0.1389 0.0000 0.0000
v 0.545965 0.503498 -0.457468 0.1389 0.0000 0.0000
v 0.546243 0.502110 -0.457468 0.1389 0.0000 0.0000
v 0.546798 0.500999 -0.457468 0.1389 0.0000 0.0000
v 0.547492 0.500027 -0.457468 0.1389 0.0000 0.0000
v 0.548325 0.499194 -0.457468 0.1389 0.0000 0.0000
v 0.549297 0.498639 -0.457468 0.1389 0.0000 0.0000
v 0.550547 0.498084 -0.457468 0.1389 0.0000 0.0000
v 0.552074 0.497806 -0.457468 0.1389 0.0000 0.0000
v 0.553462 0.497806 -0.457468 0.1389 0.0000 0.0000
v 0.554851 0.498222 -0.457468 0.1389 0.0000 0.0000
v 0.555961 0.498639 -0.457468 0.1389 0.0000 0.0000
v 0.556794 0.499333 -0.457468 0.1389 0.0000 0.0000
v 0.557627 0.500166 -0.457468 0.1389 0.0000 0.0000
v 0.558321 0.501277 -0.457468 0.1389 0.0000 0.0000
v 0.558877 0.502387 -0.457468 0.1389 0.0000 0.0000
v 0.559154 0.503914 -0.457468 0.1389 0.0000 0.0000
v 0.559154 0.505442 -0.457468 0.1389 0.0000 0.0000
v 0.558738 0.506691 -0.457468 0.1389 0.0000 0.0000
v 0.558321 0.507802 -0.457468 0.1389 0.0000 0.0000
v 0.557627 0.508774 -0.457468 0.1389 0.0000 0.0000
v 0.556794 0.509607 -0.457468 0.1389 0.0000 0.0000
v 0.555684 0.510301 -0.457468 0.1389 0.0000 0.0000
v 0.554573 0.510717 -0.457468 0.1389 0.0000 0.0000
v 0.553046 0.511134 -0.457468 0.1389 0.0000 0.0000
v 0.551519 0.510995 -0.457468 0.1389 0.0000 0.0000
v 0.550269 0.510717 -0.457468 0.1389 0.0000 0.0000
v 0.549158 0.510162 -0.457468 0.1389 0.0000 0.0000
v 0.548186 0.509468 -0.457468 0.1389 0.0000 0.0000
v 0.547354 0.508635 -0.457468 0.1389 0.0000 0.0000
v 0.539579 0.526267 -0.447468 0.1389 0.0000 0.0000
v 0.536386 0.484755 -0.447468 0.1389 0.0000 0.0000
v 0.565402 0.482534 -0.447468 0.1389 0.0000 0.0000
v 0.568595 0.524045 -0.447468 0.1389 0.0000 0.0000
v 0.536386 0.484755 -0.457468 0.1389 0.0000 0.0000
v 0.539579 0.526267 -0.457468 0.1389 0.0000 0.0000
v 0.568595 0.524045 -0.457468 0.1389 0.0000 0.0000
v 0.565402 0.482534 -0.457468 0.1389 0.0000 0.0000
v 0.539301 0.522935 -0.447468 0.1389 0.0000 0.0000
v 0.536663 0.488088 -0.447468 0.1389 0.0000 0.0000
v 0.565124 0.520991 -0.447468 0.1389 0.0000 0.0000
v 0.562348 0.486144 -0.447468 0.1389 0.0000 0.0000
v 0.536663 0.488088 0.032532 0.1389 0.0000 0.0000
v 0.536386 0.484755 0.032532 0.1389 0.0000 0.0000
v 0.565402 0.482534 0.032532 0.1389 0.0000 0.0000
v 0.568595 0.524045 0.032532 0.1389 0.0000 0.0000
v 0.539579 0.526267 0.032532 0.1389 0.0000 0.0000
v 0.539301 0.522935 0.032532 0.1389 0.0000 0.0000
v 0.562348 0.486144 0.032532 0.1389 0.0000 0.0000
v 0.565124 0.520991 0.032532 0.1389 0.0000 0.0000
v 0.153344 0.556116 -0.597468 0.1389 0.0000 0.0000
v 0.150151 0.514605 -0.597468 0.1389 0.0000 0.0000
v 0.067129 0.520991 -0.597468 0.1389 0.0000 0.0000
v 0.070322 0.562502 -0.597468 0.1389 0.0000 0.0000
v 0.150151 0.514605 -0.587468 0.1389 0.0000 0.0000
v 0.153344 0.556116 -0.587468 0.1389 0.0000 0.0000
v 0.070322 0.562502 -0.587468 0.1389 0.0000 0.0000
v 0.067129 0.520991 -0.587468 0.1389 0.0000 0.0000
v 0.089065 0.543899 -0.587468 0.1389 0.0000 0.0000
v 0.089481 0.542927 -0.587468 0.1389 0.0000 0.0000
v 0.089898 0.541538 -0.587468 0.1389 0.0000 0.0000
v 0.089898 0.540011 -0.587468 0.1389 0.0000 0.0000
v 0.089620 0.538623 -0.587468 0.1389 0.0000 0.0000
v 0.089065 0.537373 -0.587468 0.1389 0.0000 0.0000
v 0.088370 0.536402 -0.587468 0.1389 0.0000 0.0000
v 0.087676 0.535569 -0.587468 0.1389 0.0000 0.0000
v 0.086705 0.534874 -0.587468 0.1389 0.0000 0.0000
v 0.085594 0.534319 -0.587468 0.1389 0.0000 0.0000
v 0.084206 0.534041 -0.587468 0.1389 0.0000 0.0000
v 0.082817 0.533902 -0.587468 0.1389 0.0000 0.0000
v 0.081290 0.534180 -0.587468 0.1389 0.0000 0.0000
v 0.080041 0.534736 -0.587468 0.1389 0.0000 0.0000
v 0.079069 0.535430 -0.587468 0.1389 0.0000 0.0000
v 0.078236 0.536263 -0.587468 0.1389 0.0000 0.0000
v 0.077542 0.537235 -0.587468 0.1389 0.0000 0.0000
v 0.076986 0.538345 -0.587468 0.1389 0.0000 0.0000
v 0.076708 0.539595 -0.587468 0.1389 0.0000 0.0000
v 0.076570 0.541122 -0.587468 0.1389 0.0000 0.0000
v 0.076847 0.542649 -0.587468 0.1389 0.0000 0.0000
v 0.077403 0.543760 -0.587468 0.1389 0.0000 0.0000
v 0.078097 0.544870 -0.587468 0.1389 0.0000 0.0000
v 0.078930 0.545703 -0.587468 0.1389 0.0000 0.0000
v 0.079902 0.546397 -0.587468 0.1389 0.0000 0.0000
v 0.081012 0.546814 -0.587468 0.1389 0.0000 0.0000
v 0.082262 0.547231 -0.587468 0.1389 0.0000 0.0000
v 0.083789 0.547231 -0.587468 0.1389 0.0000 0.0000
v 0.085316 0.546953 -0.587468 0.1389 0.0000 0.0000
v 0.086427 0.546397 -0.587468 0.1389 0.0000 0.0000
v 0.087538 0.545703 -0.587468 0.1389 0.0000 0.0000
v 0.088370 0.544870 -0.587468 0.1389 0.0000 0.0000
v 0.089065 0.537373 -0.457468 0.1389 0.0000 0.0000
v 0.089620 0.538623 -0.457468 0.1389 0.0000 0.0000
v 0.089898 0.540011 -0.457468 0.1389 0.0000 0.0000
v 0.089898 0.541538 -0.457468 0.1389 0.0000 0.0000
v 0.089481 0.542927 -0.457468 0.1389 0.0000 0.0000
v 0.089065 0.543899 -0.457468 0.1389 0.0000 0.0000
v 0.088370 0.544870 -0.457468 0.1389 0.0000 0.0000
v 0.087538 0.545703 -0.457468 0.1389 0.0000 0.0000
v 0.086427 0.546397 -0.457468 0.1389 0.0000 0.0000
v 0.085316 0.546953 -0.457468 0.1389 0.0000 0.0000
v 0.083789 0.547231 -0.457468 0.1389 0.0000 0.0000
v 0.082262 0.547231 -0.457468 0.1389 0.0000 0.0000
v 0.081012 0.546814 -0.457468 0.1389 0.0000 0.0000
v 0.079902 0.546397 -0.457468 0.1389 0.0000 0.0000
v 0.078930 0.545703 -0.457468 0.1389 0.0000 0.0000
v 0.078097 0.544870 -0.457468 0.1389 0.0000 0.0000
v 0.077403 0.543760 -0.457468 0.1389 0.0000 0.0000
v 0.076847 0.542649 -0.457468 0.1389 0.0000 0.0000
v 0.076570 0.541122 -0.457468 0.1389 0.0000 0.0000
v 0.076708 0.539595 -0.457468 0.1389 0.0000 0.0000
v 0.076986 0.538345 -0.457468 0.1389 0.0000 0.0000
v 0.077542 0.537235 -0.457468 0.1389 0.0000 0.0000
v 0.078236 0.536263 -0.457468 0.1389 0.0000 0.0000
v 0.079069 0.535430 -0.457468 0.1389 0.0000 0.0000
v 0.080041 0.534736 -0.457468 0.1389 0.0000 0.0000
v 0.081290 0.534180 -0.457468 0.1389 0.0000 0.0000
v 0.082817 0.533902 -0.457468 0.1389 0.0000 0.0000
v 0.084206 0.534041 -0.457468 0.1389 0.0000 0.0000
v 0.085594 0.534319 -0.457468 0.1389 0.0000 0.0000
v 0.086705 0.534874 -0.457468 0.1389 0.0000 0.0000
v 0.087676 0.535569 -0.457468 0.1389 0.0000 0.0000
v 0.088370 0.536402 -0.457468 0.1389 0.0000 0.0000
v 0.096145 0.518770 -0.447468 0.1389 0.0000 0.0000
v 0.099338 0.560281 -0.447468 0.1389 0.0000 0.0000
v 0.070322 0.562502 -0.447468 0.1389 0.0000 0.0000
v 0.067129 0.520991 -0.447468 0.1389 0.0000 0.0000
v 0.099338 0.560281 -0.457468 0.1389 0.0000 0.0000
v 0.096145 0.518770 -0.457468 0.1389 0.0000 0.0000
v 0.067129 0.520991 -0.457468 0.1389 0.0000 0.0000
v 0.070322 0.562502 -0.457468 0.1389 0.0000 0.0000
v 0.096423 0.521963 -0.447468 0.1389 0.0000 0.0000
v 0.099200 0.556949 -0.447468 0.1389 0.0000 0.0000
v 0.070739 0.524045 -0.447468 0.1389 0.0000 0.0000
v 0.073376 0.558893 -0.447468 0.1389 0.0000 0.0000
v 0.099200 0.556949 0.032532 0.1389 0.0000 0.0000
v 0.099338 0.560281 0.032532 0.1389 0.0000 0.0000
v 0.070322 0.562502 0.032532 0.1389 0.0000 0.0000
v 0.067129 0.520991 0.032532 0.1389 0.0000 0.0000
v 0.096145 0.518770 0.032532 0.1389 0.0000 0.0000
v 0.096423 0.521963 0.032532 0.1389 0.0000 0.0000
v 0.073376 0.558893 0.032532 0.1389 0.0000 0.0000
v 0.070739 0.524045 0.032532 0.1389 0.0000 0.0000
v 0.562209 0.441023 -0.022468 0.1389 0.0000 0.0000
v 0.571927 0.565556 -0.022468 0.1389 0.0000 0.0000
v 0.575953 0.565279 -0.022468 0.1389 0.0000 0.0000
v 0.566374 0.440745 -0.022468 0.1389 0.0000 0.0000
v 0.063936 0.479480 -0.022468 0.0000 0.0000 0.0000
v 0.059771 0.479758 -0.022468 0.0000 0.0000 0.0000
vn -0.0000 -0.0000 1.0000
vn -0.0000 -0.0000 -1.0000
vn 0.1129 -0.9936 -0.0000
vn 0.3197 -0.9475 -0.0000
vn 0.4927 -0.8702 -0.0000
vn 0.6422 -0.7665 -0.0000
vn 0.7665 -0.6422 -0.0000
vn 0.8702 -0.4927 -0.0000
vn 0.9475 -0.3197 -0.0000
vn 0.9936 -0.1129 -0.0000
vn -0.0000 1.0000 -0.0000
vn -0.1127 0.9936 -0.0000
vn -0.3198 0.9475 -0.0000
vn -0.4933 0.8698 -0.0000
vn -0.6412 0.7673 -0.0000
vn -0.7673 0.6412 -0.0000
vn -0.8698 0.4933 -0.0000
vn -0.9475 0.3198 -0.0000
vn -0.9936 0.1127 -0.0000
vn -1.0000 -0.0000 -0.0000
vn -0.1129 0.9936 -0.0000
vn -0.3197 0.9475 -0.0000
vn -0.4927 0.8702 -0.0000
vn -0.6422 0.7665 -0.0000
vn -0.7665 0.6422 -0.0000
vn -0.8702 0.4927 -0.0000
vn -0.9475 0.3197 -0.0000
vn -0.9936 0.1129 -0.0000
vn 0.1132 -0.9936 -0.0000
vn 0.3195 -0.9476 -0.0000
vn 0.4933 -0.8698 -0.0000
vn 0.6411 -0.7675 -0.0000
vn 0.7675 -0.6411 -0.0000
vn 0.8698 -0.4933 -0.0000
vn 0.9476 -0.3195 -0.0000
vn 0.9936 -0.1132 -0.0000
vn 0.0871 -0.7645 0.6388
vn 0.0872 -0.7654 0.6376
vn 0.2462 -0.7308 0.6367
vn 0.2457 -0.7288 0.6391
vn 0.3807 -0.6713 0.6360
vn 0.3806 -0.6711 0.6362
vn 0.4925 -0.5891 0.6407
vn 0.4952 -0.5928 0.6352
vn 0.5926 -0.4954 0.6351
vn 0.5893 -0.4922 0.6407
vn 0.6711 -0.3806 0.6362
vn 0.6713 -0.3807 0.6360
vn 0.7289 -0.2456 0.6391
vn 0.7307 -0.2464 0.6367
vn 0.7654 -0.0872 0.6376
vn 0.7645 -0.0871 0.6388
vn 0.1127 -0.9936 -0.0000
vn 0.3198 -0.9475 -0.0000
vn 0.6412 -0.7673 -0.0000
vn 0.7673 -0.6412 -0.0000
vn 0.9475 -0.3198 -0.0000
vn 0.9936 -0.1127 -0.0000
vn -0.0870 0.7637 0.6397
vn -0.0874 0.7654 0.6376
vn -0.2465 0.7307 0.6367
vn -0.2445 0.7268 0.6418
vn -0.3790 0.6683 0.6401
vn -0.3810 0.6709 0.6362
vn -0.4992 0.5963 0.6287
vn -0.4918 0.5897 0.6406
vn -0.5888 0.4930 0.6405
vn -0.5973 0.4981 0.6286
vn -0.6712 0.3806 0.6362
vn -0.6681 0.3794 0.6401
vn -0.7267 0.2451 0.6418
vn -0.7309 0.2459 0.6367
vn -0.7654 0.0872 0.6376
vn -0.7636 0.0872 0.6397
vn -0.1135 0.9935 -0.0000
vn -0.3189 0.9478 -0.0000
vn -0.4938 0.8696 -0.0000
vn -0.6405 0.7680 -0.0000
vn -0.7680 0.6405 -0.0000
vn -0.8696 0.4938 -0.0000
vn -0.9478 0.3189 -0.0000
vn -0.9935 0.1135 -0.0000
vn 0.0767 -0.9971 -0.0000
vn 0.9971 0.0767 -0.0000
vn -0.0767 0.9971 -0.0000
vn -0.9971 -0.0767 -0.0000
vn 0.0002 -0.0000 -1.0000
vn 0.0008 -0.0000 -1.0000
vn -0.0003 -0.0000 -1.0000
vn -0.0010 -0.0000 -1.0000
vn 0.0004 -0.0000 -1.0000
vn 0.0003 -0.0000 -1.0000
vn -0.0001 -0.0000 -1.0000
vn 0.0001 -0.0000 1.0000
vn -0.0003 -0.0000 1.0000
vn 0.0002 -0.0000 1.0000
vn -0.0002 -0.0000 1.0000
vn -0.0001 -0.0000 1.0000
vn -0.1789 0.9839 -0.0000
vn -0.4061 0.9138 -0.0000
vn -0.4062 0.9138 -0.0000
vn -0.5812 0.8138 -0.0000
vn -0.5813 0.8137 -0.0000
vn -0.7071 0.7071 -0.0000
vn -0.8137 0.5813 -0.0000
vn -0.8138 0.5812 -0.0000
vn -0.8944 0.4472 -0.0000
vn -0.9762 0.2169 -0.0000
vn -0.9959 0.0906 -0.0000
vn -0.9959 0.0905 -0.0000
vn -0.9648 -0.2631 -0.0000
vn -0.9363 -0.3511 -0.0000
vn -0.9364 -0.3511 -0.0000
vn -0.8480 -0.5300 -0.0000
vn -0.7071 -0.7071 -0.0000
vn -0.5813 -0.8137 -0.0000
vn -0.5812 -0.8137 -0.0000
vn -0.3511 -0.9363 -0.0000
vn -0.3162 -0.9487 -0.0000
vn -0.0000 -1.0000 -0.0000
vn 0.1789 -0.9839 -0.0000
vn 0.4472 -0.8944 -0.0000
vn 0.5300 -0.8480 -0.0000
vn 0.7071 -0.7071 -0.0000
vn 0.7682 -0.6402 -0.0000
vn 0.9363 -0.3511 -0.0000
vn 0.9363 -0.3512 -0.0000
vn 0.9578 -0.2873 -0.0000
vn 0.9578 -0.2874 -0.0000
vn 1.0000 -0.0000 -0.0000
vn 0.9839 0.1789 -0.0000
vn 0.9138 0.4062 -0.0000
vn 0.9138 0.4061 -0.0000
vn 0.8682 0.4961 -0.0000
vn 0.7071 0.7071 -0.0000
vn 0.5812 0.8137 -0.0000
vn 0.5813 0.8137 -0.0000
vn 0.4472 0.8944 -0.0000
vn 0.1961 0.9806 -0.0000
vn 0.0995 0.9950 -0.0000
vn 0.9971 0.0763 -0.0000
vn -0.9971 -0.0763 -0.0000
vn -0.0830 0.9965 -0.0000
vn -0.9971 -0.0755 -0.0000
vn -0.0794 0.9968 -0.0000
vn 0.9972 0.0751 -0.0000
vn 0.0020 -0.0000 -1.0000
vn 0.0005 -0.0000 -1.0000
vn -0.0004 -0.0000 -1.0000
vn 0.0006 -0.0000 1.0000
vn 0.1961 -0.9806 -0.0000
vn 0.4061 -0.9138 -0.0000
vn 0.5813 -0.8137 -0.0000
vn 0.5812 -0.8138 -0.0000
vn 0.6402 -0.7682 -0.0000
vn 0.8138 -0.5812 -0.0000
vn 0.8137 -0.5812 -0.0000
vn 0.8944 -0.4472 -0.0000
vn 0.8944 -0.4473 -0.0000
vn 0.9806 -0.1961 -0.0000
vn 0.9950 -0.0995 -0.0000
vn 0.8137 0.5812 -0.0000
vn 0.2169 0.9762 -0.0000
vn 0.0905 0.9959 -0.0000
vn -0.4472 0.8944 -0.0000
vn -0.5300 0.8480 -0.0000
vn -0.8137 0.5812 -0.0000
vn -0.9363 0.3511 -0.0000
vn -0.9363 0.3512 -0.0000
vn -0.9487 0.3162 -0.0000
vn -0.9487 0.3163 -0.0000
vn -0.9839 -0.1789 -0.0000
vn -0.8944 -0.4472 -0.0000
vn -0.3939 -0.9191 -0.0000
vn -0.3939 -0.9192 -0.0000
vn -0.2873 -0.9578 -0.0000
vn 0.0416 -0.9991 -0.0000
vn 0.0755 -0.9971 -0.0000
vn -0.9967 -0.0808 -0.0000
vn 0.0866 -0.9962 -0.0000
vn -0.0002 -0.0000 -1.0000
vn -0.0006 -0.0000 1.0000
vn -0.7893 0.6140 -0.0000
vn -0.9762 0.2170 -0.0000
vn -0.9923 0.1240 -0.0000
vn -0.9939 -0.1104 -0.0000
vn -0.9701 -0.2426 -0.0000
vn -0.9138 -0.4061 -0.0000
vn -0.7526 -0.6585 -0.0000
vn -0.6139 -0.7894 -0.0000
vn -0.6139 -0.7893 -0.0000
vn -0.4472 -0.8944 -0.0000
vn -0.2169 -0.9762 -0.0000
vn -0.1241 -0.9923 -0.0000
vn -0.1240 -0.9923 -0.0000
vn 0.1104 -0.9939 -0.0000
vn 0.2425 -0.9701 -0.0000
vn 0.6585 -0.7526 -0.0000
vn 0.7526 -0.6585 -0.0000
vn 0.9138 -0.4061 -0.0000
vn 0.9701 -0.2425 -0.0000
vn 0.9702 -0.2425 -0.0000
vn 0.9939 -0.1105 -0.0000
vn 0.9939 -0.1104 -0.0000
vn 0.9923 0.1240 -0.0000
vn 0.9923 0.1241 -0.0000
vn 0.9762 0.2169 -0.0000
vn 0.8944 0.4472 -0.0000
vn 0.7893 0.6139 -0.0000
vn 0.7894 0.6139 -0.0000
vn 0.6585 0.7526 -0.0000
vn 0.4061 0.9138 -0.0000
vn 0.2425 0.9701 -0.0000
vn 0.2426 0.9701 -0.0000
vn 0.1104 0.9939 -0.0000
vn -0.1240 0.9923 -0.0000
vn -0.2169 0.9762 -0.0000
vn -0.6139 0.7893 -0.0000
vn -0.6139 0.7894 -0.0000
vn -0.7044 -0.7098 -0.0000
vn 0.7098 0.7044 -0.0000
vn 0.0001 -0.0000 -1.0000
vn 0.9138 -0.4062 -0.0000
vn -0.2170 0.9762 -0.0000
vn -0.7894 0.6139 -0.0000
vn -0.9923 0.1241 -0.0000
vn -0.9701 -0.2425 -0.0000
vn -0.9138 -0.4062 -0.0000
vn 0.9971 -0.0767 -0.0000
vn 0.0767 0.9971 -0.0000
vn -0.9971 0.0767 -0.0000
vn -0.0767 -0.9971 -0.0000
vn -0.0020 -0.0000 -1.0000
vn -0.0005 -0.0000 -1.0000
vn -0.9950 -0.0995 -0.0000
vn -0.9806 -0.1961 -0.0000
vn -0.8945 -0.4472 -0.0000
vn -0.8944 -0.4473 -0.0000
vn -0.8137 -0.5813 -0.0000
vn -0.7072 -0.7070 -0.0000
vn -0.4961 -0.8683 -0.0000
vn -0.4062 -0.9138 -0.0000
vn -0.1789 -0.9839 -0.0000
vn 0.2873 -0.9578 -0.0000
vn 0.3512 -0.9363 -0.0000
vn 0.6401 -0.7683 -0.0000
vn 0.7072 -0.7070 -0.0000
vn 0.8480 -0.5300 -0.0000
vn 0.8480 -0.5301 -0.0000
vn 0.9839 -0.1789 -0.0000
vn 0.9487 0.3162 -0.0000
vn 0.9487 0.3163 -0.0000
vn 0.9363 0.3511 -0.0000
vn 0.9363 0.3512 -0.0000
vn 0.8137 0.5813 -0.0000
vn 0.7072 0.7070 -0.0000
vn 0.5299 0.8480 -0.0000
vn 0.5300 0.8480 -0.0000
vn 0.3511 0.9363 -0.0000
vn 0.2632 0.9648 -0.0000
vn 0.2631 0.9648 -0.0000
vn -0.0906 0.9959 -0.0000
vn -0.7072 0.7070 -0.0000
vn -0.9138 0.4062 -0.0000
vn -0.9839 0.1789 -0.0000
vn 0.0763 0.9971 -0.0000
vn -0.0763 -0.9971 -0.0000
vn -0.9965 0.0830 -0.0000
vn -0.0751 -0.9972 -0.0000
vn -0.9968 0.0794 -0.0000
vn 0.0755 0.9971 -0.0000
vn 0.0010 -0.0000 -1.0000
vn 0.0003 -0.0000 1.0000
vn -0.0005 -0.0000 1.0000
vn 0.9578 0.2874 -0.0000
vn 0.9192 0.3939 -0.0000
vn 0.4473 0.8944 -0.0000
vn 0.1789 0.9839 -0.0000
vn -0.3163 0.9487 -0.0000
vn -0.3162 0.9487 -0.0000
vn -0.3512 0.9363 -0.0000
vn -0.8480 0.5300 -0.0000
vn -0.9959 -0.0905 -0.0000
vn -0.9762 -0.2170 -0.0000
vn -0.8137 -0.5812 -0.0000
vn -0.4061 -0.9138 -0.0000
vn 0.0995 -0.9950 -0.0000
vn 0.1962 -0.9806 -0.0000
vn 0.4472 -0.8945 -0.0000
vn 0.9962 -0.0866 -0.0000
vn 0.0808 0.9967 -0.0000
vn 0.9971 -0.0755 -0.0000
vn 0.9991 -0.0416 -0.0000
s 0
usemtl Black
f 1//1 2//1 3//1
f 3//1 4//1 5//1
f 5//1 6//1 7//1
f 7//1 8//1 9//1
f 11//1 12//1 13//1
f 14//1 1//1 3//1
f 3//1 5//1 7//1
f 7//1 9//1 11//1
f 11//1 13//1 15//1
f 16//1 14//1 3//1
f 3//1 7//1 11//1
f 11//1 15//1 17//1
f 18//1 16//1 3//1
f 3//1 11//1 17//1
f 17//1 18//1 3//1
f 19//2 20//2 21//2
f 21//2 22//2 23//2
f 24//2 25//2 26//2
f 28//2 29//2 30//2
f 30//2 19//2 21//2
f 21//2 23//2 31//2
f 32//2 24//2 26//2
f 26//2 28//2 30//2
f 30//2 21//2 31//2
f 33//2 32//2 26//2
f 30//2 31//2 34//2
f 35//2 33//2 26//2
f 30//2 34//2 36//2
f 36//2 35//2 26//2
f 26//2 30//2 36//2
f 22//3 21//3 4//3
f 21//4 20//4 5//4
f 5//4 4//4 21//4
f 19//6 30//6 7//6
f 7//6 6//6 19//6
f 30//7 29//7 8//7
f 8//7 7//7 30//7
f 2//12 1//12 31//12
f 34//13 31//13 1//13
f 1//13 14//13 34//13
f 36//14 34//14 14//14
f 14//14 16//14 36//14
f 35//15 36//15 16//15
f 16//15 18//15 35//15
f 33//16 35//16 18//16
f 18//16 17//16 33//16
f 32//17 33//17 17//17
f 17//17 15//17 32//17
f 24//18 32//18 15//18
f 15//18 13//18 24//18
f 24//19 13//19 12//19
f 12//19 25//19 24//19
f 23//20 22//20 3//20
f 3//20 2//20 23//20
f 170//99 169//99 138//99
f 138//99 137//99 170//99
f 171//100 170//100 137//100
f 137//101 136//101 171//101
f 172//102 171//102 136//102
f 136//103 135//103 172//103
f 174//105 173//105 166//105
f 166//106 165//106 174//106
f 175//107 174//107 165//107
f 165//107 164//107 175//107
f 176//108 175//108 164//108
f 164//108 163//108 176//108
f 176//109 163//109 162//109
f 162//110 177//110 176//110
f 178//111 177//111 162//111
f 162//111 161//111 178//111
f 180//114 179//114 160//114
f 160//114 159//114 180//114
f 182//116 181//116 158//116
f 158//117 157//117 182//117
f 157//118 156//118 183//118
f 184//120 155//120 154//120
f 154//120 185//120 184//120
f 186//121 185//121 154//121
f 154//121 153//121 186//121
f 187//122 186//122 153//122
f 153//122 152//122 187//122
f 188//123 187//123 152//123
f 152//123 151//123 188//123
f 189//124 188//124 151//124
f 151//124 150//124 189//124
f 150//125 149//125 190//125
f 192//128 191//128 148//128
f 148//129 147//129 192//129
f 192//130 147//130 146//130
f 146//130 193//130 192//130
f 194//131 193//131 146//131
f 146//131 145//131 194//131
f 196//134 195//134 144//134
f 144//134 143//134 196//134
f 197//135 196//135 143//135
f 143//135 142//135 197//135
f 198//136 197//136 142//136
f 142//137 141//137 198//137
f 167//138 198//138 141//138
f 141//138 140//138 167//138
f 168//139 167//139 140//139
f 140//139 139//139 168//139
f 262//151 261//151 230//151
f 263//152 262//152 229//152
f 229//152 228//152 263//152
f 264//153 263//153 228//153
f 228//154 227//154 264//154
f 266//156 265//156 258//156
f 258//157 257//157 266//157
f 267//158 266//158 257//158
f 257//159 256//159 267//159
f 268//160 267//160 256//160
f 268//161 255//161 254//161
f 254//161 269//161 268//161
f 270//131 269//131 254//131
f 254//131 253//131 270//131
f 271//133 270//133 253//133
f 253//133 252//133 271//133
f 272//162 271//162 252//162
f 251//135 250//135 273//135
f 274//136 273//136 250//136
f 250//137 249//137 274//137
f 275//138 274//138 249//138
f 249//138 248//138 275//138
f 276//164 247//164 246//164
f 246//164 277//164 276//164
f 278//99 277//99 246//99
f 246//99 245//99 278//99
f 279//165 278//165 245//165
f 245//165 244//165 279//165
f 281//104 280//104 243//104
f 243//104 242//104 281//104
f 283//168 282//168 241//168
f 284//170 283//170 240//170
f 240//171 239//171 284//171
f 284//20 239//20 238//20
f 238//20 285//20 284//20
f 286//172 285//172 238//172
f 238//172 237//172 286//172
f 288//114 287//114 236//114
f 236//114 235//114 288//114
f 289//115 288//115 235//115
f 235//115 234//115 289//115
f 290//116 289//116 234//116
f 234//117 233//117 290//117
f 259//174 290//174 233//174
f 233//175 232//175 259//175
f 260//176 259//176 232//176
f 232//176 231//176 260//176
f 362//183 361//183 330//183
f 330//183 329//183 362//183
f 364//184 363//184 328//184
f 328//184 327//184 364//184
f 366//186 365//186 358//186
f 367//187 366//187 357//187
f 357//187 356//187 367//187
f 368//188 367//188 356//188
f 356//188 355//188 368//188
f 368//189 355//189 354//189
f 354//189 369//189 368//189
f 370//190 369//190 354//190
f 354//191 353//191 370//191
f 372//193 371//193 352//193
f 352//193 351//193 372//193
f 373//194 372//194 351//194
f 351//195 350//195 373//195
f 375//197 374//197 349//197
f 349//197 348//197 375//197
f 376//152 375//152 348//152
f 348//152 347//152 376//152
f 376//198 347//198 346//198
f 346//198 377//198 376//198
f 378//199 377//199 346//199
f 346//199 345//199 378//199
f 379//200 378//200 345//200
f 380//201 379//201 344//201
f 344//202 343//202 380//202
f 382//205 381//205 342//205
f 383//207 382//207 341//207
f 341//207 340//207 383//207
f 384//209 339//209 338//209
f 338//210 385//210 384//210
f 386//211 385//211 338//211
f 338//211 337//211 386//211
f 387//212 386//212 337//212
f 337//212 336//212 387//212
f 388//213 387//213 336//213
f 336//214 335//214 388//214
f 390//216 389//216 334//216
f 334//216 333//216 390//216
f 359//217 390//217 333//217
f 333//217 332//217 359//217
f 360//218 331//218 330//218
f 330//219 361//219 360//219
f 454//199 453//199 422//199
f 422//199 421//199 454//199
f 456//202 455//202 420//202
f 420//201 419//201 456//201
f 457//203 456//203 419//203
f 419//203 450//203 457//203
f 459//207 458//207 449//207
f 449//207 448//207 459//207
f 460//208 459//208 448//208
f 448//208 447//208 460//208
f 460//210 447//210 446//210
f 446//210 461//210 460//210
f 462//211 461//211 446//211
f 446//211 445//211 462//211
f 464//214 463//214 444//214
f 444//214 443//214 464//214
f 465//215 464//215 443//215
f 443//215 442//215 465//215
f 467//224 466//224 441//224
f 441//224 440//224 467//224
f 468//165 467//165 440//165
f 440//165 439//165 468//165
f 468//219 439//219 438//219
f 438//219 469//219 468//219
f 470//225 469//225 438//225
f 438//225 437//225 470//225
f 471//107 470//107 437//107
f 437//107 436//107 471//107
f 472//108 471//108 436//108
f 436//108 435//108 472//108
f 474//186 473//186 434//186
f 434//186 433//186 474//186
f 475//227 474//227 433//227
f 433//227 432//227 475//227
f 476//189 431//189 430//189
f 430//189 477//189 476//189
f 478//190 477//190 430//190
f 430//190 429//190 478//190
f 479//192 478//192 429//192
f 480//193 479//193 428//193
f 428//193 427//193 480//193
f 482//196 481//196 426//196
f 451//197 482//197 425//197
f 425//197 424//197 451//197
f 452//198 423//198 422//198
f 422//198 453//198 452//198
f 554//235 553//235 522//235
f 555//236 554//236 521//236
f 521//236 520//236 555//236
f 556//237 555//237 520//237
f 520//238 519//238 556//238
f 557//239 556//239 519//239
f 519//239 550//239 557//239
f 558//240 557//240 550//240
f 550//115 549//115 558//115
f 559//241 558//241 549//241
f 549//241 548//241 559//241
f 560//243 547//243 546//243
f 546//243 561//243 560//243
f 562//120 561//120 546//120
f 546//120 545//120 562//120
f 563//244 562//244 545//244
f 545//244 544//244 563//244
f 564//245 563//245 544//245
f 544//245 543//245 564//245
f 566//247 565//247 542//247
f 542//124 541//124 566//124
f 567//248 566//248 541//248
f 568//158 567//158 540//158
f 568//250 539//250 538//250
f 538//250 569//250 568//250
f 570//130 569//130 538//130
f 538//130 537//130 570//130
f 537//252 536//252 571//252
f 573//255 572//255 535//255
f 535//162 534//162 573//162
f 574//135 573//135 534//135
f 575//257 574//257 533//257
f 533//258 532//258 575//258
f 576//260 531//260 530//260
f 530//261 577//261 576//261
f 578//262 577//262 530//262
f 530//262 529//262 578//262
f 579//224 578//224 529//224
f 529//224 528//224 579//224
f 581//102 580//102 527//102
f 527//102 526//102 581//102
f 551//167 582//167 525//167
f 525//167 524//167 551//167
f 552//264 551//264 524//264
f 524//264 523//264 552//264
f 647//275 646//275 613//275
f 648//276 647//276 612//276
f 612//276 611//276 648//276
f 649//255 648//255 611//255
f 611//255 642//255 649//255
f 650//135 649//135 642//135
f 642//135 641//135 650//135
f 651//258 650//258 641//258
f 641//258 640//258 651//258
f 652//277 651//277 640//277
f 640//138 639//138 652//138
f 652//278 639//278 638//278
f 638//278 653//278 652//278
f 654//11 653//11 638//11
f 638//11 637//11 654//11
f 655//279 654//279 637//279
f 637//280 636//280 655//280
f 657//102 656//102 635//102
f 658//104 657//104 634//104
f 634//104 633//104 658//104
f 660//107 659//107 632//107
f 632//107 631//107 660//107
f 660//265 631//265 630//265
f 630//265 661//265 660//265
f 662//283 661//283 630//283
f 630//283 629//283 662//283
f 664//173 663//173 628//173
f 628//173 627//173 664//173
f 665//285 664//285 627//285
f 627//285 626//285 665//285
f 667//117 666//117 625//117
f 625//117 624//117 667//117
f 668//286 667//286 624//286
f 624//286 623//286 668//286
f 668//243 623//243 622//243
f 622//243 669//243 668//243
f 670//287 669//287 622//287
f 622//287 621//287 670//287
f 671//288 670//288 621//288
f 621//288 620//288 671//288
f 672//122 671//122 620//122
f 620//289 619//289 672//289
f 673//153 672//153 619//153
f 618//125 617//125 674//125
f 643//157 674//157 617//157
f 617//157 616//157 643//157
f 644//200 643//200 616//200
f 616//200 615//200 644//200
f 614//160 645//160 644//160
usemtl Aluminum
f 9//1 10//1 11//1
f 26//2 27//2 28//2
f 4//3 3//3 22//3
f 20//5 19//5 6//5
f 6//5 5//5 20//5
f 29//8 28//8 9//8
f 9//8 8//8 29//8
f 28//9 27//9 10//9
f 10//9 9//9 28//9
f 10//10 27//10 26//10
f 26//10 11//10 10//10
f 26//11 25//11 12//11
f 12//11 11//11 26//11
f 31//12 23//12 2//12
f 37//20 38//20 39//20
f 39//20 40//20 41//20
f 41//20 37//20 39//20
f 42//11 43//11 44//11
f 44//11 45//11 46//11
f 46//11 42//11 44//11
f 39//21 47//21 48//21
f 48//21 40//21 39//21
f 47//22 49//22 50//22
f 50//22 48//22 47//22
f 49//23 51//23 52//23
f 52//23 50//23 49//23
f 51//24 53//24 54//24
f 54//24 52//24 51//24
f 53//25 55//25 56//25
f 56//25 54//25 53//25
f 55//26 57//26 58//26
f 58//26 56//26 55//26
f 57//27 59//27 60//27
f 60//27 58//27 57//27
f 60//28 59//28 45//28
f 45//28 44//28 60//28
f 61//2 62//2 41//2
f 41//2 40//2 48//2
f 60//2 44//2 43//2
f 43//2 63//2 64//2
f 64//2 65//2 66//2
f 66//2 67//2 61//2
f 61//2 41//2 48//2
f 60//2 43//2 64//2
f 61//2 48//2 50//2
f 58//2 60//2 64//2
f 61//2 50//2 52//2
f 56//2 58//2 64//2
f 66//2 61//2 52//2
f 56//2 64//2 66//2
f 66//2 52//2 54//2
f 54//2 56//2 66//2
f 41//29 62//29 68//29
f 68//29 37//29 41//29
f 62//30 61//30 69//30
f 69//30 68//30 62//30
f 61//31 67//31 70//31
f 70//31 69//31 61//31
f 67//32 66//32 71//32
f 71//32 70//32 67//32
f 66//33 65//33 72//33
f 72//33 71//33 66//33
f 65//34 64//34 73//34
f 73//34 72//34 65//34
f 64//35 63//35 74//35
f 74//35 73//35 64//35
f 74//36 63//36 43//36
f 43//36 42//36 74//36
f 75//37 38//37 68//37
f 38//38 37//38 68//38
f 76//39 75//39 69//39
f 68//40 69//40 75//40
f 77//41 76//41 70//41
f 69//42 70//42 76//42
f 78//43 77//43 71//43
f 70//44 71//44 77//44
f 79//45 78//45 72//45
f 71//46 72//46 78//46
f 80//47 79//47 73//47
f 72//48 73//48 79//48
f 81//49 80//49 74//49
f 73//50 74//50 80//50
f 42//51 46//51 81//51
f 74//52 42//52 81//52
f 47//1 39//1 38//1
f 76//1 77//1 78//1
f 78//1 79//1 80//1
f 81//1 46//1 45//1
f 47//1 38//1 75//1
f 81//1 45//1 59//1
f 49//1 47//1 75//1
f 80//1 81//1 59//1
f 49//1 75//1 76//1
f 80//1 59//1 57//1
f 51//1 49//1 76//1
f 80//1 57//1 55//1
f 51//1 76//1 78//1
f 78//1 80//1 55//1
f 53//1 51//1 78//1
f 78//1 55//1 53//1
f 82//20 83//20 84//20
f 84//20 85//20 86//20
f 86//20 82//20 84//20
f 87//11 88//11 89//11
f 89//11 90//11 91//11
f 91//11 87//11 89//11
f 92//53 85//53 84//53
f 84//53 93//53 92//53
f 94//54 92//54 93//54
f 93//54 95//54 94//54
f 96//31 94//31 95//31
f 95//31 97//31 96//31
f 98//55 96//55 97//55
f 97//55 99//55 98//55
f 100//56 98//56 99//56
f 99//56 101//56 100//56
f 102//34 100//34 101//34
f 101//34 103//34 102//34
f 104//57 102//57 103//57
f 103//57 105//57 104//57
f 104//58 105//58 90//58
f 90//58 89//58 104//58
f 106//1 86//1 85//1
f 85//1 92//1 94//1
f 94//1 96//1 98//1
f 98//1 100//1 102//1
f 102//1 104//1 89//1
f 89//1 88//1 107//1
f 106//1 85//1 94//1
f 102//1 89//1 107//1
f 108//1 106//1 94//1
f 102//1 107//1 109//1
f 110//1 108//1 94//1
f 98//1 102//1 109//1
f 110//1 94//1 98//1
f 98//1 109//1 111//1
f 112//1 110//1 98//1
f 98//1 111//1 112//1
f 86//59 106//59 113//59
f 82//60 86//60 113//60
f 106//61 108//61 114//61
f 114//62 113//62 106//62
f 108//63 110//63 115//63
f 115//64 114//64 108//64
f 110//65 112//65 116//65
f 116//66 115//66 110//66
f 112//67 111//67 117//67
f 117//68 116//68 112//68
f 111//69 109//69 118//69
f 118//70 117//70 111//70
f 109//71 107//71 119//71
f 119//72 118//72 109//72
f 88//73 87//73 107//73
f 87//74 119//74 107//74
f 120//75 83//75 82//75
f 82//75 113//75 120//75
f 121//76 120//76 113//76
f 113//76 114//76 121//76
f 122//77 121//77 114//77
f 114//77 115//77 122//77
f 123//78 122//78 115//78
f 115//78 116//78 123//78
f 124//79 123//79 116//79
f 116//79 117//79 124//79
f 125//80 124//80 117//80
f 117//80 118//80 125//80
f 126//81 125//81 118//81
f 118//81 119//81 126//81
f 126//82 119//82 87//82
f 87//82 91//82 126//82
f 95//2 93//2 84//2
f 84//2 83//2 120//2
f 126//2 91//2 90//2
f 90//2 105//2 103//2
f 103//2 101//2 99//2
f 99//2 97//2 95//2
f 95//2 84//2 120//2
f 126//2 90//2 103//2
f 95//2 120//2 121//2
f 125//2 126//2 103//2
f 99//2 95//2 121//2
f 124//2 125//2 103//2
f 99//2 121//2 122//2
f 123//2 124//2 103//2
f 99//2 122//2 123//2
f 123//2 103//2 99//2
f 127//2 128//2 129//2
f 129//2 130//2 127//2
f 131//1 132//1 133//1
f 133//1 134//1 131//1
f 134//83 133//83 130//83
f 130//83 129//83 134//83
f 131//84 134//84 129//84
f 129//84 128//84 131//84
f 132//85 131//85 128//85
f 128//85 127//85 132//85
f 133//86 132//86 127//86
f 127//86 130//86 133//86
f 135//87 136//87 137//87
f 137//2 138//2 139//2
f 139//2 140//2 141//2
f 141//2 142//2 143//2
f 143//88 144//88 145//88
f 145//89 146//89 147//89
f 147//90 148//90 149//90
f 149//2 150//2 151//2
f 151//91 152//91 153//91
f 153//2 154//2 155//2
f 155//2 156//2 157//2
f 157//2 158//2 159//2
f 159//91 160//91 161//91
f 161//2 162//2 163//2
f 163//92 164//92 165//92
f 165//2 166//2 135//2
f 135//2 137//2 139//2
f 139//93 141//93 143//93
f 143//2 145//2 147//2
f 147//2 149//2 151//2
f 151//2 153//2 155//2
f 155//93 157//93 159//93
f 159//2 161//2 163//2
f 163//2 165//2 135//2
f 135//2 139//2 143//2
f 143//2 147//2 151//2
f 151//2 155//2 159//2
f 159//2 163//2 135//2
f 135//2 143//2 151//2
f 151//2 159//2 135//2
f 167//94 168//94 169//94
f 169//1 170//1 171//1
f 171//95 172//95 173//95
f 173//1 174//1 175//1
f 175//1 176//1 177//1
f 177//1 178//1 179//1
f 179//1 180//1 181//1
f 181//96 182//96 183//96
f 183//1 184//1 185//1
f 185//94 186//94 187//94
f 187//1 188//1 189//1
f 189//1 190//1 191//1
f 191//1 192//1 193//1
f 193//96 194//96 195//96
f 195//97 196//97 197//97
f 197//1 198//1 167//1
f 167//1 169//1 171//1
f 171//94 173//94 175//94
f 175//1 177//1 179//1
f 179//1 181//1 183//1
f 183//1 185//1 187//1
f 187//98 189//98 191//98
f 191//1 193//1 195//1
f 195//94 197//94 167//94
f 167//1 171//1 175//1
f 175//1 179//1 183//1
f 183//1 187//1 191//1
f 191//1 195//1 167//1
f 167//1 175//1 183//1
f 183//1 191//1 167//1
f 173//104 172//104 135//104
f 135//104 166//104 173//104
f 179//112 178//112 161//112
f 161//113 160//113 179//113
f 181//115 180//115 159//115
f 159//115 158//115 181//115
f 183//118 182//118 157//118
f 184//119 183//119 156//119
f 156//119 155//119 184//119
f 190//125 189//125 150//125
f 191//126 190//126 149//126
f 149//127 148//127 191//127
f 195//132 194//132 145//132
f 145//133 144//133 195//133
f 168//140 139//140 138//140
f 138//140 169//140 168//140
f 199//1 200//1 201//1
f 201//1 202//1 199//1
f 203//2 204//2 205//2
f 205//2 206//2 203//2
f 206//83 205//83 202//83
f 202//83 201//83 206//83
f 205//141 204//141 199//141
f 199//141 202//141 205//141
f 204//85 203//85 200//85
f 200//85 199//85 204//85
f 203//142 206//142 201//142
f 201//142 200//142 203//142
f 207//2 199//2 202//2
f 201//2 200//2 208//2
f 209//2 207//2 202//2
f 201//2 208//2 210//2
f 210//2 209//2 202//2
f 202//2 201//2 210//2
f 211//1 212//1 213//1
f 214//1 215//1 216//1
f 217//1 211//1 213//1
f 214//1 216//1 218//1
f 218//1 217//1 213//1
f 213//1 214//1 218//1
f 214//83 213//83 201//83
f 201//83 202//83 214//83
f 215//141 214//141 202//141
f 202//141 199//141 215//141
f 216//143 215//143 199//143
f 199//143 207//143 216//143
f 218//144 216//144 207//144
f 207//144 209//144 218//144
f 217//145 218//145 209//145
f 209//145 210//145 217//145
f 211//146 217//146 210//146
f 210//146 208//146 211//146
f 212//143 211//143 208//143
f 208//143 200//143 212//143
f 213//142 212//142 200//142
f 200//142 201//142 213//142
f 219//2 220//2 221//2
f 221//2 222//2 219//2
f 223//1 224//1 225//1
f 225//1 226//1 223//1
f 226//85 225//85 222//85
f 222//85 221//85 226//85
f 223//86 226//86 221//86
f 221//86 220//86 223//86
f 224//83 223//83 220//83
f 220//83 219//83 224//83
f 225//84 224//84 219//84
f 219//84 222//84 225//84
f 227//2 228//2 229//2
f 229//2 230//2 231//2
f 231//92 232//92 233//92
f 233//2 234//2 235//2
f 235//2 236//2 237//2
f 237//92 238//92 239//92
f 239//147 240//147 241//147
f 241//148 242//148 243//148
f 243//149 244//149 245//149
f 245//2 246//2 247//2
f 247//2 248//2 249//2
f 249//2 250//2 251//2
f 251//2 252//2 253//2
f 253//87 254//87 255//87
f 255//2 256//2 257//2
f 257//91 258//91 227//91
f 227//2 229//2 231//2
f 231//2 233//2 235//2
f 235//2 237//2 239//2
f 239//93 241//93 243//93
f 243//2 245//2 247//2
f 247//93 249//93 251//93
f 251//93 253//93 255//93
f 255//93 257//93 227//93
f 227//2 231//2 235//2
f 235//2 239//2 243//2
f 243//2 247//2 251//2
f 251//2 255//2 227//2
f 227//2 235//2 243//2
f 243//2 251//2 227//2
f 259//1 260//1 261//1
f 261//94 262//94 263//94
f 263//150 264//150 265//150
f 265//1 266//1 267//1
f 267//1 268//1 269//1
f 269//1 270//1 271//1
f 271//1 272//1 273//1
f 273//1 274//1 275//1
f 275//1 276//1 277//1
f 277//1 278//1 279//1
f 279//97 280//97 281//97
f 281//95 282//95 283//95
f 283//1 284//1 285//1
f 285//97 286//97 287//97
f 287//1 288//1 289//1
f 289//98 290//98 259//98
f 259//1 261//1 263//1
f 263//94 265//94 267//94
f 267//94 269//94 271//94
f 271//1 273//1 275//1
f 275//1 277//1 279//1
f 279//1 281//1 283//1
f 283//1 285//1 287//1
f 287//1 289//1 259//1
f 259//1 263//1 267//1
f 267//1 271//1 275//1
f 275//1 279//1 283//1
f 283//1 287//1 259//1
f 259//1 267//1 275//1
f 275//1 283//1 259//1
f 230//151 229//151 262//151
f 265//155 264//155 227//155
f 227//155 258//155 265//155
f 256//160 255//160 268//160
f 252//162 251//162 272//162
f 273//135 272//135 251//135
f 276//163 275//163 248//163
f 248//163 247//163 276//163
f 280//166 279//166 244//166
f 244//166 243//166 280//166
f 282//167 281//167 242//167
f 242//105 241//105 282//105
f 241//169 240//169 283//169
f 287//173 286//173 237//173
f 237//173 236//173 287//173
f 260//120 231//120 230//120
f 230//120 261//120 260//120
f 291//1 292//1 293//1
f 293//1 294//1 291//1
f 295//2 296//2 297//2
f 297//2 298//2 295//2
f 298//85 297//85 294//85
f 294//85 293//85 298//85
f 297//142 296//142 291//142
f 291//142 294//142 297//142
f 296//83 295//83 292//83
f 292//83 291//83 296//83
f 295//141 298//141 293//141
f 293//141 292//141 295//141
f 299//2 291//2 294//2
f 293//2 292//2 300//2
f 301//2 299//2 294//2
f 293//2 300//2 302//2
f 302//2 301//2 294//2
f 294//2 293//2 302//2
f 303//1 304//1 305//1
f 306//1 307//1 308//1
f 309//1 303//1 305//1
f 306//1 308//1 310//1
f 310//1 309//1 305//1
f 305//1 306//1 310//1
f 306//85 305//85 293//85
f 293//85 294//85 306//85
f 307//142 306//142 294//142
f 294//142 291//142 307//142
f 308//177 307//177 291//177
f 291//177 299//177 308//177
f 310//146 308//146 299//146
f 299//146 301//146 310//146
f 309//178 310//178 301//178
f 301//178 302//178 309//178
f 303//179 309//179 302//179
f 302//179 300//179 303//179
f 304//180 303//180 300//180
f 300//180 292//180 304//180
f 305//141 304//141 292//141
f 292//141 293//141 305//141
f 314//1 313//1 312//1
f 312//1 311//1 314//1
f 318//1 317//1 316//1
f 316//1 315//1 318//1
f 319//2 320//2 321//2
f 321//2 322//2 319//2
f 323//1 324//1 325//1
f 325//1 326//1 323//1
f 326//124 325//124 322//124
f 322//124 321//124 326//124
f 323//135 326//135 321//135
f 321//135 320//135 323//135
f 324//104 323//104 320//104
f 320//104 319//104 324//104
f 325//115 324//115 319//115
f 319//115 322//115 325//115
f 327//2 328//2 329//2
f 329//181 330//181 331//181
f 331//2 332//2 333//2
f 333//2 334//2 335//2
f 335//2 336//2 337//2
f 337//92 338//92 339//92
f 339//2 340//2 341//2
f 341//2 342//2 343//2
f 343//2 344//2 345//2
f 345//2 346//2 347//2
f 347//181 348//181 349//181
f 349//2 350//2 351//2
f 351//87 352//87 353//87
f 353//2 354//2 355//2
f 355//2 356//2 357//2
f 357//2 358//2 327//2
f 327//2 329//2 331//2
f 331//2 333//2 335//2
f 335//93 337//93 339//93
f 339//2 341//2 343//2
f 343//2 345//2 347//2
f 347//2 349//2 351//2
f 351//2 353//2 355//2
f 355//93 357//93 327//93
f 327//2 331//2 335//2
f 335//2 339//2 343//2
f 343//2 347//2 351//2
f 351//2 355//2 327//2
f 327//2 335//2 343//2
f 343//2 351//2 327//2
f 359//97 360//97 361//97
f 361//1 362//1 363//1
f 363//1 364//1 365//1
f 365//182 366//182 367//182
f 367//97 368//97 369//97
f 369//97 370//97 371//97
f 371//94 372//94 373//94
f 373//97 374//97 375//97
f 375//94 376//94 377//94
f 377//96 378//96 379//96
f 379//150 380//150 381//150
f 381//1 382//1 383//1
f 383//1 384//1 385//1
f 385//94 386//94 387//94
f 387//1 388//1 389//1
f 389//1 390//1 359//1
f 359//94 361//94 363//94
f 363//94 365//94 367//94
f 367//1 369//1 371//1
f 371//1 373//1 375//1
f 375//98 377//98 379//98
f 379//98 381//98 383//98
f 383//1 385//1 387//1
f 387//1 389//1 359//1
f 359//98 363//98 367//98
f 367//1 371//1 375//1
f 375//1 379//1 383//1
f 383//1 387//1 359//1
f 359//1 367//1 375//1
f 375//1 383//1 359//1
f 363//107 362//107 329//107
f 329//107 328//107 363//107
f 365//185 364//185 327//185
f 327//185 358//185 365//185
f 358//186 357//186 366//186
f 371//192 370//192 353//192
f 353//192 352//192 371//192
f 374//196 373//196 350//196
f 350//196 349//196 374//196
f 345//200 344//200 379//200
f 381//203 380//203 343//203
f 343//204 342//204 381//204
f 342//206 341//206 382//206
f 384//208 383//208 340//208
f 340//208 339//208 384//208
f 389//215 388//215 335//215
f 335//215 334//215 389//215
f 360//165 359//165 332//165
f 332//165 331//165 360//165
f 391//1 392//1 393//1
f 393//1 394//1 391//1
f 395//2 396//2 397//2
f 397//2 398//2 395//2
f 398//124 397//124 394//124
f 394//124 393//124 398//124
f 397//135 396//135 391//135
f 391//135 394//135 397//135
f 396//104 395//104 392//104
f 392//104 391//104 396//104
f 395//115 398//115 393//115
f 393//115 392//115 395//115
f 399//2 391//2 394//2
f 393//2 392//2 400//2
f 401//2 399//2 394//2
f 393//2 400//2 402//2
f 402//2 401//2 394//2
f 394//2 393//2 402//2
f 403//1 404//1 405//1
f 406//1 407//1 408//1
f 409//1 403//1 405//1
f 406//1 408//1 410//1
f 410//1 409//1 405//1
f 405//1 406//1 410//1
f 406//124 405//124 393//124
f 393//124 394//124 406//124
f 407//135 406//135 394//135
f 394//135 391//135 407//135
f 408//104 407//104 391//104
f 391//104 399//104 408//104
f 410//220 408//220 399//220
f 399//220 401//220 410//220
f 409//104 410//104 401//104
f 401//104 402//104 409//104
f 403//221 409//221 402//221
f 402//221 400//221 403//221
f 404//104 403//104 400//104
f 400//104 392//104 404//104
f 405//115 404//115 392//115
f 392//115 393//115 405//115
f 411//2 412//2 413//2
f 413//2 414//2 411//2
f 415//1 416//1 417//1
f 417//1 418//1 415//1
f 418//104 417//104 414//104
f 414//104 413//104 418//104
f 415//115 418//115 413//115
f 413//115 412//115 415//115
f 416//124 415//124 412//124
f 412//124 411//124 416//124
f 417//135 416//135 411//135
f 411//135 414//135 417//135
f 419//2 420//2 421//2
f 421//2 422//2 423//2
f 423//181 424//181 425//181
f 425//2 426//2 427//2
f 427//87 428//87 429//87
f 429//2 430//2 431//2
f 431//2 432//2 433//2
f 433//149 434//149 435//149
f 435//2 436//2 437//2
f 437//2 438//2 439//2
f 439//222 440//222 441//222
f 441//2 442//2 443//2
f 443//181 444//181 445//181
f 445//2 446//2 447//2
f 447//2 448//2 449//2
f 449//91 450//91 419//91
f 419//222 421//222 423//222
f 423//2 425//2 427//2
f 427//2 429//2 431//2
f 431//222 433//222 435//222
f 435//222 437//222 439//222
f 439//2 441//2 443//2
f 443//2 445//2 447//2
f 447//93 449//93 419//93
f 419//2 423//2 427//2
f 427//2 431//2 435//2
f 435//2 439//2 443//2
f 443//2 447//2 419//2
f 419//2 427//2 435//2
f 435//2 443//2 419//2
f 451//94 452//94 453//94
f 453//1 454//1 455//1
f 455//150 456//150 457//150
f 457//1 458//1 459//1
f 459//1 460//1 461//1
f 461//94 462//94 463//94
f 463//94 464//94 465//94
f 465//97 466//97 467//97
f 467//97 468//97 469//97
f 469//1 470//1 471//1
f 471//1 472//1 473//1
f 473//182 474//182 475//182
f 475//1 476//1 477//1
f 477//97 478//97 479//97
f 479//98 480//98 481//98
f 481//1 482//1 451//1
f 451//1 453//1 455//1
f 455//1 457//1 459//1
f 459//1 461//1 463//1
f 463//1 465//1 467//1
f 467//1 469//1 471//1
f 471//1 473//1 475//1
f 475//1 477//1 479//1
f 479//1 481//1 451//1
f 451//1 455//1 459//1
f 459//1 463//1 467//1
f 467//1 471//1 475//1
f 475//1 479//1 451//1
f 451//1 459//1 467//1
f 467//1 475//1 451//1
f 455//223 454//223 421//223
f 421//200 420//200 455//200
f 458//206 457//206 450//206
f 450//206 449//206 458//206
f 463//212 462//212 445//212
f 445//212 444//212 463//212
f 466//216 465//216 442//216
f 442//216 441//216 466//216
f 473//226 472//226 435//226
f 435//185 434//185 473//185
f 476//228 475//228 432//228
f 432//188 431//188 476//188
f 429//192 428//192 479//192
f 481//195 480//195 427//195
f 427//195 426//195 481//195
f 426//196 425//196 482//196
f 452//152 451//152 424//152
f 424//152 423//152 452//152
f 483//1 484//1 485//1
f 485//1 486//1 483//1
f 487//2 488//2 489//2
f 489//2 490//2 487//2
f 490//104 489//104 486//104
f 486//104 485//104 490//104
f 489//115 488//115 483//115
f 483//115 486//115 489//115
f 488//124 487//124 484//124
f 484//124 483//124 488//124
f 487//135 490//135 485//135
f 485//135 484//135 487//135
f 491//2 483//2 486//2
f 485//2 484//2 492//2
f 493//2 491//2 486//2
f 485//2 492//2 494//2
f 494//2 493//2 486//2
f 486//2 485//2 494//2
f 495//1 496//1 497//1
f 498//1 499//1 500//1
f 501//1 495//1 497//1
f 498//1 500//1 502//1
f 502//1 501//1 497//1
f 497//1 498//1 502//1
f 498//104 497//104 485//104
f 485//104 486//104 498//104
f 499//115 498//115 486//115
f 486//115 483//115 499//115
f 500//124 499//124 483//124
f 483//124 491//124 500//124
f 502//135 500//135 491//135
f 491//135 493//135 502//135
f 501//124 502//124 493//124
f 493//124 494//124 501//124
f 495//115 501//115 494//115
f 494//115 492//115 495//115
f 496//124 495//124 492//124
f 492//124 484//124 496//124
f 497//135 496//135 484//135
f 484//135 485//135 497//135
f 506//1 505//1 504//1
f 504//1 503//1 506//1
f 510//1 509//1 508//1
f 508//1 507//1 510//1
f 511//2 512//2 513//2
f 513//2 514//2 511//2
f 515//1 516//1 517//1
f 517//1 518//1 515//1
f 518//229 517//229 514//229
f 514//229 513//229 518//229
f 515//230 518//230 513//230
f 513//230 512//230 515//230
f 516//231 515//231 512//231
f 512//231 511//231 516//231
f 517//232 516//232 511//232
f 511//232 514//232 517//232
f 519//2 520//2 521//2
f 521//2 522//2 523//2
f 523//149 524//149 525//149
f 525//148 526//148 527//148
f 527//93 528//93 529//93
f 529//2 530//2 531//2
f 531//181 532//181 533//181
f 533//2 534//2 535//2
f 535//233 536//233 537//233
f 537//2 538//2 539//2
f 539//2 540//2 541//2
f 541//2 542//2 543//2
f 543//148 544//148 545//148
f 545//2 546//2 547//2
f 547//2 548//2 549//2
f 549//234 550//234 519//234
f 519//2 521//2 523//2
f 523//93 525//93 527//93
f 527//2 529//2 531//2
f 531//2 533//2 535//2
f 535//222 537//222 539//222
f 539//222 541//222 543//222
f 543//2 545//2 547//2
f 547//2 549//2 519//2
f 519//2 523//2 527//2
f 527//2 531//2 535//2
f 535//2 539//2 543//2
f 543//2 547//2 519//2
f 519//2 527//2 535//2
f 535//2 543//2 519//2
f 551//97 552//97 553//97
f 553//1 554//1 555//1
f 555//1 556//1 557//1
f 557//97 558//97 559//97
f 559//98 560//98 561//98
f 561//1 562//1 563//1
f 563//98 564//98 565//98
f 565//1 566//1 567//1
f 567//97 568//97 569//97
f 569//1 570//1 571//1
f 571//96 572//96 573//96
f 573//1 574//1 575//1
f 575//1 576//1 577//1
f 577//1 578//1 579//1
f 579//95 580//95 581//95
f 581//1 582//1 551//1
f 551//1 553//1 555//1
f 555//98 557//98 559//98
f 559//1 561//1 563//1
f 563//1 565//1 567//1
f 567//94 569//94 571//94
f 571//1 573//1 575//1
f 575//1 577//1 579//1
f 579//1 581//1 551//1
f 551//1 555//1 559//1
f 559//1 563//1 567//1
f 567//1 571//1 575//1
f 575//1 579//1 551//1
f 551//1 559//1 567//1
f 567//1 575//1 551//1
f 522//235 521//235 554//235
f 560//242 559//242 548//242
f 548//242 547//242 560//242
f 565//155 564//155 543//155
f 543//246 542//246 565//246
f 541//249 540//249 567//249
f 540//158 539//158 568//158
f 571//251 570//251 537//251
f 572//253 571//253 536//253
f 536//254 535//254 572//254
f 534//256 533//256 574//256
f 576//259 575//259 532//259
f 532//259 531//259 576//259
f 580//165 579//165 528//165
f 528//165 527//165 580//165
f 582//263 581//263 526//263
f 526//104 525//104 582//104
f 552//265 523//265 522//265
f 522//265 553//265 552//265
f 583//1 584//1 585//1
f 585//1 586//1 583//1
f 587//2 588//2 589//2
f 589//2 590//2 587//2
f 590//229 589//229 586//229
f 586//229 585//229 590//229
f 589//266 588//266 583//266
f 583//266 586//266 589//266
f 588//231 587//231 584//231
f 584//231 583//231 588//231
f 587//267 590//267 585//267
f 585//267 584//267 587//267
f 591//2 583//2 586//2
f 585//2 584//2 592//2
f 593//2 591//2 586//2
f 585//2 592//2 594//2
f 594//2 593//2 586//2
f 586//2 585//2 594//2
f 595//1 596//1 597//1
f 598//1 599//1 600//1
f 601//1 595//1 597//1
f 598//1 600//1 602//1
f 602//1 601//1 597//1
f 597//1 598//1 602//1
f 598//229 597//229 585//229
f 585//229 586//229 598//229
f 599//266 598//266 586//266
f 586//266 583//266 599//266
f 600//268 599//268 583//268
f 583//268 591//268 600//268
f 602//269 600//269 591//269
f 591//269 593//269 602//269
f 601//270 602//270 593//270
f 593//270 594//270 601//270
f 595//271 601//271 594//271
f 594//271 592//271 595//271
f 596//268 595//268 592//268
f 592//268 584//268 596//268
f 597//267 596//267 584//267
f 584//267 585//267 597//267
f 603//2 604//2 605//2
f 605//2 606//2 603//2
f 607//1 608//1 609//1
f 609//1 610//1 607//1
f 610//231 609//231 606//231
f 606//231 605//231 610//231
f 607//232 610//232 605//232
f 605//232 604//232 607//232
f 608//229 607//229 604//229
f 604//229 603//229 608//229
f 609//230 608//230 603//230
f 603//230 606//230 609//230
f 611//2 612//2 613//2
f 613//92 614//92 615//92
f 615//91 616//91 617//91
f 617//2 618//2 619//2
f 619//222 620//222 621//222
f 621//2 622//2 623//2
f 623//2 624//2 625//2
f 625//2 626//2 627//2
f 627//2 628//2 629//2
f 629//2 630//2 631//2
f 631//2 632//2 633//2
f 633//148 634//148 635//148
f 635//272 636//272 637//272
f 637//2 638//2 639//2
f 639//149 640//149 641//149
f 641//234 642//234 611//234
f 611//93 613//93 615//93
f 615//93 617//93 619//93
f 619//2 621//2 623//2
f 623//2 625//2 627//2
f 627//93 629//93 631//93
f 631//222 633//222 635//222
f 635//2 637//2 639//2
f 639//2 641//2 611//2
f 611//2 615//2 619//2
f 619//2 623//2 627//2
f 627//2 631//2 635//2
f 635//2 639//2 611//2
f 611//2 619//2 627//2
f 627//2 635//2 611//2
f 643//1 644//1 645//1
f 645//1 646//1 647//1
f 647//1 648//1 649//1
f 649//1 650//1 651//1
f 651//94 652//94 653//94
f 653//1 654//1 655//1
f 655//96 656//96 657//96
f 657//273 658//273 659//273
f 659//1 660//1 661//1
f 661//274 662//274 663//274
f 663//95 664//95 665//95
f 665//273 666//273 667//273
f 667//1 668//1 669//1
f 669//1 670//1 671//1
f 671//1 672//1 673//1
f 673//182 674//182 643//182
f 643//1 645//1 647//1
f 647//94 649//94 651//94
f 651//1 653//1 655//1
f 655//1 657//1 659//1
f 659//94 661//94 663//94
f 663//1 665//1 667//1
f 667//1 669//1 671//1
f 671//94 673//94 643//94
f 643//1 647//1 651//1
f 651//1 655//1 659//1
f 659//1 663//1 667//1
f 667//1 671//1 643//1
f 643//1 651//1 659//1
f 659//1 667//1 643//1
f 646//130 645//130 614//130
f 614//130 613//130 646//130
f 613//275 612//275 647//275
f 656//281 655//281 636//281
f 636//281 635//281 656//281
f 635//102 634//102 657//102
f 659//282 658//282 633//282
f 633//282 632//282 659//282
f 663//284 662//284 629//284
f 629//284 628//284 663//284
f 666//115 665//115 626//115
f 626//115 625//115 666//115
f 619//153 618//153 673//153
f 674//125 673//125 618//125
f 644//160 615//160 614//160
f 675//1 676//1 677//1
f 677//1 678//1 675//1
f 679//2 680//2 681//2
f 681//2 682//2 679//2
f 682//231 681//231 678//231
f 678//231 677//231 682//231
f 681//267 680//267 675//267
f 675//267 678//267 681//267
f 680//229 679//229 676//229
f 676//229 675//229 680//229
f 679//266 682//266 677//266
f 677//266 676//266 679//266
f 683//2 675//2 678//2
f 677//2 676//2 684//2
f 685//2 683//2 678//2
f 677//2 684//2 686//2
f 686//2 685//2 678//2
f 678//2 677//2 686//2
f 687//1 688//1 689//1
f 690//1 691//1 692//1
f 693//1 687//1 689//1
f 690//1 692//1 694//1
f 694//1 693//1 689//1
f 689//1 690//1 694//1
f 690//231 689//231 677//231
f 677//231 678//231 690//231
f 691//267 690//267 678//267
f 678//267 675//267 691//267
f 692//290 691//290 675//290
f 675//290 683//290 692//290
f 694//291 692//291 683//291
f 683//291 685//291 694//291
f 693//292 694//292 685//292
f 685//292 686//292 693//292
f 687//269 693//269 686//269
f 686//269 684//269 687//269
f 688//293 687//293 684//293
f 684//293 676//293 688//293
f 689//266 688//266 676//266
f 676//266 677//266 689//266
f 698//1 697//1 696//1
f 696//1 695//1 698//1
l 699 700
