# Blender 5.2.0 LTS
# www.blender.org
mtllib col_right_1m.mtl
o Right_1m.001
v 0.055586 -0.403241 0.152532
v 0.070441 -0.534161 0.152532
v 0.570241 -0.534161 0.152532
v 0.542613 -0.291064 0.152532
v 0.474307 -0.088645 0.152532
v 0.376429 0.084203 0.152532
v 0.253007 0.231505 0.152532
v 0.105704 0.354928 0.152532
v -0.067143 0.452805 0.152532
v -0.269562 0.521111 0.152532
v -0.512659 0.548739 0.152532
v -0.512659 0.048939 0.152532
v -0.381739 0.034084 0.152532
v 0.018795 -0.294257 0.152532
v -0.272755 -0.002707 0.152532
v -0.033962 -0.201238 0.152532
v -0.179737 -0.055463 0.152532
v -0.100324 -0.121826 0.152532
v 0.376429 0.084203 0.052532
v 0.474307 -0.088645 0.052532
v 0.542613 -0.291064 0.052532
v 0.570241 -0.534161 0.052532
v 0.070441 -0.534161 0.052532
v -0.381739 0.034084 0.052532
v -0.512659 0.048939 0.052532
v -0.512659 0.548739 0.052532
v -0.269562 0.521111 0.052532
v -0.067143 0.452805 0.052532
v 0.105704 0.354928 0.052532
v 0.253007 0.231505 0.052532
v 0.055586 -0.403241 0.052532
v -0.272755 -0.002707 0.052532
v -0.179737 -0.055463 0.052532
v 0.018795 -0.294257 0.052532
v -0.100324 -0.121826 0.052532
v -0.033962 -0.201238 0.052532
v 0.595231 -0.534161 0.170032
v 0.588983 -0.534161 0.177532
v 0.570241 -0.534161 0.177532
v 0.570241 -0.534161 -0.022468
v 0.595231 -0.534161 -0.022468
v -0.512659 0.573729 0.170032
v -0.512659 0.573729 -0.022468
v -0.512659 0.548739 -0.022468
v -0.512659 0.548739 0.177532
v -0.512659 0.567482 0.177532
v 0.542613 -0.291064 0.177532
v 0.542613 -0.291064 -0.022468
v 0.474307 -0.088645 0.177532
v 0.474307 -0.088645 -0.022468
v 0.376429 0.084203 0.177532
v 0.376429 0.084203 -0.022468
v 0.253007 0.231505 0.177532
v 0.253007 0.231505 -0.022468
v 0.105704 0.354928 0.177532
v 0.105704 0.354928 -0.022468
v -0.067143 0.452805 0.177532
v -0.067143 0.452805 -0.022468
v -0.269562 0.521111 0.177532
v -0.269562 0.521111 -0.022468
v 0.497076 -0.078371 -0.022468
v 0.566909 -0.285510 -0.022468
v -0.264009 0.545407 -0.022468
v -0.056869 0.475574 -0.022468
v 0.119865 0.375336 -0.022468
v 0.270777 0.249276 -0.022468
v 0.396838 0.098364 -0.022468
v 0.566909 -0.285510 0.170032
v 0.497076 -0.078371 0.170032
v 0.396838 0.098364 0.170032
v 0.270777 0.249276 0.170032
v 0.119865 0.375336 0.170032
v -0.056869 0.475574 0.170032
v -0.264009 0.545407 0.170032
v 0.560800 -0.286899 0.177532
v 0.491383 -0.080870 0.177532
v 0.391701 0.094893 0.177532
v 0.266335 0.244833 0.177532
v 0.116395 0.370200 0.177532
v -0.059368 0.469882 0.177532
v -0.265397 0.539299 0.177532
v 0.045451 -0.534161 0.170032
v 0.045451 -0.534161 -0.022468
v 0.070441 -0.534161 -0.022468
v 0.070441 -0.534161 0.177532
v 0.051698 -0.534161 0.177532
v -0.512659 0.023949 0.170032
v -0.512659 0.030197 0.177532
v -0.512659 0.048939 0.177532
v -0.512659 0.048939 -0.022468
v -0.512659 0.023949 -0.022468
v 0.055586 -0.403241 0.177532
v 0.055586 -0.403241 -0.022468
v 0.018795 -0.294257 0.177532
v 0.018795 -0.294257 -0.022468
v -0.033962 -0.201238 0.177532
v -0.033962 -0.201238 -0.022468
v -0.100324 -0.121826 0.177532
v -0.100324 -0.121826 -0.022468
v -0.179737 -0.055463 0.177532
v -0.179737 -0.055463 -0.022468
v -0.272755 -0.002707 0.177532
v -0.272755 -0.002707 -0.022468
v -0.381739 0.034084 0.177532
v -0.381739 0.034084 -0.022468
v 0.037260 -0.407406 0.177532
v -0.385904 0.015758 0.177532
v 0.001718 -0.302031 0.177532
v -0.280530 -0.019783 0.177532
v -0.049372 -0.211929 0.177532
v -0.190427 -0.070874 0.177532
v -0.113652 -0.135154 0.177532
v 0.031151 -0.408933 0.170032
v -0.003974 -0.304531 0.170032
v -0.054509 -0.215538 0.170032
v -0.117956 -0.139458 0.170032
v -0.194037 -0.076011 0.170032
v -0.283029 -0.025475 0.170032
v -0.387432 0.009649 0.170032
v 0.031151 -0.408933 -0.022468
v -0.003974 -0.304531 -0.022468
v -0.054509 -0.215538 -0.022468
v -0.117956 -0.139458 -0.022468
v -0.194037 -0.076011 -0.022468
v -0.283029 -0.025475 -0.022468
v -0.387432 0.009649 -0.022468
v 0.485552 -0.478072 -0.597468
v 0.482359 -0.436561 -0.597468
v 0.565382 -0.430175 -0.597468
v 0.568575 -0.471686 -0.597468
v 0.482359 -0.436561 -0.587468
v 0.485552 -0.478072 -0.587468
v 0.568575 -0.471686 -0.587468
v 0.565382 -0.430175 -0.587468
v 0.547333 -0.456275 -0.587468
v 0.546639 -0.455303 -0.587468
v 0.546084 -0.454054 -0.587468
v 0.545806 -0.452527 -0.587468
v 0.545945 -0.451138 -0.587468
v 0.546223 -0.449750 -0.587468
v 0.546778 -0.448639 -0.587468
v 0.547472 -0.447668 -0.587468
v 0.548305 -0.446835 -0.587468
v 0.549277 -0.446279 -0.587468
v 0.550526 -0.445724 -0.587468
v 0.552054 -0.445446 -0.587468
v 0.553442 -0.445446 -0.587468
v 0.554830 -0.445863 -0.587468
v 0.555941 -0.446279 -0.587468
v 0.556774 -0.446974 -0.587468
v 0.557607 -0.447806 -0.587468
v 0.558301 -0.448917 -0.587468
v 0.558856 -0.450028 -0.587468
v 0.559134 -0.451555 -0.587468
v 0.559134 -0.453082 -0.587468
v 0.558718 -0.454332 -0.587468
v 0.558301 -0.455442 -0.587468
v 0.557607 -0.456414 -0.587468
v 0.556774 -0.457247 -0.587468
v 0.555663 -0.457941 -0.587468
v 0.554553 -0.458358 -0.587468
v 0.553025 -0.458774 -0.587468
v 0.551498 -0.458636 -0.587468
v 0.550249 -0.458358 -0.587468
v 0.549138 -0.457803 -0.587468
v 0.548166 -0.457108 -0.587468
v 0.546223 -0.449750 -0.457468
v 0.545945 -0.451138 -0.457468
v 0.545806 -0.452527 -0.457468
v 0.546084 -0.454054 -0.457468
v 0.546639 -0.455303 -0.457468
v 0.547333 -0.456275 -0.457468
v 0.548166 -0.457108 -0.457468
v 0.549138 -0.457803 -0.457468
v 0.550249 -0.458358 -0.457468
v 0.551498 -0.458636 -0.457468
v 0.553025 -0.458774 -0.457468
v 0.554553 -0.458358 -0.457468
v 0.555663 -0.457941 -0.457468
v 0.556774 -0.457247 -0.457468
v 0.557607 -0.456414 -0.457468
v 0.558301 -0.455442 -0.457468
v 0.558718 -0.454332 -0.457468
v 0.559134 -0.453082 -0.457468
v 0.559134 -0.451555 -0.457468
v 0.558856 -0.450028 -0.457468
v 0.558301 -0.448917 -0.457468
v 0.557607 -0.447806 -0.457468
v 0.556774 -0.446974 -0.457468
v 0.555941 -0.446279 -0.457468
v 0.554830 -0.445863 -0.457468
v 0.553442 -0.445446 -0.457468
v 0.552054 -0.445446 -0.457468
v 0.550526 -0.445724 -0.457468
v 0.549277 -0.446279 -0.457468
v 0.548305 -0.446835 -0.457468
v 0.547472 -0.447668 -0.457468
v 0.546778 -0.448639 -0.457468
v 0.536365 -0.432396 -0.447468
v 0.539559 -0.473907 -0.447468
v 0.568575 -0.471686 -0.447468
v 0.565382 -0.430175 -0.447468
v 0.539559 -0.473907 -0.457468
v 0.536365 -0.432396 -0.457468
v 0.565382 -0.430175 -0.457468
v 0.568575 -0.471686 -0.457468
v 0.536643 -0.435728 -0.447468
v 0.539281 -0.470575 -0.447468
v 0.562327 -0.433784 -0.447468
v 0.565104 -0.468631 -0.447468
v 0.539281 -0.470575 0.032532
v 0.539559 -0.473907 0.032532
v 0.568575 -0.471686 0.032532
v 0.565382 -0.430175 0.032532
v 0.536365 -0.432396 0.032532
v 0.536643 -0.435728 0.032532
v 0.565104 -0.468631 0.032532
v 0.562327 -0.433784 0.032532
v 0.150131 -0.462245 -0.597468
v 0.153324 -0.503756 -0.597468
v 0.070302 -0.510143 -0.597468
v 0.067109 -0.468631 -0.597468
v 0.153324 -0.503756 -0.587468
v 0.150131 -0.462245 -0.587468
v 0.067109 -0.468631 -0.587468
v 0.070302 -0.510143 -0.587468
v 0.088350 -0.484042 -0.587468
v 0.089044 -0.485014 -0.587468
v 0.089600 -0.486263 -0.587468
v 0.089877 -0.487652 -0.587468
v 0.089877 -0.489179 -0.587468
v 0.089461 -0.490567 -0.587468
v 0.089044 -0.491539 -0.587468
v 0.088350 -0.492511 -0.587468
v 0.087517 -0.493344 -0.587468
v 0.086407 -0.494038 -0.587468
v 0.085296 -0.494593 -0.587468
v 0.083769 -0.494871 -0.587468
v 0.082242 -0.494871 -0.587468
v 0.080992 -0.494454 -0.587468
v 0.079881 -0.494038 -0.587468
v 0.078910 -0.493344 -0.587468
v 0.078077 -0.492511 -0.587468
v 0.077382 -0.491400 -0.587468
v 0.076827 -0.490289 -0.587468
v 0.076549 -0.488762 -0.587468
v 0.076688 -0.487235 -0.587468
v 0.076966 -0.485986 -0.587468
v 0.077521 -0.484875 -0.587468
v 0.078215 -0.483903 -0.587468
v 0.079048 -0.483070 -0.587468
v 0.080020 -0.482376 -0.587468
v 0.081270 -0.481821 -0.587468
v 0.082797 -0.481543 -0.587468
v 0.084185 -0.481682 -0.587468
v 0.085574 -0.481959 -0.587468
v 0.086684 -0.482515 -0.587468
v 0.087656 -0.483209 -0.587468
v 0.089461 -0.490567 -0.457468
v 0.089877 -0.489179 -0.457468
v 0.089877 -0.487652 -0.457468
v 0.089600 -0.486263 -0.457468
v 0.089044 -0.485014 -0.457468
v 0.088350 -0.484042 -0.457468
v 0.087656 -0.483209 -0.457468
v 0.086684 -0.482515 -0.457468
v 0.085574 -0.481959 -0.457468
v 0.084185 -0.481682 -0.457468
v 0.082797 -0.481543 -0.457468
v 0.081270 -0.481821 -0.457468
v 0.080020 -0.482376 -0.457468
v 0.079048 -0.483070 -0.457468
v 0.078215 -0.483903 -0.457468
v 0.077521 -0.484875 -0.457468
v 0.076966 -0.485986 -0.457468
v 0.076688 -0.487235 -0.457468
v 0.076549 -0.488762 -0.457468
v 0.076827 -0.490289 -0.457468
v 0.077382 -0.491400 -0.457468
v 0.078077 -0.492511 -0.457468
v 0.078910 -0.493344 -0.457468
v 0.079881 -0.494038 -0.457468
v 0.080992 -0.494454 -0.457468
v 0.082242 -0.494871 -0.457468
v 0.083769 -0.494871 -0.457468
v 0.085296 -0.494593 -0.457468
v 0.086407 -0.494038 -0.457468
v 0.087517 -0.493344 -0.457468
v 0.088350 -0.492511 -0.457468
v 0.089044 -0.491539 -0.457468
v 0.099318 -0.507921 -0.447468
v 0.096125 -0.466410 -0.447468
v 0.067109 -0.468631 -0.447468
v 0.070302 -0.510143 -0.447468
v 0.096125 -0.466410 -0.457468
v 0.099318 -0.507921 -0.457468
v 0.070302 -0.510143 -0.457468
v 0.067109 -0.468631 -0.457468
v 0.099179 -0.504589 -0.447468
v 0.096403 -0.469603 -0.447468
v 0.073356 -0.506533 -0.447468
v 0.070718 -0.471686 -0.447468
v 0.096403 -0.469603 0.032532
v 0.096125 -0.466410 0.032532
v 0.067109 -0.468631 0.032532
v 0.070302 -0.510143 0.032532
v 0.099318 -0.507921 0.032532
v 0.099179 -0.504589 0.032532
v 0.070718 -0.471686 0.032532
v 0.073356 -0.506533 0.032532
v 0.571907 -0.513197 -0.022468
v 0.562188 -0.388664 -0.022468
v 0.566353 -0.388386 -0.022468
v 0.575933 -0.512919 -0.022468
v 0.208858 0.157923 -0.597468
v 0.179425 0.187356 -0.597468
v 0.238290 0.246221 -0.597468
v 0.267723 0.216789 -0.597468
v 0.179425 0.187356 -0.587468
v 0.208858 0.157923 -0.587468
v 0.267723 0.216789 -0.587468
v 0.238290 0.246221 -0.587468
v 0.241622 0.214706 -0.587468
v 0.240373 0.214984 -0.587468
v 0.239262 0.215539 -0.587468
v 0.238013 0.216511 -0.587468
v 0.237041 0.217761 -0.587468
v 0.236485 0.218871 -0.587468
v 0.236208 0.220121 -0.587468
v 0.236069 0.221231 -0.587468
v 0.236208 0.222481 -0.587468
v 0.236485 0.223592 -0.587468
v 0.237041 0.224841 -0.587468
v 0.238013 0.225952 -0.587468
v 0.239262 0.226924 -0.587468
v 0.240373 0.227479 -0.587468
v 0.241622 0.227757 -0.587468
v 0.242733 0.227895 -0.587468
v 0.243982 0.227757 -0.587468
v 0.245093 0.227479 -0.587468
v 0.246343 0.226924 -0.587468
v 0.247453 0.225952 -0.587468
v 0.248425 0.224841 -0.587468
v 0.248980 0.223592 -0.587468
v 0.249258 0.222481 -0.587468
v 0.249397 0.221231 -0.587468
v 0.249258 0.220121 -0.587468
v 0.248980 0.218871 -0.587468
v 0.248425 0.217761 -0.587468
v 0.247453 0.216511 -0.587468
v 0.246343 0.215539 -0.587468
v 0.245093 0.214984 -0.587468
v 0.243982 0.214706 -0.587468
v 0.242733 0.214567 -0.587468
v 0.236485 0.218871 -0.457468
v 0.237041 0.217761 -0.457468
v 0.238013 0.216511 -0.457468
v 0.239262 0.215539 -0.457468
v 0.240373 0.214984 -0.457468
v 0.241622 0.214706 -0.457468
v 0.242733 0.214567 -0.457468
v 0.243982 0.214706 -0.457468
v 0.245093 0.214984 -0.457468
v 0.246343 0.215539 -0.457468
v 0.247453 0.216511 -0.457468
v 0.248425 0.217761 -0.457468
v 0.248980 0.218871 -0.457468
v 0.249258 0.220121 -0.457468
v 0.249397 0.221231 -0.457468
v 0.249258 0.222481 -0.457468
v 0.248980 0.223592 -0.457468
v 0.248425 0.224841 -0.457468
v 0.247453 0.225952 -0.457468
v 0.246343 0.226924 -0.457468
v 0.245093 0.227479 -0.457468
v 0.243982 0.227757 -0.457468
v 0.242733 0.227895 -0.457468
v 0.241622 0.227757 -0.457468
v 0.240373 0.227479 -0.457468
v 0.239262 0.226924 -0.457468
v 0.238013 0.225952 -0.457468
v 0.237041 0.224841 -0.457468
v 0.236485 0.223592 -0.457468
v 0.236208 0.222481 -0.457468
v 0.236069 0.221231 -0.457468
v 0.236208 0.220121 -0.457468
v 0.217743 0.225674 -0.447468
v 0.247176 0.196241 -0.447468
v 0.267723 0.216789 -0.447468
v 0.238290 0.246221 -0.447468
v 0.247176 0.196241 -0.457468
v 0.217743 0.225674 -0.457468
v 0.238290 0.246221 -0.457468
v 0.267723 0.216789 -0.457468
v 0.220103 0.223314 -0.447468
v 0.244815 0.198602 -0.447468
v 0.238290 0.241640 -0.447468
v 0.263141 0.216789 -0.447468
v 0.244815 0.198602 0.032532
v 0.247176 0.196241 0.032532
v 0.267723 0.216789 0.032532
v 0.238290 0.246221 0.032532
v 0.217743 0.225674 0.032532
v 0.220103 0.223314 0.032532
v 0.263141 0.216789 0.032532
v 0.238290 0.241640 0.032532
v -0.056175 -0.048244 -0.597468
v -0.026743 -0.077677 -0.597468
v -0.085608 -0.136542 -0.597468
v -0.115041 -0.107109 -0.597468
v -0.026743 -0.077677 -0.587468
v -0.056175 -0.048244 -0.587468
v -0.115041 -0.107109 -0.587468
v -0.085608 -0.136542 -0.587468
v -0.088801 -0.105027 -0.587468
v -0.087690 -0.105305 -0.587468
v -0.086441 -0.105860 -0.587468
v -0.085330 -0.106832 -0.587468
v -0.084358 -0.107942 -0.587468
v -0.083803 -0.109192 -0.587468
v -0.083525 -0.110303 -0.587468
v -0.083387 -0.111552 -0.587468
v -0.083525 -0.112663 -0.587468
v -0.083803 -0.113912 -0.587468
v -0.084358 -0.115023 -0.587468
v -0.085330 -0.116272 -0.587468
v -0.086441 -0.117244 -0.587468
v -0.087690 -0.117800 -0.587468
v -0.088801 -0.118077 -0.587468
v -0.090051 -0.118216 -0.587468
v -0.091161 -0.118077 -0.587468
v -0.092411 -0.117800 -0.587468
v -0.093521 -0.117244 -0.587468
v -0.094771 -0.116272 -0.587468
v -0.095743 -0.115023 -0.587468
v -0.096298 -0.113912 -0.587468
v -0.096576 -0.112663 -0.587468
v -0.096715 -0.111552 -0.587468
v -0.096576 -0.110303 -0.587468
v -0.096298 -0.109192 -0.587468
v -0.095743 -0.107942 -0.587468
v -0.094771 -0.106832 -0.587468
v -0.093521 -0.105860 -0.587468
v -0.092411 -0.105305 -0.587468
v -0.091161 -0.105027 -0.587468
v -0.090051 -0.104888 -0.587468
v -0.083803 -0.109192 -0.457468
v -0.084358 -0.107942 -0.457468
v -0.085330 -0.106832 -0.457468
v -0.086441 -0.105860 -0.457468
v -0.087690 -0.105305 -0.457468
v -0.088801 -0.105027 -0.457468
v -0.090051 -0.104888 -0.457468
v -0.091161 -0.105027 -0.457468
v -0.092411 -0.105305 -0.457468
v -0.093521 -0.105860 -0.457468
v -0.094771 -0.106832 -0.457468
v -0.095743 -0.107942 -0.457468
v -0.096298 -0.109192 -0.457468
v -0.096576 -0.110303 -0.457468
v -0.096715 -0.111552 -0.457468
v -0.096576 -0.112663 -0.457468
v -0.096298 -0.113912 -0.457468
v -0.095743 -0.115023 -0.457468
v -0.094771 -0.116272 -0.457468
v -0.093521 -0.117244 -0.457468
v -0.092411 -0.117800 -0.457468
v -0.091161 -0.118077 -0.457468
v -0.090051 -0.118216 -0.457468
v -0.088801 -0.118077 -0.457468
v -0.087690 -0.117800 -0.457468
v -0.086441 -0.117244 -0.457468
v -0.085330 -0.116272 -0.457468
v -0.084358 -0.115023 -0.457468
v -0.083803 -0.113912 -0.457468
v -0.083525 -0.112663 -0.457468
v -0.083387 -0.111552 -0.457468
v -0.083525 -0.110303 -0.457468
v -0.065061 -0.115995 -0.447468
v -0.094493 -0.086562 -0.447468
v -0.115041 -0.107109 -0.447468
v -0.085608 -0.136542 -0.447468
v -0.094493 -0.086562 -0.457468
v -0.065061 -0.115995 -0.457468
v -0.085608 -0.136542 -0.457468
v -0.115041 -0.107109 -0.457468
v -0.067421 -0.113635 -0.447468
v -0.092133 -0.088922 -0.447468
v -0.085608 -0.131822 -0.447468
v -0.110320 -0.107109 -0.447468
v -0.092133 -0.088922 0.032532
v -0.094493 -0.086562 0.032532
v -0.115041 -0.107109 0.032532
v -0.085608 -0.136542 0.032532
v -0.065061 -0.115995 0.032532
v -0.067421 -0.113635 0.032532
v -0.110320 -0.107109 0.032532
v -0.085608 -0.131822 0.032532
v 0.297294 0.187356 -0.022468
v 0.208858 0.275793 -0.022468
v 0.211773 0.278708 -0.022468
v 0.300210 0.190272 -0.022468
v -0.144473 -0.077677 -0.022468
v -0.056175 -0.165975 -0.022468
v -0.059091 -0.169029 -0.022468
v -0.147528 -0.080592 -0.022468
v -0.415059 0.460858 -0.597468
v -0.456571 0.464051 -0.597468
v -0.450184 0.547073 -0.597468
v -0.408673 0.543880 -0.597468
v -0.456571 0.464051 -0.587468
v -0.415059 0.460858 -0.587468
v -0.408673 0.543880 -0.587468
v -0.450184 0.547073 -0.587468
v -0.427138 0.525276 -0.587468
v -0.428249 0.524721 -0.587468
v -0.429637 0.524443 -0.587468
v -0.431025 0.524305 -0.587468
v -0.432552 0.524582 -0.587468
v -0.433802 0.525138 -0.587468
v -0.434774 0.525832 -0.587468
v -0.435607 0.526665 -0.587468
v -0.436301 0.527637 -0.587468
v -0.436856 0.528747 -0.587468
v -0.437134 0.529997 -0.587468
v -0.437273 0.531524 -0.587468
v -0.436856 0.533051 -0.587468
v -0.436440 0.534162 -0.587468
v -0.435746 0.535272 -0.587468
v -0.434913 0.536105 -0.587468
v -0.433941 0.536799 -0.587468
v -0.432830 0.537216 -0.587468
v -0.431581 0.537633 -0.587468
v -0.430053 0.537633 -0.587468
v -0.428526 0.537355 -0.587468
v -0.427416 0.536799 -0.587468
v -0.426305 0.536105 -0.587468
v -0.425472 0.535272 -0.587468
v -0.424778 0.534439 -0.587468
v -0.424361 0.533329 -0.587468
v -0.423945 0.531940 -0.587468
v -0.423945 0.530552 -0.587468
v -0.424222 0.529025 -0.587468
v -0.424778 0.527775 -0.587468
v -0.425333 0.526804 -0.587468
v -0.426166 0.525971 -0.587468
v -0.433802 0.525138 -0.457468
v -0.432552 0.524582 -0.457468
v -0.431025 0.524305 -0.457468
v -0.429637 0.524443 -0.457468
v -0.428249 0.524721 -0.457468
v -0.427138 0.525276 -0.457468
v -0.426166 0.525971 -0.457468
v -0.425333 0.526804 -0.457468
v -0.424778 0.527775 -0.457468
v -0.424222 0.529025 -0.457468
v -0.423945 0.530552 -0.457468
v -0.423945 0.531940 -0.457468
v -0.424361 0.533329 -0.457468
v -0.424778 0.534439 -0.457468
v -0.425472 0.535272 -0.457468
v -0.426305 0.536105 -0.457468
v -0.427416 0.536799 -0.457468
v -0.428526 0.537355 -0.457468
v -0.430053 0.537633 -0.457468
v -0.431581 0.537633 -0.457468
v -0.432830 0.537216 -0.457468
v -0.433941 0.536799 -0.457468
v -0.434913 0.536105 -0.457468
v -0.435746 0.535272 -0.457468
v -0.436440 0.534162 -0.457468
v -0.436856 0.533051 -0.457468
v -0.437273 0.531524 -0.457468
v -0.437134 0.529997 -0.457468
v -0.436856 0.528747 -0.457468
v -0.436301 0.527637 -0.457468
v -0.435607 0.526665 -0.457468
v -0.434774 0.525832 -0.457468
v -0.452406 0.518057 -0.447468
v -0.410894 0.514864 -0.447468
v -0.408673 0.543880 -0.447468
v -0.450184 0.547073 -0.447468
v -0.410894 0.514864 -0.457468
v -0.452406 0.518057 -0.457468
v -0.450184 0.547073 -0.457468
v -0.408673 0.543880 -0.457468
v -0.449074 0.517779 -0.447468
v -0.414226 0.515142 -0.447468
v -0.447130 0.543602 -0.447468
v -0.412283 0.540826 -0.447468
v -0.414226 0.515142 0.032532
v -0.410894 0.514864 0.032532
v -0.408673 0.543880 0.032532
v -0.450184 0.547073 0.032532
v -0.452406 0.518057 0.032532
v -0.449074 0.517779 0.032532
v -0.412283 0.540826 0.032532
v -0.447130 0.543602 0.032532
v -0.482255 0.131823 -0.597468
v -0.440744 0.128630 -0.597468
v -0.447130 0.045607 -0.597468
v -0.488641 0.048800 -0.597468
v -0.440744 0.128630 -0.587468
v -0.482255 0.131823 -0.587468
v -0.488641 0.048800 -0.587468
v -0.447130 0.045607 -0.587468
v -0.470037 0.067543 -0.587468
v -0.469066 0.067959 -0.587468
v -0.467677 0.068376 -0.587468
v -0.466150 0.068376 -0.587468
v -0.464762 0.068098 -0.587468
v -0.463512 0.067543 -0.587468
v -0.462540 0.066849 -0.587468
v -0.461707 0.066155 -0.587468
v -0.461013 0.065183 -0.587468
v -0.460458 0.064072 -0.587468
v -0.460180 0.062684 -0.587468
v -0.460041 0.061295 -0.587468
v -0.460319 0.059768 -0.587468
v -0.460874 0.058519 -0.587468
v -0.461569 0.057547 -0.587468
v -0.462402 0.056714 -0.587468
v -0.463373 0.056020 -0.587468
v -0.464484 0.055464 -0.587468
v -0.465734 0.055187 -0.587468
v -0.467261 0.055048 -0.587468
v -0.468788 0.055326 -0.587468
v -0.469899 0.055881 -0.587468
v -0.471009 0.056575 -0.587468
v -0.471842 0.057408 -0.587468
v -0.472536 0.058380 -0.587468
v -0.472953 0.059491 -0.587468
v -0.473369 0.060740 -0.587468
v -0.473369 0.062267 -0.587468
v -0.473092 0.063794 -0.587468
v -0.472536 0.064905 -0.587468
v -0.471842 0.066016 -0.587468
v -0.471009 0.066849 -0.587468
v -0.463512 0.067543 -0.457468
v -0.464762 0.068098 -0.457468
v -0.466150 0.068376 -0.457468
v -0.467677 0.068376 -0.457468
v -0.469066 0.067959 -0.457468
v -0.470037 0.067543 -0.457468
v -0.471009 0.066849 -0.457468
v -0.471842 0.066016 -0.457468
v -0.472536 0.064905 -0.457468
v -0.473092 0.063794 -0.457468
v -0.473369 0.062267 -0.457468
v -0.473369 0.060740 -0.457468
v -0.472953 0.059491 -0.457468
v -0.472536 0.058380 -0.457468
v -0.471842 0.057408 -0.457468
v -0.471009 0.056575 -0.457468
v -0.469899 0.055881 -0.457468
v -0.468788 0.055326 -0.457468
v -0.467261 0.055048 -0.457468
v -0.465734 0.055187 -0.457468
v -0.464484 0.055464 -0.457468
v -0.463373 0.056020 -0.457468
v -0.462402 0.056714 -0.457468
v -0.461569 0.057547 -0.457468
v -0.460874 0.058519 -0.457468
v -0.460319 0.059768 -0.457468
v -0.460041 0.061295 -0.457468
v -0.460180 0.062684 -0.457468
v -0.460458 0.064072 -0.457468
v -0.461013 0.065183 -0.457468
v -0.461707 0.066155 -0.457468
v -0.462540 0.066849 -0.457468
v -0.444909 0.074623 -0.447468
v -0.486420 0.077817 -0.447468
v -0.488641 0.048800 -0.447468
v -0.447130 0.045607 -0.447468
v -0.486420 0.077817 -0.457468
v -0.444909 0.074623 -0.457468
v -0.447130 0.045607 -0.457468
v -0.488641 0.048800 -0.457468
v -0.448102 0.074901 -0.447468
v -0.483088 0.077678 -0.447468
v -0.450184 0.049217 -0.447468
v -0.485031 0.051855 -0.447468
v -0.483088 0.077678 0.032532
v -0.486420 0.077817 0.032532
v -0.488641 0.048800 0.032532
v -0.447130 0.045607 0.032532
v -0.444909 0.074623 0.032532
v -0.448102 0.074901 0.032532
v -0.485031 0.051855 0.032532
v -0.450184 0.049217 0.032532
v -0.367162 0.540687 -0.022468
v -0.491695 0.550405 -0.022468
v -0.491418 0.554431 -0.022468
v -0.366884 0.544852 -0.022468
v -0.405619 0.042414 -0.022468
v -0.405896 0.038249 -0.022468
vn -0.0000 -0.0000 1.0000
vn -0.0000 -0.0000 -1.0000
vn 0.9936 0.1129 -0.0000
vn 0.9475 0.3197 -0.0000
vn 0.8702 0.4927 -0.0000
vn 0.7665 0.6422 -0.0000
vn 0.6422 0.7665 -0.0000
vn 0.4927 0.8702 -0.0000
vn 0.3197 0.9475 -0.0000
vn 0.1129 0.9936 -0.0000
vn -1.0000 -0.0000 -0.0000
vn -0.9936 -0.1127 -0.0000
vn -0.9475 -0.3198 -0.0000
vn -0.8698 -0.4933 -0.0000
vn -0.7673 -0.6412 -0.0000
vn -0.6412 -0.7673 -0.0000
vn -0.4933 -0.8698 -0.0000
vn -0.3198 -0.9475 -0.0000
vn -0.1127 -0.9936 -0.0000
vn -0.0000 -1.0000 -0.0000
vn -0.9936 -0.1129 -0.0000
vn -0.9475 -0.3197 -0.0000
vn -0.8702 -0.4927 -0.0000
vn -0.7665 -0.6422 -0.0000
vn -0.6422 -0.7665 -0.0000
vn -0.4927 -0.8702 -0.0000
vn -0.3197 -0.9475 -0.0000
vn -0.1129 -0.9936 -0.0000
vn 0.9936 0.1132 -0.0000
vn 0.9476 0.3195 -0.0000
vn 0.8698 0.4933 -0.0000
vn 0.7675 0.6411 -0.0000
vn 0.6411 0.7675 -0.0000
vn 0.4933 0.8698 -0.0000
vn 0.3195 0.9476 -0.0000
vn 0.1132 0.9936 -0.0000
vn 0.7644 0.0871 0.6388
vn 0.7654 0.0872 0.6376
vn 0.7308 0.2462 0.6367
vn 0.7288 0.2457 0.6391
vn 0.6713 0.3807 0.6360
vn 0.6711 0.3806 0.6362
vn 0.5891 0.4925 0.6407
vn 0.5928 0.4952 0.6352
vn 0.4954 0.5926 0.6351
vn 0.4922 0.5893 0.6407
vn 0.3806 0.6711 0.6362
vn 0.3807 0.6713 0.6360
vn 0.2456 0.7289 0.6391
vn 0.2464 0.7307 0.6367
vn 0.0872 0.7654 0.6376
vn 0.0871 0.7645 0.6388
vn 0.9936 0.1127 -0.0000
vn 0.9475 0.3198 -0.0000
vn 0.7673 0.6412 -0.0000
vn 0.6412 0.7673 -0.0000
vn 0.3198 0.9475 -0.0000
vn 0.1127 0.9936 -0.0000
vn -0.7637 -0.0870 0.6397
vn -0.7654 -0.0874 0.6376
vn -0.7307 -0.2465 0.6367
vn -0.7268 -0.2445 0.6418
vn -0.6683 -0.3789 0.6401
vn -0.6709 -0.3810 0.6362
vn -0.5963 -0.4992 0.6287
vn -0.5897 -0.4918 0.6406
vn -0.4930 -0.5888 0.6405
vn -0.4981 -0.5973 0.6286
vn -0.3806 -0.6712 0.6362
vn -0.3794 -0.6681 0.6401
vn -0.2451 -0.7267 0.6418
vn -0.2459 -0.7309 0.6367
vn -0.0872 -0.7654 0.6376
vn -0.0872 -0.7636 0.6397
vn -0.9935 -0.1135 -0.0000
vn -0.9478 -0.3189 -0.0000
vn -0.8696 -0.4938 -0.0000
vn -0.7680 -0.6405 -0.0000
vn -0.6405 -0.7680 -0.0000
vn -0.4938 -0.8696 -0.0000
vn -0.3189 -0.9478 -0.0000
vn -0.1135 -0.9935 -0.0000
vn 0.9971 0.0767 -0.0000
vn -0.0767 0.9971 -0.0000
vn -0.9971 -0.0767 -0.0000
vn 0.0767 -0.9971 -0.0000
vn -0.0004 -0.0000 -1.0000
vn -0.0005 -0.0000 -1.0000
vn -0.0008 -0.0000 -1.0000
vn 0.0003 -0.0000 -1.0000
vn -0.0002 -0.0000 -1.0000
vn 0.0001 -0.0000 -1.0000
vn 0.0002 -0.0000 1.0000
vn 0.0003 -0.0000 1.0000
vn -0.0002 -0.0000 1.0000
vn -0.0003 -0.0000 1.0000
vn 0.0001 -0.0000 1.0000
vn -0.0005 -0.0000 1.0000
vn -0.0001 -0.0000 1.0000
vn -0.9839 -0.1789 -0.0000
vn -0.9138 -0.4061 -0.0000
vn -0.8137 -0.5813 -0.0000
vn -0.8137 -0.5812 -0.0000
vn -0.7072 -0.7070 -0.0000
vn -0.7071 -0.7071 -0.0000
vn -0.5812 -0.8138 -0.0000
vn -0.5813 -0.8137 -0.0000
vn -0.4471 -0.8945 -0.0000
vn -0.4472 -0.8944 -0.0000
vn -0.2170 -0.9762 -0.0000
vn -0.0905 -0.9959 -0.0000
vn 0.2631 -0.9648 -0.0000
vn 0.3511 -0.9363 -0.0000
vn 0.5300 -0.8480 -0.0000
vn 0.7071 -0.7071 -0.0000
vn 0.8137 -0.5813 -0.0000
vn 0.8137 -0.5812 -0.0000
vn 0.9363 -0.3511 -0.0000
vn 0.9363 -0.3512 -0.0000
vn 0.9487 -0.3162 -0.0000
vn 1.0000 -0.0000 -0.0000
vn 0.9839 0.1789 -0.0000
vn 0.8944 0.4472 -0.0000
vn 0.8480 0.5300 -0.0000
vn 0.7071 0.7071 -0.0000
vn 0.6402 0.7682 -0.0000
vn 0.3512 0.9363 -0.0000
vn 0.3511 0.9363 -0.0000
vn 0.2873 0.9578 -0.0000
vn 0.2874 0.9578 -0.0000
vn -0.0000 1.0000 -0.0000
vn -0.1789 0.9839 -0.0000
vn -0.4061 0.9138 -0.0000
vn -0.4961 0.8682 -0.0000
vn -0.4962 0.8682 -0.0000
vn -0.7071 0.7071 -0.0000
vn -0.7072 0.7071 -0.0000
vn -0.8137 0.5813 -0.0000
vn -0.8137 0.5812 -0.0000
vn -0.8945 0.4472 -0.0000
vn -0.8944 0.4472 -0.0000
vn -0.9806 0.1961 -0.0000
vn -0.9806 0.1962 -0.0000
vn -0.9950 0.0994 -0.0000
vn -0.9950 0.0996 -0.0000
vn -0.0763 0.9971 -0.0000
vn 0.0763 -0.9971 -0.0000
vn -0.9965 -0.0830 -0.0000
vn 0.0755 -0.9971 -0.0000
vn -0.9968 -0.0794 -0.0000
vn -0.0751 0.9972 -0.0000
vn -0.0003 -0.0000 -1.0000
vn 0.0007 -0.0000 -1.0000
vn 0.0004 -0.0000 -1.0000
vn 0.0008 -0.0000 -1.0000
vn 0.0002 -0.0000 -1.0000
vn -0.0001 -0.0000 -1.0000
vn 0.0006 -0.0000 1.0000
vn 0.0005 -0.0000 1.0000
vn 0.9806 0.1961 -0.0000
vn 0.9138 0.4061 -0.0000
vn 0.8137 0.5812 -0.0000
vn 0.7682 0.6402 -0.0000
vn 0.5813 0.8137 -0.0000
vn 0.4472 0.8944 -0.0000
vn 0.1961 0.9806 -0.0000
vn 0.0995 0.9950 -0.0000
vn -0.5813 0.8137 -0.0000
vn -0.9762 0.2169 -0.0000
vn -0.9762 0.2170 -0.0000
vn -0.9959 0.0905 -0.0000
vn -0.8944 -0.4472 -0.0000
vn -0.8480 -0.5300 -0.0000
vn -0.5812 -0.8137 -0.0000
vn -0.3511 -0.9363 -0.0000
vn -0.3163 -0.9487 -0.0000
vn -0.3162 -0.9487 -0.0000
vn 0.1789 -0.9839 -0.0000
vn 0.4472 -0.8944 -0.0000
vn 0.9191 -0.3939 -0.0000
vn 0.9578 -0.2874 -0.0000
vn 0.9991 0.0416 -0.0000
vn 0.9971 0.0755 -0.0000
vn 0.0808 -0.9967 -0.0000
vn 0.9962 0.0866 -0.0000
vn -0.6139 -0.7894 -0.0000
vn -0.6139 -0.7893 -0.0000
vn -0.2169 -0.9762 -0.0000
vn -0.1240 -0.9923 -0.0000
vn 0.1104 -0.9939 -0.0000
vn 0.2425 -0.9701 -0.0000
vn 0.2426 -0.9701 -0.0000
vn 0.4061 -0.9138 -0.0000
vn 0.6585 -0.7526 -0.0000
vn 0.7894 -0.6139 -0.0000
vn 0.7893 -0.6139 -0.0000
vn 0.8944 -0.4472 -0.0000
vn 0.9762 -0.2169 -0.0000
vn 0.9923 -0.1240 -0.0000
vn 0.9923 -0.1241 -0.0000
vn 0.9939 0.1105 -0.0000
vn 0.9939 0.1104 -0.0000
vn 0.9702 0.2425 -0.0000
vn 0.7526 0.6585 -0.0000
vn 0.6585 0.7526 -0.0000
vn 0.4061 0.9138 -0.0000
vn 0.2425 0.9701 -0.0000
vn 0.1104 0.9939 -0.0000
vn -0.1240 0.9923 -0.0000
vn -0.2169 0.9762 -0.0000
vn -0.4472 0.8944 -0.0000
vn -0.6139 0.7893 -0.0000
vn -0.6139 0.7894 -0.0000
vn -0.7526 0.6585 -0.0000
vn -0.9138 0.4061 -0.0000
vn -0.9701 0.2425 -0.0000
vn -0.9939 0.1104 -0.0000
vn -0.9923 -0.1240 -0.0000
vn -0.9762 -0.2169 -0.0000
vn -0.7893 -0.6139 -0.0000
vn -0.7893 -0.6140 -0.0000
vn 0.7098 -0.7044 -0.0000
vn -0.7044 0.7098 -0.0000
vn -0.9138 0.4062 -0.0000
vn -0.9923 -0.1241 -0.0000
vn -0.7894 -0.6139 -0.0000
vn 0.9701 0.2425 -0.0000
vn 0.9138 0.4062 -0.0000
vn 0.0767 0.9971 -0.0000
vn -0.9971 0.0767 -0.0000
vn -0.0767 -0.9971 -0.0000
vn 0.9971 -0.0767 -0.0000
vn 0.0010 -0.0000 -1.0000
vn 0.0005 -0.0000 -1.0000
vn -0.0007 -0.0000 1.0000
vn 0.0995 -0.9950 -0.0000
vn 0.1961 -0.9806 -0.0000
vn 0.4473 -0.8944 -0.0000
vn 0.5813 -0.8137 -0.0000
vn 0.5812 -0.8137 -0.0000
vn 0.8682 -0.4961 -0.0000
vn 0.8683 -0.4961 -0.0000
vn 0.9138 -0.4062 -0.0000
vn 0.9839 -0.1789 -0.0000
vn 0.9578 0.2874 -0.0000
vn 0.9578 0.2873 -0.0000
vn 0.9363 0.3512 -0.0000
vn 0.5299 0.8480 -0.0000
vn 0.5300 0.8480 -0.0000
vn 0.1789 0.9839 -0.0000
vn -0.3162 0.9487 -0.0000
vn -0.3511 0.9363 -0.0000
vn -0.3512 0.9363 -0.0000
vn -0.5812 0.8138 -0.0000
vn -0.5812 0.8137 -0.0000
vn -0.8480 0.5300 -0.0000
vn -0.9363 0.3511 -0.0000
vn -0.9648 0.2631 -0.0000
vn -0.9959 -0.0905 -0.0000
vn -0.9762 -0.2170 -0.0000
vn -0.4062 -0.9138 -0.0000
vn -0.1789 -0.9839 -0.0000
vn -0.9971 0.0763 -0.0000
vn 0.9971 -0.0763 -0.0000
vn -0.0831 -0.9965 -0.0000
vn 0.9972 -0.0751 -0.0000
vn -0.0794 -0.9968 -0.0000
vn -0.9971 0.0755 -0.0000
vn -0.2873 0.9578 -0.0000
vn -0.3939 0.9191 -0.0000
vn -0.9839 0.1789 -0.0000
vn -0.9487 -0.3162 -0.0000
vn -0.9487 -0.3163 -0.0000
vn -0.9363 -0.3511 -0.0000
vn -0.9363 -0.3512 -0.0000
vn -0.5300 -0.8480 -0.0000
vn 0.0905 -0.9959 -0.0000
vn 0.2169 -0.9762 -0.0000
vn 0.5812 -0.8138 -0.0000
vn 0.8138 -0.5812 -0.0000
vn 0.9138 -0.4061 -0.0000
vn 0.9950 0.0995 -0.0000
vn 0.9806 0.1962 -0.0000
vn 0.8137 0.5813 -0.0000
vn 0.5812 0.8137 -0.0000
vn 0.0866 0.9962 -0.0000
vn -0.9967 0.0808 -0.0000
vn 0.0755 0.9971 -0.0000
vn 0.0416 0.9991 -0.0000
s 0
usemtl Metal
f 22//3 21//3 4//3
f 4//3 3//3 22//3
f 21//4 20//4 5//4
f 5//4 4//4 21//4
f 20//5 19//5 6//5
f 6//5 5//5 20//5
f 7//6 6//6 19//6
f 29//8 28//8 9//8
f 9//8 8//8 29//8
f 28//9 27//9 10//9
f 10//9 9//9 28//9
f 31//12 23//12 2//12
f 12//19 25//19 24//19
f 37//20 38//20 39//20
f 39//20 40//20 41//20
f 41//20 37//20 39//20
f 42//11 43//11 44//11
f 44//11 45//11 46//11
f 46//11 42//11 44//11
f 39//21 47//21 48//21
f 48//21 40//21 39//21
f 47//22 49//22 50//22
f 50//22 48//22 47//22
f 49//23 51//23 52//23
f 52//23 50//23 49//23
f 51//24 53//24 54//24
f 54//24 52//24 51//24
f 53//25 55//25 56//25
f 56//25 54//25 53//25
f 55//26 57//26 58//26
f 58//26 56//26 55//26
f 57//27 59//27 60//27
f 60//27 58//27 57//27
f 60//28 59//28 45//28
f 45//28 44//28 60//28
f 61//2 62//2 41//2
f 41//2 40//2 48//2
f 60//2 44//2 43//2
f 43//2 63//2 64//2
f 64//2 65//2 66//2
f 66//2 67//2 61//2
f 61//2 41//2 48//2
f 60//2 43//2 64//2
f 61//2 48//2 50//2
f 58//2 60//2 64//2
f 61//2 50//2 52//2
f 56//2 58//2 64//2
f 66//2 61//2 52//2
f 56//2 64//2 66//2
f 66//2 52//2 54//2
f 54//2 56//2 66//2
f 41//29 62//29 68//29
f 68//29 37//29 41//29
f 62//30 61//30 69//30
f 69//30 68//30 62//30
f 61//31 67//31 70//31
f 70//31 69//31 61//31
f 67//32 66//32 71//32
f 71//32 70//32 67//32
f 66//33 65//33 72//33
f 72//33 71//33 66//33
f 65//34 64//34 73//34
f 73//34 72//34 65//34
f 64//35 63//35 74//35
f 74//35 73//35 64//35
f 74//36 63//36 43//36
f 43//36 42//36 74//36
f 75//37 38//37 68//37
f 38//38 37//38 68//38
f 76//39 75//39 69//39
f 68//40 69//40 75//40
f 77//41 76//41 70//41
f 69//42 70//42 76//42
f 78//43 77//43 71//43
f 70//44 71//44 77//44
f 79//45 78//45 72//45
f 71//46 72//46 78//46
f 80//47 79//47 73//47
f 72//48 73//48 79//48
f 81//49 80//49 74//49
f 73//50 74//50 80//50
f 42//51 46//51 81//51
f 74//52 42//52 81//52
f 47//1 39//1 38//1
f 76//1 77//1 78//1
f 78//1 79//1 80//1
f 81//1 46//1 45//1
f 47//1 38//1 75//1
f 81//1 45//1 59//1
f 49//1 47//1 75//1
f 80//1 81//1 59//1
f 49//1 75//1 76//1
f 80//1 59//1 57//1
f 51//1 49//1 76//1
f 80//1 57//1 55//1
f 51//1 76//1 78//1
f 78//1 80//1 55//1
f 53//1 51//1 78//1
f 78//1 55//1 53//1
f 82//20 83//20 84//20
f 84//20 85//20 86//20
f 86//20 82//20 84//20
f 87//11 88//11 89//11
f 89//11 90//11 91//11
f 91//11 87//11 89//11
f 92//53 85//53 84//53
f 84//53 93//53 92//53
f 94//54 92//54 93//54
f 93//54 95//54 94//54
f 96//31 94//31 95//31
f 95//31 97//31 96//31
f 98//55 96//55 97//55
f 97//55 99//55 98//55
f 100//56 98//56 99//56
f 99//56 101//56 100//56
f 102//34 100//34 101//34
f 101//34 103//34 102//34
f 104//57 102//57 103//57
f 103//57 105//57 104//57
f 104//58 105//58 90//58
f 90//58 89//58 104//58
f 106//1 86//1 85//1
f 85//1 92//1 94//1
f 94//1 96//1 98//1
f 98//1 100//1 102//1
f 102//1 104//1 89//1
f 89//1 88//1 107//1
f 106//1 85//1 94//1
f 102//1 89//1 107//1
f 108//1 106//1 94//1
f 102//1 107//1 109//1
f 110//1 108//1 94//1
f 98//1 102//1 109//1
f 110//1 94//1 98//1
f 98//1 109//1 111//1
f 112//1 110//1 98//1
f 98//1 111//1 112//1
f 86//59 106//59 113//59
f 82//60 86//60 113//60
f 106//61 108//61 114//61
f 114//62 113//62 106//62
f 108//63 110//63 115//63
f 115//64 114//64 108//64
f 110//65 112//65 116//65
f 116//66 115//66 110//66
f 112//67 111//67 117//67
f 117//68 116//68 112//68
f 111//69 109//69 118//69
f 118//70 117//70 111//70
f 109//71 107//71 119//71
f 119//72 118//72 109//72
f 88//73 87//73 107//73
f 87//74 119//74 107//74
f 120//75 83//75 82//75
f 82//75 113//75 120//75
f 121//76 120//76 113//76
f 113//76 114//76 121//76
f 122//77 121//77 114//77
f 114//77 115//77 122//77
f 123//78 122//78 115//78
f 115//78 116//78 123//78
f 124//79 123//79 116//79
f 116//79 117//79 124//79
f 125//80 124//80 117//80
f 117//80 118//80 125//80
f 126//81 125//81 118//81
f 118//81 119//81 126//81
f 126//82 119//82 87//82
f 87//82 91//82 126//82
f 95//2 93//2 84//2
f 84//2 83//2 120//2
f 126//2 91//2 90//2
f 90//2 105//2 103//2
f 103//2 101//2 99//2
f 99//2 97//2 95//2
f 95//2 84//2 120//2
f 126//2 90//2 103//2
f 95//2 120//2 121//2
f 125//2 126//2 103//2
f 99//2 95//2 121//2
f 124//2 125//2 103//2
f 99//2 121//2 122//2
f 123//2 124//2 103//2
f 99//2 122//2 123//2
f 123//2 103//2 99//2
f 127//2 128//2 129//2
f 129//2 130//2 127//2
f 131//1 132//1 133//1
f 133//1 134//1 131//1
f 134//83 133//83 130//83
f 130//83 129//83 134//83
f 131//84 134//84 129//84
f 129//84 128//84 131//84
f 132//85 131//85 128//85
f 128//85 127//85 132//85
f 133//86 132//86 127//86
f 127//86 130//86 133//86
f 135//87 136//87 137//87
f 137//2 138//2 139//2
f 139//2 140//2 141//2
f 141//88 142//88 143//88
f 143//87 144//87 145//87
f 145//2 146//2 147//2
f 147//2 148//2 149//2
f 149//2 150//2 151//2
f 151//89 152//89 153//89
f 153//90 154//90 155//90
f 155//2 156//2 157//2
f 157//88 158//88 159//88
f 159//2 160//2 161//2
f 161//2 162//2 163//2
f 163//91 164//91 165//91
f 165//88 166//88 135//88
f 135//92 137//92 139//92
f 139//2 141//2 143//2
f 143//2 145//2 147//2
f 147//2 149//2 151//2
f 151//92 153//92 155//92
f 155//2 157//2 159//2
f 159//2 161//2 163//2
f 163//2 165//2 135//2
f 135//2 139//2 143//2
f 143//2 147//2 151//2
f 151//2 155//2 159//2
f 159//2 163//2 135//2
f 135//2 143//2 151//2
f 151//2 159//2 135//2
f 167//1 168//1 169//1
f 169//93 170//93 171//93
f 171//1 172//1 173//1
f 173//94 174//94 175//94
f 175//1 176//1 177//1
f 177//93 178//93 179//93
f 179//95 180//95 181//95
f 181//96 182//96 183//96
f 183//95 184//95 185//95
f 185//1 186//1 187//1
f 187//1 188//1 189//1
f 189//97 190//97 191//97
f 191//1 192//1 193//1
f 193//1 194//1 195//1
f 195//93 196//93 197//93
f 197//98 198//98 167//98
f 167//99 169//99 171//99
f 171//1 173//1 175//1
f 175//1 177//1 179//1
f 179//1 181//1 183//1
f 183//97 185//97 187//97
f 187//1 189//1 191//1
f 191//1 193//1 195//1
f 195//99 197//99 167//99
f 167//1 171//1 175//1
f 175//1 179//1 183//1
f 183//1 187//1 191//1
f 191//1 195//1 167//1
f 167//1 175//1 183//1
f 183//1 191//1 167//1
f 170//100 169//100 138//100
f 138//100 137//100 170//100
f 171//101 170//101 137//101
f 137//101 136//101 171//101
f 172//102 171//102 136//102
f 136//103 135//103 172//103
f 173//104 172//104 135//104
f 135//105 166//105 173//105
f 174//106 173//106 166//106
f 166//107 165//107 174//107
f 175//108 174//108 165//108
f 165//109 164//109 175//109
f 176//110 175//110 164//110
f 164//110 163//110 176//110
f 176//111 163//111 162//111
f 162//111 177//111 176//111
f 178//112 177//112 162//112
f 162//112 161//112 178//112
f 179//113 178//113 161//113
f 161//113 160//113 179//113
f 180//114 179//114 160//114
f 160//114 159//114 180//114
f 181//115 180//115 159//115
f 159//115 158//115 181//115
f 182//116 181//116 158//116
f 158//117 157//117 182//117
f 183//118 182//118 157//118
f 157//119 156//119 183//119
f 184//120 183//120 156//120
f 156//120 155//120 184//120
f 184//121 155//121 154//121
f 154//121 185//121 184//121
f 186//122 185//122 154//122
f 154//122 153//122 186//122
f 187//123 186//123 153//123
f 153//123 152//123 187//123
f 188//124 187//124 152//124
f 152//124 151//124 188//124
f 189//125 188//125 151//125
f 151//125 150//125 189//125
f 190//126 189//126 150//126
f 150//126 149//126 190//126
f 191//127 190//127 149//127
f 149//128 148//128 191//128
f 192//129 191//129 148//129
f 148//130 147//130 192//130
f 192//131 147//131 146//131
f 146//131 193//131 192//131
f 194//132 193//132 146//132
f 146//132 145//132 194//132
f 195//133 194//133 145//133
f 145//133 144//133 195//133
f 196//134 195//134 144//134
f 144//135 143//135 196//135
f 197//136 196//136 143//136
f 143//137 142//137 197//137
f 198//138 197//138 142//138
f 142//139 141//139 198//139
f 167//140 198//140 141//140
f 141//141 140//141 167//141
f 168//142 167//142 140//142
f 140//143 139//143 168//143
f 168//144 139//144 138//144
f 138//145 169//145 168//145
f 199//1 200//1 201//1
f 201//1 202//1 199//1
f 203//2 204//2 205//2
f 205//2 206//2 203//2
f 206//83 205//83 202//83
f 202//83 201//83 206//83
f 205//146 204//146 199//146
f 199//146 202//146 205//146
f 204//85 203//85 200//85
f 200//85 199//85 204//85
f 203//147 206//147 201//147
f 201//147 200//147 203//147
f 207//2 199//2 202//2
f 201//2 200//2 208//2
f 209//2 207//2 202//2
f 201//2 208//2 210//2
f 210//2 209//2 202//2
f 202//2 201//2 210//2
f 211//1 212//1 213//1
f 214//1 215//1 216//1
f 217//1 211//1 213//1
f 214//1 216//1 218//1
f 218//1 217//1 213//1
f 213//1 214//1 218//1
f 214//83 213//83 201//83
f 201//83 202//83 214//83
f 215//146 214//146 202//146
f 202//146 199//146 215//146
f 216//148 215//148 199//148
f 199//148 207//148 216//148
f 218//149 216//149 207//149
f 207//149 209//149 218//149
f 217//150 218//150 209//150
f 209//150 210//150 217//150
f 211//151 217//151 210//151
f 210//151 208//151 211//151
f 212//148 211//148 208//148
f 208//148 200//148 212//148
f 213//147 212//147 200//147
f 200//147 201//147 213//147
f 219//2 220//2 221//2
f 221//2 222//2 219//2
f 223//1 224//1 225//1
f 225//1 226//1 223//1
f 226//85 225//85 222//85
f 222//85 221//85 226//85
f 223//86 226//86 221//86
f 221//86 220//86 223//86
f 224//83 223//83 220//83
f 220//83 219//83 224//83
f 225//84 224//84 219//84
f 219//84 222//84 225//84
f 227//87 228//87 229//87
f 229//152 230//152 231//152
f 231//153 232//153 233//153
f 233//2 234//2 235//2
f 235//154 236//154 237//154
f 237//2 238//2 239//2
f 239//2 240//2 241//2
f 241//2 242//2 243//2
f 243//155 244//155 245//155
f 245//156 246//156 247//156
f 247//152 248//152 249//152
f 249//2 250//2 251//2
f 251//2 252//2 253//2
f 253//2 254//2 255//2
f 255//157 256//157 257//157
f 257//2 258//2 227//2
f 227//2 229//2 231//2
f 231//157 233//157 235//157
f 235//2 237//2 239//2
f 239//157 241//157 243//157
f 243//157 245//157 247//157
f 247//157 249//157 251//157
f 251//2 253//2 255//2
f 255//2 257//2 227//2
f 227//2 231//2 235//2
f 235//2 239//2 243//2
f 243//2 247//2 251//2
f 251//2 255//2 227//2
f 227//2 235//2 243//2
f 243//2 251//2 227//2
f 259//1 260//1 261//1
f 261//94 262//94 263//94
f 263//158 264//158 265//158
f 265//94 266//94 267//94
f 267//1 268//1 269//1
f 269//1 270//1 271//1
f 271//96 272//96 273//96
f 273//98 274//98 275//98
f 275//159 276//159 277//159
f 277//95 278//95 279//95
f 279//94 280//94 281//94
f 281//97 282//97 283//97
f 283//1 284//1 285//1
f 285//1 286//1 287//1
f 287//95 288//95 289//95
f 289//95 290//95 259//95
f 259//1 261//1 263//1
f 263//99 265//99 267//99
f 267//1 269//1 271//1
f 271//97 273//97 275//97
f 275//97 277//97 279//97
f 279//1 281//1 283//1
f 283//1 285//1 287//1
f 287//97 289//97 259//97
f 259//1 263//1 267//1
f 267//1 271//1 275//1
f 275//1 279//1 283//1
f 283//1 287//1 259//1
f 259//1 267//1 275//1
f 275//1 283//1 259//1
f 262//160 261//160 230//160
f 230//160 229//160 262//160
f 263//161 262//161 229//161
f 229//161 228//161 263//161
f 264//162 263//162 228//162
f 228//162 227//162 264//162
f 265//163 264//163 227//163
f 227//163 258//163 265//163
f 266//164 265//164 258//164
f 258//164 257//164 266//164
f 267//165 266//165 257//165
f 257//165 256//165 267//165
f 268//166 267//166 256//166
f 256//166 255//166 268//166
f 268//167 255//167 254//167
f 254//167 269//167 268//167
f 270//132 269//132 254//132
f 254//132 253//132 270//132
f 271//133 270//133 253//133
f 253//133 252//133 271//133
f 272//168 271//168 252//168
f 252//168 251//168 272//168
f 273//136 272//136 251//136
f 251//136 250//136 273//136
f 274//139 273//139 250//139
f 250//139 249//139 274//139
f 275//141 274//141 249//141
f 249//141 248//141 275//141
f 276//169 275//169 248//169
f 248//170 247//170 276//170
f 276//171 247//171 246//171
f 246//171 277//171 276//171
f 278//100 277//100 246//100
f 246//100 245//100 278//100
f 279//172 278//172 245//172
f 245//172 244//172 279//172
f 280//173 279//173 244//173
f 244//173 243//173 280//173
f 281//105 280//105 243//105
f 243//105 242//105 281//105
f 282//174 281//174 242//174
f 242//174 241//174 282//174
f 283//175 282//175 241//175
f 241//175 240//175 283//175
f 284//176 283//176 240//176
f 240//177 239//177 284//177
f 284//20 239//20 238//20
f 238//20 285//20 284//20
f 286//178 285//178 238//178
f 238//178 237//178 286//178
f 287//179 286//179 237//179
f 237//179 236//179 287//179
f 288//114 287//114 236//114
f 236//114 235//114 288//114
f 289//115 288//115 235//115
f 235//115 234//115 289//115
f 290//116 289//116 234//116
f 234//116 233//116 290//116
f 259//180 290//180 233//180
f 233//180 232//180 259//180
f 260//181 259//181 232//181
f 232//181 231//181 260//181
f 260//121 231//121 230//121
f 230//121 261//121 260//121
f 291//1 292//1 293//1
f 293//1 294//1 291//1
f 295//2 296//2 297//2
f 297//2 298//2 295//2
f 298//85 297//85 294//85
f 294//85 293//85 298//85
f 297//147 296//147 291//147
f 291//147 294//147 297//147
f 296//83 295//83 292//83
f 292//83 291//83 296//83
f 295//146 298//146 293//146
f 293//146 292//146 295//146
f 299//2 291//2 294//2
f 293//2 292//2 300//2
f 301//2 299//2 294//2
f 293//2 300//2 302//2
f 302//2 301//2 294//2
f 294//2 293//2 302//2
f 303//1 304//1 305//1
f 306//1 307//1 308//1
f 309//1 303//1 305//1
f 306//1 308//1 310//1
f 310//1 309//1 305//1
f 305//1 306//1 310//1
f 306//85 305//85 293//85
f 293//85 294//85 306//85
f 307//147 306//147 294//147
f 294//147 291//147 307//147
f 308//182 307//182 291//182
f 291//182 299//182 308//182
f 310//151 308//151 299//151
f 299//151 301//151 310//151
f 309//183 310//183 301//183
f 301//183 302//183 309//183
f 303//184 309//184 302//184
f 302//184 300//184 303//184
f 304//185 303//185 300//185
f 300//185 292//185 304//185
f 305//146 304//146 292//146
f 292//146 293//146 305//146
f 314//1 313//1 312//1
f 312//1 311//1 314//1
f 315//2 316//2 317//2
f 317//2 318//2 315//2
f 319//1 320//1 321//1
f 321//1 322//1 319//1
f 322//125 321//125 318//125
f 318//125 317//125 322//125
f 319//136 322//136 317//136
f 317//136 316//136 319//136
f 320//105 319//105 316//105
f 316//105 315//105 320//105
f 321//115 320//115 315//115
f 315//115 318//115 321//115
f 323//91 324//91 325//91
f 325//2 326//2 327//2
f 327//2 328//2 329//2
f 329//2 330//2 331//2
f 331//2 332//2 333//2
f 333//90 334//90 335//90
f 335//92 336//92 337//92
f 337//2 338//2 339//2
f 339//91 340//91 341//91
f 341//87 342//87 343//87
f 343//2 344//2 345//2
f 345//2 346//2 347//2
f 347//2 348//2 349//2
f 349//2 350//2 351//2
f 351//92 352//92 353//92
f 353//2 354//2 323//2
f 323//2 325//2 327//2
f 327//2 329//2 331//2
f 331//2 333//2 335//2
f 335//2 337//2 339//2
f 339//2 341//2 343//2
f 343//2 345//2 347//2
f 347//2 349//2 351//2
f 351//2 353//2 323//2
f 323//2 327//2 331//2
f 331//2 335//2 339//2
f 339//2 343//2 347//2
f 347//2 351//2 323//2
f 323//2 331//2 339//2
f 339//2 347//2 323//2
f 355//96 356//96 357//96
f 357//1 358//1 359//1
f 359//99 360//99 361//99
f 361//93 362//93 363//93
f 363//1 364//1 365//1
f 365//94 366//94 367//94
f 367//1 368//1 369//1
f 369//1 370//1 371//1
f 371//95 372//95 373//95
f 373//1 374//1 375//1
f 375//99 376//99 377//99
f 377//1 378//1 379//1
f 379//1 380//1 381//1
f 381//93 382//93 383//93
f 383//1 384//1 385//1
f 385//1 386//1 355//1
f 355//1 357//1 359//1
f 359//1 361//1 363//1
f 363//99 365//99 367//99
f 367//1 369//1 371//1
f 371//1 373//1 375//1
f 375//1 377//1 379//1
f 379//99 381//99 383//99
f 383//1 385//1 355//1
f 355//1 359//1 363//1
f 363//1 367//1 371//1
f 371//1 375//1 379//1
f 379//1 383//1 355//1
f 355//1 363//1 371//1
f 371//1 379//1 355//1
f 358//186 357//186 326//186
f 326//187 325//187 358//187
f 359//109 358//109 325//109
f 325//109 324//109 359//109
f 360//188 359//188 324//188
f 324//188 323//188 360//188
f 361//189 360//189 323//189
f 323//189 354//189 361//189
f 362//190 361//190 354//190
f 354//190 353//190 362//190
f 363//191 362//191 353//191
f 353//192 352//192 363//192
f 364//193 363//193 352//193
f 352//193 351//193 364//193
f 364//194 351//194 350//194
f 350//194 365//194 364//194
f 366//195 365//195 350//195
f 350//196 349//196 366//196
f 367//197 366//197 349//197
f 349//197 348//197 367//197
f 368//198 367//198 348//198
f 348//198 347//198 368//198
f 369//199 368//199 347//199
f 347//200 346//200 369//200
f 370//201 369//201 346//201
f 346//202 345//202 370//202
f 371//203 370//203 345//203
f 345//203 344//203 371//203
f 372//161 371//161 344//161
f 344//161 343//161 372//161
f 372//204 343//204 342//204
f 342//204 373//204 372//204
f 374//205 373//205 342//205
f 342//205 341//205 374//205
f 375//206 374//206 341//206
f 341//206 340//206 375//206
f 376//207 375//207 340//207
f 340//207 339//207 376//207
f 377//208 376//208 339//208
f 339//208 338//208 377//208
f 378//209 377//209 338//209
f 338//209 337//209 378//209
f 379//210 378//210 337//210
f 337//210 336//210 379//210
f 380//211 379//211 336//211
f 336//211 335//211 380//211
f 380//212 335//212 334//212
f 334//213 381//213 380//213
f 382//214 381//214 334//214
f 334//214 333//214 382//214
f 383//215 382//215 333//215
f 333//215 332//215 383//215
f 384//216 383//216 332//216
f 332//216 331//216 384//216
f 385//217 384//217 331//217
f 331//217 330//217 385//217
f 386//218 385//218 330//218
f 330//218 329//218 386//218
f 355//219 386//219 329//219
f 329//219 328//219 355//219
f 356//172 355//172 328//172
f 328//172 327//172 356//172
f 356//220 327//220 326//220
f 326//221 357//221 356//221
f 387//1 388//1 389//1
f 389//1 390//1 387//1
f 391//2 392//2 393//2
f 393//2 394//2 391//2
f 394//125 393//125 390//125
f 390//125 389//125 394//125
f 393//136 392//136 387//136
f 387//136 390//136 393//136
f 392//105 391//105 388//105
f 388//105 387//105 392//105
f 391//115 394//115 389//115
f 389//115 388//115 391//115
f 395//2 387//2 390//2
f 389//2 388//2 396//2
f 397//2 395//2 390//2
f 389//2 396//2 398//2
f 398//2 397//2 390//2
f 390//2 389//2 398//2
f 399//1 400//1 401//1
f 402//1 403//1 404//1
f 405//1 399//1 401//1
f 402//1 404//1 406//1
f 406//1 405//1 401//1
f 401//1 402//1 406//1
f 402//125 401//125 389//125
f 389//125 390//125 402//125
f 403//136 402//136 390//136
f 390//136 387//136 403//136
f 404//105 403//105 387//105
f 387//105 395//105 404//105
f 406//222 404//222 395//222
f 395//222 397//222 406//222
f 405//105 406//105 397//105
f 397//105 398//105 405//105
f 399//223 405//223 398//223
f 398//223 396//223 399//223
f 400//105 399//105 396//105
f 396//105 388//105 400//105
f 401//115 400//115 388//115
f 388//115 389//115 401//115
f 407//2 408//2 409//2
f 409//2 410//2 407//2
f 411//1 412//1 413//1
f 413//1 414//1 411//1
f 414//105 413//105 410//105
f 410//105 409//105 414//105
f 411//115 414//115 409//115
f 409//115 408//115 411//115
f 412//125 411//125 408//125
f 408//125 407//125 412//125
f 413//136 412//136 407//136
f 407//136 410//136 413//136
f 415//156 416//156 417//156
f 417//2 418//2 419//2
f 419//154 420//154 421//154
f 421//87 422//87 423//87
f 423//2 424//2 425//2
f 425//2 426//2 427//2
f 427//2 428//2 429//2
f 429//2 430//2 431//2
f 431//2 432//2 433//2
f 433//2 434//2 435//2
f 435//2 436//2 437//2
f 437//154 438//154 439//154
f 439//87 440//87 441//87
f 441//2 442//2 443//2
f 443//157 444//157 445//157
f 445//2 446//2 415//2
f 415//2 417//2 419//2
f 419//92 421//92 423//92
f 423//92 425//92 427//92
f 427//2 429//2 431//2
f 431//92 433//92 435//92
f 435//157 437//157 439//157
f 439//92 441//92 443//92
f 443//2 445//2 415//2
f 415//2 419//2 423//2
f 423//2 427//2 431//2
f 431//2 435//2 439//2
f 439//2 443//2 415//2
f 415//2 423//2 431//2
f 431//2 439//2 415//2
f 447//93 448//93 449//93
f 449//97 450//97 451//97
f 451//1 452//1 453//1
f 453//1 454//1 455//1
f 455//95 456//95 457//95
f 457//95 458//95 459//95
f 459//1 460//1 461//1
f 461//1 462//1 463//1
f 463//96 464//96 465//96
f 465//95 466//95 467//95
f 467//1 468//1 469//1
f 469//1 470//1 471//1
f 471//97 472//97 473//97
f 473//94 474//94 475//94
f 475//1 476//1 477//1
f 477//1 478//1 447//1
f 447//1 449//1 451//1
f 451//1 453//1 455//1
f 455//97 457//97 459//97
f 459//97 461//97 463//97
f 463//1 465//1 467//1
f 467//1 469//1 471//1
f 471//99 473//99 475//99
f 475//99 477//99 447//99
f 447//1 451//1 455//1
f 455//1 459//1 463//1
f 463//1 467//1 471//1
f 471//1 475//1 447//1
f 447//1 455//1 463//1
f 463//1 471//1 447//1
f 450//205 449//205 418//205
f 418//205 417//205 450//205
f 451//206 450//206 417//206
f 417//206 416//206 451//206
f 452//207 451//207 416//207
f 416//207 415//207 452//207
f 453//208 452//208 415//208
f 415//208 446//208 453//208
f 454//209 453//209 446//209
f 446//209 445//209 454//209
f 455//210 454//210 445//210
f 445//210 444//210 455//210
f 456//211 455//211 444//211
f 444//211 443//211 456//211
f 456//213 443//213 442//213
f 442//213 457//213 456//213
f 458//214 457//214 442//214
f 442//214 441//214 458//214
f 459//224 458//224 441//224
f 441//215 440//215 459//215
f 460//216 459//216 440//216
f 440//216 439//216 460//216
f 461//217 460//217 439//217
f 439//217 438//217 461//217
f 462//225 461//225 438//225
f 438//218 437//218 462//218
f 463//219 462//219 437//219
f 437//219 436//219 463//219
f 464//172 463//172 436//172
f 436//172 435//172 464//172
f 464//226 435//226 434//226
f 434//226 465//226 464//226
f 466//186 465//186 434//186
f 434//186 433//186 466//186
f 467//109 466//109 433//109
f 433//109 432//109 467//109
f 468//110 467//110 432//110
f 432//110 431//110 468//110
f 469//189 468//189 431//189
f 431//189 430//189 469//189
f 470//190 469//190 430//190
f 430//190 429//190 470//190
f 471//192 470//192 429//192
f 429//192 428//192 471//192
f 472//193 471//193 428//193
f 428//193 427//193 472//193
f 472//194 427//194 426//194
f 426//194 473//194 472//194
f 474//195 473//195 426//195
f 426//195 425//195 474//195
f 475//197 474//197 425//197
f 425//197 424//197 475//197
f 476//198 475//198 424//198
f 424//198 423//198 476//198
f 477//200 476//200 423//200
f 423//200 422//200 477//200
f 478//201 477//201 422//201
f 422//201 421//201 478//201
f 447//227 478//227 421//227
f 421//227 420//227 447//227
f 448//228 447//228 420//228
f 420//161 419//161 448//161
f 448//204 419//204 418//204
f 418//204 449//204 448//204
f 479//1 480//1 481//1
f 481//1 482//1 479//1
f 483//2 484//2 485//2
f 485//2 486//2 483//2
f 486//105 485//105 482//105
f 482//105 481//105 486//105
f 485//115 484//115 479//115
f 479//115 482//115 485//115
f 484//125 483//125 480//125
f 480//125 479//125 484//125
f 483//136 486//136 481//136
f 481//136 480//136 483//136
f 487//2 479//2 482//2
f 481//2 480//2 488//2
f 489//2 487//2 482//2
f 481//2 488//2 490//2
f 490//2 489//2 482//2
f 482//2 481//2 490//2
f 491//1 492//1 493//1
f 494//1 495//1 496//1
f 497//1 491//1 493//1
f 494//1 496//1 498//1
f 498//1 497//1 493//1
f 493//1 494//1 498//1
f 494//105 493//105 481//105
f 481//105 482//105 494//105
f 495//115 494//115 482//115
f 482//115 479//115 495//115
f 496//125 495//125 479//125
f 479//125 487//125 496//125
f 498//136 496//136 487//136
f 487//136 489//136 498//136
f 497//125 498//125 489//125
f 489//125 490//125 497//125
f 491//115 497//115 490//115
f 490//115 488//115 491//115
f 492//125 491//125 488//125
f 488//125 480//125 492//125
f 493//136 492//136 480//136
f 480//136 481//136 493//136
f 502//1 501//1 500//1
f 500//1 499//1 502//1
f 506//1 505//1 504//1
f 504//1 503//1 506//1
f 507//2 508//2 509//2
f 509//2 510//2 507//2
f 511//1 512//1 513//1
f 513//1 514//1 511//1
f 514//229 513//229 510//229
f 510//229 509//229 514//229
f 511//230 514//230 509//230
f 509//230 508//230 511//230
f 512//231 511//231 508//231
f 508//231 507//231 512//231
f 513//232 512//232 507//232
f 507//232 510//232 513//232
f 515//157 516//157 517//157
f 517//2 518//2 519//2
f 519//2 520//2 521//2
f 521//2 522//2 523//2
f 523//2 524//2 525//2
f 525//2 526//2 527//2
f 527//2 528//2 529//2
f 529//152 530//152 531//152
f 531//2 532//2 533//2
f 533//2 534//2 535//2
f 535//2 536//2 537//2
f 537//233 538//233 539//233
f 539//233 540//233 541//233
f 541//152 542//152 543//152
f 543//89 544//89 545//89
f 545//234 546//234 515//234
f 515//2 517//2 519//2
f 519//2 521//2 523//2
f 523//2 525//2 527//2
f 527//157 529//157 531//157
f 531//2 533//2 535//2
f 535//2 537//2 539//2
f 539//157 541//157 543//157
f 543//92 545//92 515//92
f 515//2 519//2 523//2
f 523//2 527//2 531//2
f 531//2 535//2 539//2
f 539//2 543//2 515//2
f 515//2 523//2 531//2
f 531//2 539//2 515//2
f 547//1 548//1 549//1
f 549//1 550//1 551//1
f 551//96 552//96 553//96
f 553//95 554//95 555//95
f 555//95 556//95 557//95
f 557//95 558//95 559//95
f 559//1 560//1 561//1
f 561//1 562//1 563//1
f 563//1 564//1 565//1
f 565//1 566//1 567//1
f 567//95 568//95 569//95
f 569//96 570//96 571//96
f 571//235 572//235 573//235
f 573//1 574//1 575//1
f 575//159 576//159 577//159
f 577//1 578//1 547//1
f 547//1 549//1 551//1
f 551//97 553//97 555//97
f 555//1 557//1 559//1
f 559//97 561//97 563//97
f 563//1 565//1 567//1
f 567//1 569//1 571//1
f 571//1 573//1 575//1
f 575//99 577//99 547//99
f 547//1 551//1 555//1
f 555//1 559//1 563//1
f 563//1 567//1 571//1
f 571//1 575//1 547//1
f 547//1 555//1 563//1
f 563//1 571//1 547//1
f 550//236 549//236 518//236
f 518//236 517//236 550//236
f 551//237 550//237 517//237
f 517//237 516//237 551//237
f 552//238 551//238 516//238
f 516//179 515//179 552//179
f 553//239 552//239 515//239
f 515//240 546//240 553//240
f 554//115 553//115 546//115
f 546//115 545//115 554//115
f 555//241 554//241 545//241
f 545//242 544//242 555//242
f 556//243 555//243 544//243
f 544//243 543//243 556//243
f 556//244 543//244 542//244
f 542//244 557//244 556//244
f 558//121 557//121 542//121
f 542//121 541//121 558//121
f 559//245 558//245 541//245
f 541//246 540//246 559//246
f 560//247 559//247 540//247
f 540//247 539//247 560//247
f 561//163 560//163 539//163
f 539//163 538//163 561//163
f 562//125 561//125 538//125
f 538//125 537//125 562//125
f 563//248 562//248 537//248
f 537//249 536//249 563//249
f 564//165 563//165 536//165
f 536//165 535//165 564//165
f 564//250 535//250 534//250
f 534//250 565//250 564//250
f 566//131 565//131 534//131
f 534//131 533//131 566//131
f 567//251 566//251 533//251
f 533//251 532//251 567//251
f 568//252 567//252 532//252
f 532//253 531//253 568//253
f 569//254 568//254 531//254
f 531//255 530//255 569//255
f 570//136 569//136 530//136
f 530//136 529//136 570//136
f 571//256 570//256 529//256
f 529//256 528//256 571//256
f 572//257 571//257 528//257
f 528//257 527//257 572//257
f 572//258 527//258 526//258
f 526//258 573//258 572//258
f 574//259 573//259 526//259
f 526//259 525//259 574//259
f 575//260 574//260 525//260
f 525//219 524//219 575//219
f 576//172 575//172 524//172
f 524//172 523//172 576//172
f 577//103 576//103 523//103
f 523//103 522//103 577//103
f 578//105 577//105 522//105
f 522//105 521//105 578//105
f 547//107 578//107 521//107
f 521//174 520//174 547//174
f 548//261 547//261 520//261
f 520//261 519//261 548//261
f 548//262 519//262 518//262
f 518//262 549//262 548//262
f 579//1 580//1 581//1
f 581//1 582//1 579//1
f 583//2 584//2 585//2
f 585//2 586//2 583//2
f 586//229 585//229 582//229
f 582//229 581//229 586//229
f 585//263 584//263 579//263
f 579//263 582//263 585//263
f 584//231 583//231 580//231
f 580//231 579//231 584//231
f 583//264 586//264 581//264
f 581//264 580//264 583//264
f 587//2 579//2 582//2
f 581//2 580//2 588//2
f 589//2 587//2 582//2
f 581//2 588//2 590//2
f 590//2 589//2 582//2
f 582//2 581//2 590//2
f 591//1 592//1 593//1
f 594//1 595//1 596//1
f 597//1 591//1 593//1
f 594//1 596//1 598//1
f 598//1 597//1 593//1
f 593//1 594//1 598//1
f 594//229 593//229 581//229
f 581//229 582//229 594//229
f 595//263 594//263 582//263
f 582//263 579//263 595//263
f 596//265 595//265 579//265
f 579//265 587//265 596//265
f 598//266 596//266 587//266
f 587//266 589//266 598//266
f 597//267 598//267 589//267
f 589//267 590//267 597//267
f 591//268 597//268 590//268
f 590//268 588//268 591//268
f 592//265 591//265 588//265
f 588//265 580//265 592//265
f 593//264 592//264 580//264
f 580//264 581//264 593//264
f 599//2 600//2 601//2
f 601//2 602//2 599//2
f 603//1 604//1 605//1
f 605//1 606//1 603//1
f 606//231 605//231 602//231
f 602//231 601//231 606//231
f 603//232 606//232 601//232
f 601//232 600//232 603//232
f 604//229 603//229 600//229
f 600//229 599//229 604//229
f 605//230 604//230 599//230
f 599//230 602//230 605//230
f 607//2 608//2 609//2
f 609//2 610//2 611//2
f 611//91 612//91 613//91
f 613//87 614//87 615//87
f 615//2 616//2 617//2
f 617//2 618//2 619//2
f 619//87 620//87 621//87
f 621//2 622//2 623//2
f 623//157 624//157 625//157
f 625//2 626//2 627//2
f 627//2 628//2 629//2
f 629//2 630//2 631//2
f 631//2 632//2 633//2
f 633//2 634//2 635//2
f 635//2 636//2 637//2
f 637//90 638//90 607//90
f 607//2 609//2 611//2
f 611//2 613//2 615//2
f 615//157 617//157 619//157
f 619//156 621//156 623//156
f 623//2 625//2 627//2
f 627//2 629//2 631//2
f 631//92 633//92 635//92
f 635//157 637//157 607//157
f 607//2 611//2 615//2
f 615//2 619//2 623//2
f 623//2 627//2 631//2
f 631//2 635//2 607//2
f 607//2 615//2 623//2
f 623//2 631//2 607//2
f 639//97 640//97 641//97
f 641//1 642//1 643//1
f 643//1 644//1 645//1
f 645//1 646//1 647//1
f 647//1 648//1 649//1
f 649//95 650//95 651//95
f 651//95 652//95 653//95
f 653//93 654//93 655//93
f 655//1 656//1 657//1
f 657//1 658//1 659//1
f 659//1 660//1 661//1
f 661//96 662//96 663//96
f 663//93 664//93 665//93
f 665//1 666//1 667//1
f 667//1 668//1 669//1
f 669//158 670//158 639//158
f 639//1 641//1 643//1
f 643//99 645//99 647//99
f 647//97 649//97 651//97
f 651//1 653//1 655//1
f 655//1 657//1 659//1
f 659//97 661//97 663//97
f 663//1 665//1 667//1
f 667//1 669//1 639//1
f 639//1 643//1 647//1
f 647//1 651//1 655//1
f 655//1 659//1 663//1
f 663//1 667//1 639//1
f 639//1 647//1 655//1
f 655//1 663//1 639//1
f 642//131 641//131 610//131
f 610//131 609//131 642//131
f 643//269 642//269 609//269
f 609//269 608//269 643//269
f 644//270 643//270 608//270
f 608//270 607//270 644//270
f 645//168 644//168 607//168
f 607//168 638//168 645//168
f 646//136 645//136 638//136
f 638//136 637//136 646//136
f 647//256 646//256 637//256
f 637//256 636//256 647//256
f 648//141 647//141 636//141
f 636//141 635//141 648//141
f 648//271 635//271 634//271
f 634//271 649//271 648//271
f 650//11 649//11 634//11
f 634//11 633//11 650//11
f 651//272 650//272 633//272
f 633//273 632//273 651//273
f 652//274 651//274 632//274
f 632//275 631//275 652//275
f 653//103 652//103 631//103
f 631//103 630//103 653//103
f 654//105 653//105 630//105
f 630//105 629//105 654//105
f 655//276 654//276 629//276
f 629//276 628//276 655//276
f 656//109 655//109 628//109
f 628//109 627//109 656//109
f 656//262 627//262 626//262
f 626//262 657//262 656//262
f 658//277 657//277 626//277
f 626//277 625//277 658//277
f 659//278 658//278 625//278
f 625//278 624//278 659//278
f 660//179 659//179 624//179
f 624//179 623//179 660//179
f 661//239 660//239 623//239
f 623//279 622//279 661//279
f 662//115 661//115 622//115
f 622//115 621//115 662//115
f 663//117 662//117 621//117
f 621//280 620//280 663//280
f 664//281 663//281 620//281
f 620//281 619//281 664//281
f 664//244 619//244 618//244
f 618//244 665//244 664//244
f 666//282 665//282 618//282
f 618//282 617//282 666//282
f 667//160 666//160 617//160
f 617//283 616//283 667//283
f 668//123 667//123 616//123
f 616//123 615//123 668//123
f 669//162 668//162 615//162
f 615//284 614//284 669//284
f 670//126 669//126 614//126
f 614//126 613//126 670//126
f 639//285 670//285 613//285
f 613//164 612//164 639//164
f 640//206 639//206 612//206
f 612//206 611//206 640//206
f 640//166 611//166 610//166
f 610//166 641//166 640//166
f 671//1 672//1 673//1
f 673//1 674//1 671//1
f 675//2 676//2 677//2
f 677//2 678//2 675//2
f 678//231 677//231 674//231
f 674//231 673//231 678//231
f 677//264 676//264 671//264
f 671//264 674//264 677//264
f 676//229 675//229 672//229
f 672//229 671//229 676//229
f 675//263 678//263 673//263
f 673//263 672//263 675//263
f 679//2 671//2 674//2
f 673//2 672//2 680//2
f 681//2 679//2 674//2
f 673//2 680//2 682//2
f 682//2 681//2 674//2
f 674//2 673//2 682//2
f 683//1 684//1 685//1
f 686//1 687//1 688//1
f 689//1 683//1 685//1
f 686//1 688//1 690//1
f 690//1 689//1 685//1
f 685//1 686//1 690//1
f 686//231 685//231 673//231
f 673//231 674//231 686//231
f 687//264 686//264 674//264
f 674//264 671//264 687//264
f 688//286 687//286 671//286
f 671//286 679//286 688//286
f 690//287 688//287 679//287
f 679//287 681//287 690//287
f 689//288 690//288 681//288
f 681//288 682//288 689//288
f 683//266 689//266 682//266
f 682//266 680//266 683//266
f 684//289 683//289 680//289
f 680//289 672//289 684//289
f 685//263 684//263 672//263
f 672//263 673//263 685//263
f 694//1 693//1 692//1
f 692//1 691//1 694//1
usemtl Belt
f 1//1 2//1 3//1
f 3//1 4//1 5//1
f 5//1 6//1 7//1
f 7//1 8//1 9//1
f 9//1 10//1 11//1
f 11//1 12//1 13//1
f 14//1 1//1 3//1
f 3//1 5//1 7//1
f 7//1 9//1 11//1
f 11//1 13//1 15//1
f 16//1 14//1 3//1
f 3//1 7//1 11//1
f 11//1 15//1 17//1
f 18//1 16//1 3//1
f 3//1 11//1 17//1
f 17//1 18//1 3//1
f 19//2 20//2 21//2
f 21//2 22//2 23//2
f 24//2 25//2 26//2
f 26//2 27//2 28//2
f 28//2 29//2 30//2
f 30//2 19//2 21//2
f 21//2 23//2 31//2
f 32//2 24//2 26//2
f 26//2 28//2 30//2
f 30//2 21//2 31//2
f 33//2 32//2 26//2
f 30//2 31//2 34//2
f 35//2 33//2 26//2
f 30//2 34//2 36//2
f 36//2 35//2 26//2
f 26//2 30//2 36//2
f 19//6 30//6 7//6
f 30//7 29//7 8//7
f 8//7 7//7 30//7
f 10//10 27//10 26//10
f 26//10 11//10 10//10
f 26//11 25//11 12//11
f 12//11 11//11 26//11
f 2//12 1//12 31//12
f 34//13 31//13 1//13
f 1//13 14//13 34//13
f 36//14 34//14 14//14
f 14//14 16//14 36//14
f 35//15 36//15 16//15
f 16//15 18//15 35//15
f 33//16 35//16 18//16
f 18//16 17//16 33//16
f 32//17 33//17 17//17
f 17//17 15//17 32//17
f 24//18 32//18 15//18
f 15//18 13//18 24//18
f 24//19 13//19 12//19
f 23//20 22//20 3//20
f 3//20 2//20 23//20
l 695 696
