# Blender 5.2.0 LTS
# www.blender.org
mtllib col_straight_1m.mtl
o Straight_1m.001
v -0.444488 0.295634 -0.032072
v -0.469488 0.295634 -0.007072
v -0.469488 0.295634 0.033928
v -0.423988 0.295634 -0.036572
v -0.435155 0.295634 -0.035239
v -0.452488 0.295634 -0.027572
v -0.459322 0.295634 -0.021906
v -0.464988 0.295634 -0.015072
v -0.472655 0.295634 0.002261
v -0.473988 0.295634 0.013428
v -0.464988 0.295634 0.041928
v -0.459322 0.295634 0.048761
v -0.452488 0.295634 0.054428
v -0.444488 0.295634 0.058928
v -0.435155 0.295634 0.062094
v -0.423988 0.295634 0.063428
v -0.472655 0.295634 0.024594
v -0.423988 -0.225954 -0.036572
v -0.435155 -0.225954 -0.035239
v -0.459322 -0.225954 -0.021906
v -0.464988 -0.225954 -0.015072
v -0.452488 -0.225954 -0.027572
v -0.444488 -0.225954 -0.032072
v -0.472655 -0.225954 0.002261
v -0.473988 -0.225954 0.013428
v -0.469488 -0.225954 -0.007072
v -0.469488 -0.225954 0.033928
v -0.464988 -0.225954 0.041928
v -0.472655 -0.225954 0.024594
v -0.452488 -0.225954 0.054428
v -0.459322 -0.225954 0.048761
v -0.444488 -0.225954 0.058928
v -0.435155 -0.225954 0.062094
v -0.423988 -0.225954 0.063428
v 0.487178 0.295634 0.062094
v 0.487178 0.295634 -0.035239
v 0.476012 -0.225954 -0.036572
v 0.476012 -0.225954 0.063428
v 0.476012 0.295634 -0.036572
v 0.476012 0.295634 0.063428
v 0.524678 0.295634 0.002261
v 0.504512 0.295634 -0.027572
v 0.517012 0.295634 -0.015072
v 0.521512 0.295634 -0.007072
v 0.511345 0.295634 -0.021906
v 0.496512 0.295634 -0.032072
v 0.504512 0.295634 0.054428
v 0.517012 0.295634 0.041928
v 0.524678 0.295634 0.024594
v 0.526012 0.295634 0.013428
v 0.521512 0.295634 0.033928
v 0.511345 0.295634 0.048761
v 0.496512 0.295634 0.058928
v 0.487178 -0.225954 -0.035239
v 0.496512 -0.225954 -0.032072
v 0.517012 -0.225954 -0.015072
v 0.511345 -0.225954 -0.021906
v 0.504512 -0.225954 -0.027572
v 0.521512 -0.225954 -0.007072
v 0.524678 -0.225954 0.002261
v 0.526012 -0.225954 0.013428
v 0.524678 -0.225954 0.024594
v 0.521512 -0.225954 0.033928
v 0.517012 -0.225954 0.041928
v 0.496512 -0.225954 0.058928
v 0.504512 -0.225954 0.054428
v 0.511345 -0.225954 0.048761
v 0.487178 -0.225954 0.062094
v -0.372155 0.287231 -0.676572
v -0.369488 0.286072 -0.676572
v -0.367488 0.284333 -0.676572
v -0.378488 0.286072 -0.676572
v -0.375822 0.287231 -0.676572
v -0.368322 0.285347 -0.676572
v -0.370655 0.286796 -0.676572
v -0.373988 0.287375 -0.676572
v -0.377322 0.286796 -0.676572
v -0.380488 0.284333 -0.676572
v -0.379655 0.285347 -0.676572
v -0.398988 0.295634 -0.676572
v -0.348988 0.295634 -0.676572
v -0.348988 0.295634 -0.686572
v -0.398988 0.295634 -0.686572
v -0.369488 0.274770 -0.676572
v -0.380488 0.276509 -0.676572
v -0.381822 0.282015 -0.676572
v -0.381822 0.278827 -0.676572
v -0.381322 0.283319 -0.676572
v -0.381988 0.280421 -0.676572
v -0.375822 0.273611 -0.676572
v -0.378488 0.274770 -0.676572
v -0.372155 0.273611 -0.676572
v -0.373988 0.273466 -0.676572
v -0.377322 0.274046 -0.676572
v -0.381322 0.277523 -0.676572
v -0.379655 0.275495 -0.676572
v -0.366155 0.278827 -0.676572
v -0.367488 0.276509 -0.676572
v -0.368322 0.275495 -0.676572
v -0.366655 0.277523 -0.676572
v -0.370655 0.274046 -0.676572
v -0.366655 0.283319 -0.676572
v -0.366155 0.282015 -0.676572
v -0.365988 0.280421 -0.676572
v -0.398988 0.208703 -0.676572
v -0.348988 0.208703 -0.676572
v -0.398988 0.208703 -0.686572
v -0.348988 0.208703 -0.686572
v -0.380488 0.284333 -0.546572
v -0.379655 0.285347 -0.546572
v -0.381322 0.283319 -0.546572
v -0.381822 0.282015 -0.546572
v -0.378488 0.286072 -0.546572
v -0.381988 0.280421 -0.546572
v -0.377322 0.286796 -0.546572
v -0.375822 0.287231 -0.546572
v -0.373988 0.287375 -0.546572
v -0.372155 0.287231 -0.546572
v -0.370655 0.286796 -0.546572
v -0.369488 0.286072 -0.546572
v -0.368322 0.285347 -0.546572
v -0.367488 0.284333 -0.546572
v -0.366655 0.283319 -0.546572
v -0.366155 0.282015 -0.546572
v -0.365988 0.280421 -0.546572
v -0.380488 0.276509 -0.546572
v -0.381322 0.277523 -0.546572
v -0.379655 0.275495 -0.546572
v -0.381822 0.278827 -0.546572
v -0.378488 0.274770 -0.546572
v -0.377322 0.274046 -0.546572
v -0.375822 0.273611 -0.546572
v -0.373988 0.273466 -0.546572
v -0.369488 0.274770 -0.546572
v -0.372155 0.273611 -0.546572
v -0.370655 0.274046 -0.546572
v -0.366155 0.278827 -0.546572
v -0.368322 0.275495 -0.546572
v -0.367488 0.276509 -0.546572
v -0.366655 0.277523 -0.546572
v -0.352988 0.292157 -0.536572
v -0.394988 0.292157 -0.536572
v -0.398988 0.295634 -0.536572
v -0.348988 0.295634 -0.536572
v -0.348988 0.295634 -0.546572
v -0.398988 0.295634 -0.546572
v -0.394988 0.265208 -0.536572
v -0.398988 0.265208 -0.536572
v -0.398988 0.265208 -0.546572
v -0.348988 0.265208 -0.546572
v -0.348988 0.265208 -0.536572
v -0.352988 0.265208 -0.536572
v -0.352988 0.292157 -0.056572
v -0.398988 0.295634 -0.056572
v -0.394988 0.292157 -0.056572
v -0.348988 0.295634 -0.056572
v -0.398988 0.265208 -0.056572
v -0.394988 0.265208 -0.056572
v -0.352988 0.265208 -0.056572
v -0.348988 0.265208 -0.056572
v -0.448988 0.297373 -0.111572
v -0.473988 0.321713 -0.111572
v -0.473988 0.295634 -0.111572
v -0.473988 0.299111 -0.107572
v -0.473988 0.318236 -0.107572
v -0.448988 0.293026 -0.111572
v -0.298988 0.293026 -0.111572
v -0.298988 0.297373 -0.111572
v -0.473988 0.295634 0.088428
v -0.473988 0.299111 0.084428
v -0.473988 0.321713 0.080928
v -0.473988 0.318236 0.079261
v -0.473988 0.315194 0.088428
v -0.473988 0.313745 0.084428
v 0.526012 0.318236 -0.107572
v 0.526012 0.318236 0.079261
v 0.526012 0.321713 -0.111572
v 0.526012 0.295634 -0.111572
v 0.526012 0.321713 0.080928
v 0.526012 0.299111 -0.107572
v 0.526012 0.295634 0.088428
v 0.526012 0.299111 0.084428
v 0.526012 0.315194 0.088428
v 0.526012 0.313745 0.084428
v -0.398988 -0.139023 -0.676572
v -0.348988 -0.139023 -0.676572
v -0.348988 -0.139023 -0.686572
v -0.398988 -0.139023 -0.686572
v -0.398988 -0.225954 -0.676572
v -0.348988 -0.225954 -0.686572
v -0.398988 -0.225954 -0.686572
v -0.348988 -0.225954 -0.676572
v -0.375822 -0.203931 -0.676572
v -0.373988 -0.203787 -0.676572
v -0.372155 -0.203931 -0.676572
v -0.369488 -0.216392 -0.676572
v -0.380488 -0.214653 -0.676572
v -0.378488 -0.205090 -0.676572
v -0.377322 -0.204366 -0.676572
v -0.380488 -0.206829 -0.676572
v -0.379655 -0.205815 -0.676572
v -0.381822 -0.209147 -0.676572
v -0.381322 -0.207843 -0.676572
v -0.381822 -0.212335 -0.676572
v -0.381988 -0.210741 -0.676572
v -0.381322 -0.213639 -0.676572
v -0.369488 -0.205090 -0.676572
v -0.367488 -0.206829 -0.676572
v -0.366655 -0.207843 -0.676572
v -0.366155 -0.209147 -0.676572
v -0.368322 -0.205815 -0.676572
v -0.370655 -0.204366 -0.676572
v -0.366155 -0.212335 -0.676572
v -0.366655 -0.213639 -0.676572
v -0.367488 -0.214653 -0.676572
v -0.365988 -0.210741 -0.676572
v -0.372155 -0.217551 -0.676572
v -0.375822 -0.217551 -0.676572
v -0.378488 -0.216392 -0.676572
v -0.379655 -0.215667 -0.676572
v -0.377322 -0.217116 -0.676572
v -0.373988 -0.217696 -0.676572
v -0.370655 -0.217116 -0.676572
v -0.368322 -0.215667 -0.676572
v -0.381988 -0.210741 -0.546572
v -0.381822 -0.209147 -0.546572
v -0.381322 -0.207843 -0.546572
v -0.380488 -0.206829 -0.546572
v -0.379655 -0.205815 -0.546572
v -0.378488 -0.205090 -0.546572
v -0.377322 -0.204366 -0.546572
v -0.375822 -0.203931 -0.546572
v -0.373988 -0.203787 -0.546572
v -0.381822 -0.212335 -0.546572
v -0.381322 -0.213639 -0.546572
v -0.380488 -0.214653 -0.546572
v -0.379655 -0.215667 -0.546572
v -0.378488 -0.216392 -0.546572
v -0.377322 -0.217116 -0.546572
v -0.375822 -0.217551 -0.546572
v -0.373988 -0.217696 -0.546572
v -0.372155 -0.203931 -0.546572
v -0.370655 -0.204366 -0.546572
v -0.369488 -0.205090 -0.546572
v -0.368322 -0.205815 -0.546572
v -0.367488 -0.206829 -0.546572
v -0.366655 -0.207843 -0.546572
v -0.366155 -0.209147 -0.546572
v -0.365988 -0.210741 -0.546572
v -0.372155 -0.217551 -0.546572
v -0.370655 -0.217116 -0.546572
v -0.369488 -0.216392 -0.546572
v -0.367488 -0.214653 -0.546572
v -0.368322 -0.215667 -0.546572
v -0.366655 -0.213639 -0.546572
v -0.366155 -0.212335 -0.546572
v -0.398988 -0.195528 -0.546572
v -0.398988 -0.225954 -0.546572
v -0.398988 -0.225954 -0.536572
v -0.394988 -0.195528 -0.536572
v -0.394988 -0.222477 -0.536572
v -0.398988 -0.195528 -0.536572
v -0.348988 -0.195528 -0.546572
v -0.348988 -0.195528 -0.536572
v -0.348988 -0.225954 -0.546572
v -0.348988 -0.225954 -0.536572
v -0.352988 -0.222477 -0.536572
v -0.352988 -0.195528 -0.536572
v -0.398988 -0.195528 -0.056572
v -0.398988 -0.225954 -0.056572
v -0.394988 -0.195528 -0.056572
v -0.394988 -0.222477 -0.056572
v -0.352988 -0.222477 -0.056572
v -0.348988 -0.225954 -0.056572
v -0.352988 -0.195528 -0.056572
v -0.348988 -0.195528 -0.056572
v -0.448988 -0.225954 -0.111572
v -0.473988 -0.248556 -0.107572
v -0.473988 -0.229431 -0.107572
v -0.473988 -0.225954 -0.111572
v -0.473988 -0.252033 -0.111572
v -0.448988 -0.230301 -0.111572
v -0.298988 -0.230301 -0.111572
v -0.298988 -0.225954 -0.111572
v -0.473988 -0.229431 0.084428
v -0.473988 -0.225954 0.088428
v -0.473988 -0.248556 0.079261
v -0.473988 -0.252033 0.080928
v -0.473988 -0.245514 0.088428
v -0.473988 -0.244065 0.084428
v 0.526012 -0.225954 -0.111572
v 0.526012 -0.252033 -0.111572
v 0.526012 -0.248556 -0.107572
v 0.526012 -0.229431 -0.107572
v 0.526012 -0.248556 0.079261
v 0.526012 -0.252033 0.080928
v 0.526012 -0.225954 0.088428
v 0.526012 -0.229431 0.084428
v 0.526012 -0.244065 0.084428
v 0.526012 -0.245514 0.088428
v 0.430512 0.286072 -0.676572
v 0.431678 0.285347 -0.676572
v 0.432512 0.284333 -0.676572
v 0.427845 0.287231 -0.676572
v 0.429345 0.286796 -0.676572
v 0.424178 0.287231 -0.676572
v 0.426012 0.287375 -0.676572
v 0.421512 0.286072 -0.676572
v 0.401012 0.295634 -0.676572
v 0.451012 0.295634 -0.676572
v 0.451012 0.295634 -0.686572
v 0.401012 0.295634 -0.686572
v 0.422678 0.286796 -0.676572
v 0.419512 0.284333 -0.676572
v 0.420345 0.285347 -0.676572
v 0.418178 0.282015 -0.676572
v 0.419512 0.276509 -0.676572
v 0.418178 0.278827 -0.676572
v 0.430512 0.274770 -0.676572
v 0.418678 0.283319 -0.676572
v 0.418012 0.280421 -0.676572
v 0.418678 0.277523 -0.676572
v 0.421512 0.274770 -0.676572
v 0.420345 0.275495 -0.676572
v 0.424178 0.273611 -0.676572
v 0.422678 0.274046 -0.676572
v 0.433845 0.278827 -0.676572
v 0.433845 0.282015 -0.676572
v 0.433345 0.283319 -0.676572
v 0.434012 0.280421 -0.676572
v 0.433345 0.277523 -0.676572
v 0.432512 0.276509 -0.676572
v 0.431678 0.275495 -0.676572
v 0.427845 0.273611 -0.676572
v 0.429345 0.274046 -0.676572
v 0.426012 0.273466 -0.676572
v 0.451012 0.208703 -0.686572
v 0.451012 0.208703 -0.676572
v 0.401012 0.208703 -0.686572
v 0.401012 0.208703 -0.676572
v 0.418012 0.280421 -0.546572
v 0.418178 0.282015 -0.546572
v 0.418678 0.283319 -0.546572
v 0.419512 0.284333 -0.546572
v 0.420345 0.285347 -0.546572
v 0.421512 0.286072 -0.546572
v 0.422678 0.286796 -0.546572
v 0.424178 0.287231 -0.546572
v 0.426012 0.287375 -0.546572
v 0.427845 0.287231 -0.546572
v 0.429345 0.286796 -0.546572
v 0.430512 0.286072 -0.546572
v 0.431678 0.285347 -0.546572
v 0.432512 0.284333 -0.546572
v 0.433345 0.283319 -0.546572
v 0.433845 0.282015 -0.546572
v 0.434012 0.280421 -0.546572
v 0.418178 0.278827 -0.546572
v 0.418678 0.277523 -0.546572
v 0.419512 0.276509 -0.546572
v 0.421512 0.274770 -0.546572
v 0.420345 0.275495 -0.546572
v 0.424178 0.273611 -0.546572
v 0.422678 0.274046 -0.546572
v 0.426012 0.273466 -0.546572
v 0.430512 0.274770 -0.546572
v 0.427845 0.273611 -0.546572
v 0.429345 0.274046 -0.546572
v 0.433845 0.278827 -0.546572
v 0.431678 0.275495 -0.546572
v 0.432512 0.276509 -0.546572
v 0.433345 0.277523 -0.546572
v 0.401012 0.265208 -0.536572
v 0.401012 0.295634 -0.536572
v 0.401012 0.295634 -0.546572
v 0.405012 0.265208 -0.536572
v 0.401012 0.265208 -0.546572
v 0.405012 0.292157 -0.536572
v 0.447012 0.292157 -0.536572
v 0.451012 0.295634 -0.536572
v 0.451012 0.295634 -0.546572
v 0.451012 0.265208 -0.546572
v 0.451012 0.265208 -0.536572
v 0.447012 0.265208 -0.536572
v 0.451012 -0.139023 -0.686572
v 0.401012 -0.139023 -0.686572
v 0.401012 -0.139023 -0.676572
v 0.451012 -0.139023 -0.676572
v 0.401012 -0.225954 -0.686572
v 0.401012 -0.225954 -0.676572
v 0.418178 -0.212335 -0.676572
v 0.418012 -0.210741 -0.676572
v 0.418178 -0.209147 -0.676572
v 0.419512 -0.206829 -0.676572
v 0.421512 -0.205090 -0.676572
v 0.418678 -0.207843 -0.676572
v 0.422678 -0.204366 -0.676572
v 0.424178 -0.203931 -0.676572
v 0.427845 -0.203931 -0.676572
v 0.420345 -0.205815 -0.676572
v 0.419512 -0.214653 -0.676572
v 0.430512 -0.216392 -0.676572
v 0.424178 -0.217551 -0.676572
v 0.421512 -0.216392 -0.676572
v 0.418678 -0.213639 -0.676572
v 0.420345 -0.215667 -0.676572
v 0.422678 -0.217116 -0.676572
v 0.451012 -0.225954 -0.676572
v 0.451012 -0.225954 -0.686572
v 0.426012 -0.203787 -0.676572
v 0.429345 -0.204366 -0.676572
v 0.430512 -0.205090 -0.676572
v 0.431678 -0.205815 -0.676572
v 0.432512 -0.206829 -0.676572
v 0.433345 -0.207843 -0.676572
v 0.433845 -0.209147 -0.676572
v 0.433845 -0.212335 -0.676572
v 0.432512 -0.214653 -0.676572
v 0.433345 -0.213639 -0.676572
v 0.434012 -0.210741 -0.676572
v 0.429345 -0.217116 -0.676572
v 0.427845 -0.217551 -0.676572
v 0.431678 -0.215667 -0.676572
v 0.426012 -0.217696 -0.676572
v 0.418178 -0.209147 -0.546572
v 0.418678 -0.207843 -0.546572
v 0.419512 -0.206829 -0.546572
v 0.420345 -0.205815 -0.546572
v 0.421512 -0.205090 -0.546572
v 0.418012 -0.210741 -0.546572
v 0.422678 -0.204366 -0.546572
v 0.424178 -0.203931 -0.546572
v 0.426012 -0.203787 -0.546572
v 0.418178 -0.212335 -0.546572
v 0.418678 -0.213639 -0.546572
v 0.419512 -0.214653 -0.546572
v 0.420345 -0.215667 -0.546572
v 0.421512 -0.216392 -0.546572
v 0.422678 -0.217116 -0.546572
v 0.424178 -0.217551 -0.546572
v 0.426012 -0.217696 -0.546572
v 0.427845 -0.203931 -0.546572
v 0.429345 -0.204366 -0.546572
v 0.430512 -0.205090 -0.546572
v 0.433345 -0.207843 -0.546572
v 0.433845 -0.209147 -0.546572
v 0.434012 -0.210741 -0.546572
v 0.432512 -0.206829 -0.546572
v 0.431678 -0.205815 -0.546572
v 0.427845 -0.217551 -0.546572
v 0.429345 -0.217116 -0.546572
v 0.430512 -0.216392 -0.546572
v 0.432512 -0.214653 -0.546572
v 0.431678 -0.215667 -0.546572
v 0.433345 -0.213639 -0.546572
v 0.433845 -0.212335 -0.546572
v 0.401012 -0.225954 -0.536572
v 0.401012 -0.195528 -0.536572
v 0.405012 -0.195528 -0.536572
v 0.401012 -0.195528 -0.546572
v 0.401012 -0.225954 -0.546572
v 0.405012 -0.222477 -0.536572
v 0.451012 -0.195528 -0.536572
v 0.451012 -0.195528 -0.546572
v 0.451012 -0.225954 -0.546572
v 0.451012 -0.225954 -0.536572
v 0.447012 -0.222477 -0.536572
v 0.447012 -0.195528 -0.536572
v 0.401012 0.265208 -0.056572
v 0.401012 0.295634 -0.056572
v 0.405012 0.292157 -0.056572
v 0.405012 0.265208 -0.056572
v 0.447012 0.292157 -0.056572
v 0.451012 0.295634 -0.056572
v 0.447012 0.265208 -0.056572
v 0.451012 0.265208 -0.056572
v 0.351012 0.297373 -0.111572
v 0.351012 0.293026 -0.111572
v 0.501012 0.297373 -0.111572
v 0.501012 0.293026 -0.111572
v 0.405012 -0.195528 -0.056572
v 0.401012 -0.195528 -0.056572
v 0.401012 -0.225954 -0.056572
v 0.405012 -0.222477 -0.056572
v 0.451012 -0.195528 -0.056572
v 0.451012 -0.225954 -0.056572
v 0.447012 -0.222477 -0.056572
v 0.447012 -0.195528 -0.056572
v 0.351012 -0.225954 -0.111572
v 0.351012 -0.230301 -0.111572
v 0.501012 -0.225954 -0.111572
v 0.501012 -0.230301 -0.111572
vn -0.0000 1.0000 -0.0000
vn -0.1186 -0.0000 -0.9929
vn -0.7698 -0.0000 -0.6383
vn -0.6383 -0.0000 -0.7698
vn -0.3213 -0.0000 -0.9470
vn -0.4903 -0.0000 -0.8716
vn -0.9929 -0.0000 -0.1186
vn -0.8716 -0.0000 -0.4903
vn -0.9470 -0.0000 -0.3213
vn -0.8716 -0.0000 0.4903
vn -0.9929 -0.0000 0.1186
vn -0.9470 -0.0000 0.3213
vn -0.4903 -0.0000 0.8716
vn -0.6383 -0.0000 0.7698
vn -0.3213 -0.0000 0.9470
vn -0.1186 -0.0000 0.9929
vn -0.7698 -0.0000 0.6383
vn -0.0000 -1.0000 -0.0000
vn -0.0000 -0.0000 1.0000
vn -0.0000 -0.0000 -1.0000
vn 0.1186 -0.0000 -0.9929
vn 0.3213 -0.0000 -0.9470
vn 0.7698 -0.0000 -0.6383
vn 0.6383 -0.0000 -0.7698
vn 0.4903 -0.0000 -0.8716
vn 0.8716 -0.0000 -0.4903
vn 0.9470 -0.0000 -0.3213
vn 0.9929 -0.0000 -0.1186
vn 0.9929 -0.0000 0.1186
vn 0.9470 -0.0000 0.3213
vn 0.8716 -0.0000 0.4903
vn 0.4903 -0.0000 0.8716
vn 0.6383 -0.0000 0.7698
vn 0.7698 -0.0000 0.6383
vn 0.3213 -0.0000 0.9470
vn 0.1186 -0.0000 0.9929
vn -0.0002 -0.0000 -1.0000
vn 0.0002 -0.0000 -1.0000
vn -0.0001 -0.0000 -1.0000
vn 0.0004 -0.0000 -1.0000
vn -0.0004 -0.0000 -1.0000
vn 0.0001 -0.0000 -1.0000
vn -1.0000 -0.0000 -0.0000
vn 1.0000 -0.0000 -0.0000
vn -0.7726 0.6349 -0.0000
vn -0.7727 0.6348 -0.0000
vn -0.9337 0.3580 -0.0000
vn -0.9337 0.3581 -0.0000
vn -0.5275 0.8495 -0.0000
vn -0.9946 0.1040 -0.0000
vn -0.2783 0.9605 -0.0000
vn -0.0788 0.9969 -0.0000
vn 0.0788 0.9969 -0.0000
vn 0.2783 0.9605 -0.0000
vn 0.5275 0.8495 -0.0000
vn 0.7727 0.6348 -0.0000
vn 0.7726 0.6349 -0.0000
vn 0.9337 0.3581 -0.0000
vn 0.9946 0.1040 -0.0000
vn -0.7726 -0.6349 -0.0000
vn -0.7727 -0.6348 -0.0000
vn -0.9337 -0.3580 -0.0000
vn -0.5275 -0.8495 -0.0000
vn -0.9946 -0.1040 -0.0000
vn -0.2783 -0.9605 -0.0000
vn -0.0788 -0.9969 -0.0000
vn 0.5275 -0.8495 -0.0000
vn 0.0788 -0.9969 -0.0000
vn 0.2783 -0.9605 -0.0000
vn 0.9946 -0.1040 -0.0000
vn 0.5276 -0.8495 -0.0000
vn 0.7726 -0.6349 -0.0000
vn 0.7727 -0.6348 -0.0000
vn 0.9337 -0.3580 -0.0000
vn 0.0001 -0.0000 1.0000
vn 0.0002 -0.0000 1.0000
vn -0.0001 -0.0000 1.0000
vn -0.0002 -0.0000 1.0000
vn -0.0000 0.7547 0.6561
vn -0.0000 -0.7547 -0.6561
vn -0.9337 -0.3581 -0.0000
vn 0.5276 0.8495 -0.0000
vn 0.9337 -0.3581 -0.0000
vn -0.0000 0.7547 -0.6561
vn -0.0000 -0.7547 0.6561
vn -0.5275 0.8496 -0.0000
vn 0.5275 0.8496 -0.0000
vn 0.9337 0.3580 -0.0000
vn -0.7726 -0.6348 -0.0000
vn -0.5275 -0.8496 -0.0000
vn 0.5275 -0.8496 -0.0000
s 0
usemtl Base.001
f 1//1 2//1 3//1
f 4//1 5//1 1//1
f 1//1 6//1 7//1
f 7//1 8//1 2//1
f 2//1 9//1 10//1
f 1//1 7//1 2//1
f 3//1 11//1 12//1
f 12//1 13//1 14//1
f 14//1 15//1 16//1
f 3//1 12//1 14//1
f 2//1 10//1 3//1
f 10//1 17//1 3//1
f 1//1 3//1 35//1
f 3//1 14//1 35//1
f 14//1 16//1 35//1
f 36//1 4//1 1//1
f 21//18 20//18 22//18
f 22//18 23//18 19//18
f 29//18 24//18 21//18
f 29//18 25//18 24//18
f 24//18 26//18 21//18
f 30//18 28//18 29//18
f 28//18 27//18 29//18
f 30//18 31//18 28//18
f 33//18 32//18 30//18
f 19//18 18//18 37//18
f 38//18 34//18 33//18
f 38//18 29//18 37//18
f 29//18 21//18 37//18
f 38//18 30//18 29//18
f 21//18 22//18 37//18
f 38//18 33//18 30//18
f 22//18 19//18 37//18
f 36//1 39//1 4//1
f 16//1 40//1 35//1
f 35//1 41//1 1//1
f 41//1 42//1 1//1
f 42//1 36//1 1//1
f 41//1 43//1 42//1
f 41//1 44//1 43//1
f 43//1 45//1 42//1
f 42//1 46//1 36//1
f 35//1 47//1 48//1
f 48//1 49//1 41//1
f 49//1 50//1 41//1
f 48//1 51//1 49//1
f 35//1 48//1 41//1
f 47//1 52//1 48//1
f 35//1 53//1 47//1
f 37//18 54//18 55//18
f 55//18 58//18 57//18
f 57//18 56//18 59//18
f 59//18 60//18 61//18
f 37//18 57//18 61//18
f 57//18 59//18 61//18
f 37//18 55//18 57//18
f 65//18 68//18 38//18
f 67//18 66//18 65//18
f 63//18 64//18 67//18
f 61//18 63//18 67//18
f 67//18 65//18 38//18
f 61//18 62//18 63//18
f 61//18 67//18 38//18
f 37//18 61//18 38//18
f 69//20 70//20 71//20
f 72//20 73//20 69//20
f 70//37 74//37 71//37
f 69//38 75//38 70//38
f 73//20 76//20 69//20
f 72//39 77//39 73//39
f 78//38 79//38 72//38
f 80//1 81//1 82//1
f 82//1 83//1 80//1
f 72//20 69//20 71//20
f 84//20 85//20 72//20
f 86//39 78//39 72//39
f 85//39 87//39 86//39
f 86//37 88//37 78//37
f 87//40 89//40 86//40
f 85//20 86//20 72//20
f 84//20 90//20 85//20
f 90//39 91//39 85//39
f 92//20 93//20 90//20
f 90//20 94//20 91//20
f 85//20 95//20 87//20
f 91//20 96//20 85//20
f 71//20 97//20 84//20
f 72//20 71//20 84//20
f 84//20 92//20 90//20
f 98//20 99//20 84//20
f 97//20 100//20 98//20
f 84//20 101//20 92//20
f 71//38 102//38 103//38
f 103//41 104//41 97//41
f 97//42 98//42 84//42
f 71//20 103//20 97//20
f 105//19 106//19 81//19
f 81//19 80//19 105//19
f 105//43 80//43 83//43
f 83//43 107//43 105//43
f 83//20 82//20 108//20
f 108//20 107//20 83//20
f 106//18 105//18 107//18
f 107//18 108//18 106//18
f 81//44 106//44 108//44
f 108//44 82//44 81//44
f 109//45 110//45 79//45
f 79//45 78//45 109//45
f 111//45 109//45 78//45
f 78//46 88//46 111//46
f 112//47 111//47 88//47
f 88//48 86//48 112//48
f 110//49 113//49 72//49
f 72//49 79//49 110//49
f 89//50 114//50 112//50
f 112//50 86//50 89//50
f 77//49 72//49 113//49
f 113//49 115//49 77//49
f 73//51 77//51 115//51
f 115//51 116//51 73//51
f 76//52 73//52 116//52
f 116//52 117//52 76//52
f 76//53 117//53 118//53
f 118//53 69//53 76//53
f 75//54 69//54 118//54
f 118//54 119//54 75//54
f 70//55 75//55 119//55
f 119//55 120//55 70//55
f 74//55 70//55 120//55
f 120//55 121//55 74//55
f 102//56 71//56 122//56
f 121//57 122//57 71//57
f 71//57 74//57 121//57
f 122//56 123//56 102//56
f 103//58 102//58 123//58
f 123//58 124//58 103//58
f 104//59 103//59 124//59
f 124//59 125//59 104//59
f 95//60 85//60 126//60
f 126//61 127//61 95//61
f 128//60 126//60 85//60
f 85//60 96//60 128//60
f 87//62 95//62 127//62
f 127//62 129//62 87//62
f 96//63 91//63 130//63
f 130//63 128//63 96//63
f 129//64 114//64 89//64
f 89//64 87//64 129//64
f 131//63 130//63 91//63
f 91//63 94//63 131//63
f 132//65 131//65 94//65
f 94//65 90//65 132//65
f 132//66 90//66 93//66
f 93//66 133//66 132//66
f 101//67 84//67 134//67
f 135//68 133//68 93//68
f 93//68 92//68 135//68
f 136//69 135//69 92//69
f 92//69 101//69 136//69
f 134//67 136//67 101//67
f 104//70 125//70 137//70
f 138//67 134//67 84//67
f 84//71 99//71 138//71
f 139//72 138//72 99//72
f 99//72 98//72 139//72
f 140//73 139//73 98//73
f 98//73 100//73 140//73
f 137//74 140//74 100//74
f 100//74 97//74 137//74
f 137//70 97//70 104//70
f 141//20 142//20 143//20
f 143//20 144//20 141//20
f 145//1 146//1 143//1
f 143//1 144//1 145//1
f 116//75 115//75 113//75
f 113//76 110//76 109//76
f 109//76 111//76 112//76
f 118//19 113//19 112//19
f 113//77 109//77 112//77
f 118//19 116//19 113//19
f 118//19 117//19 116//19
f 147//20 148//20 143//20
f 148//43 143//43 146//43
f 142//20 147//20 143//20
f 146//43 149//43 148//43
f 126//19 128//19 130//19
f 129//76 127//76 126//76
f 112//19 114//19 129//19
f 112//77 129//77 126//77
f 146//20 145//20 150//20
f 150//20 149//20 146//20
f 112//19 126//19 133//19
f 131//19 132//19 133//19
f 118//19 112//19 133//19
f 130//19 131//19 133//19
f 126//19 130//19 133//19
f 148//19 151//19 144//19
f 144//19 143//19 148//19
f 149//18 150//18 151//18
f 151//18 148//18 149//18
f 133//19 137//19 118//19
f 137//19 125//19 124//19
f 124//78 123//78 122//78
f 122//77 121//77 120//77
f 120//77 119//77 118//77
f 137//19 122//19 118//19
f 137//75 124//75 122//75
f 122//19 120//19 118//19
f 133//19 134//19 137//19
f 134//75 139//75 137//75
f 133//19 136//19 134//19
f 139//78 140//78 137//78
f 134//19 138//19 139//19
f 133//75 135//75 136//75
f 144//20 152//20 141//20
f 144//20 151//20 152//20
f 144//44 151//44 150//44
f 150//44 145//44 144//44
f 142//18 141//18 153//18
f 144//1 143//1 154//1
f 153//18 155//18 142//18
f 154//1 156//1 144//1
f 147//44 142//44 155//44
f 157//43 154//43 143//43
f 143//43 148//43 157//43
f 158//18 157//18 148//18
f 148//18 147//18 158//18
f 155//44 158//44 147//44
f 159//43 153//43 141//43
f 141//43 152//43 159//43
f 160//18 159//18 152//18
f 152//18 151//18 160//18
f 156//44 160//44 151//44
f 151//44 144//44 156//44
f 162//43 163//43 164//43
f 162//43 164//43 165//43
f 166//19 167//19 168//19
f 168//19 161//19 166//19
f 163//43 169//43 164//43
f 159//19 160//19 156//19
f 169//43 170//43 164//43
f 154//19 157//19 158//19
f 153//19 159//19 156//19
f 154//19 158//19 155//19
f 171//43 162//43 165//43
f 165//43 172//43 171//43
f 156//19 154//19 155//19
f 155//19 153//19 156//19
f 172//43 173//43 171//43
f 172//43 174//43 173//43
f 174//43 169//43 173//43
f 174//43 170//43 169//43
f 175//18 176//18 172//18
f 172//18 165//18 175//18
f 163//20 162//20 177//20
f 177//20 178//20 163//20
f 162//1 171//1 179//1
f 179//1 177//1 162//1
f 180//19 175//19 165//19
f 165//19 164//19 180//19
f 169//18 163//18 178//18
f 178//18 181//18 169//18
f 164//1 170//1 182//1
f 182//1 180//1 164//1
f 183//79 179//79 171//79
f 171//79 173//79 183//79
f 181//19 183//19 173//19
f 173//19 169//19 181//19
f 174//80 172//80 176//80
f 176//80 184//80 174//80
f 170//20 174//20 184//20
f 184//20 182//20 170//20
f 185//1 186//1 187//1
f 187//1 188//1 185//1
f 186//19 185//19 189//19
f 190//20 191//20 188//20
f 188//20 187//20 190//20
f 189//19 192//19 186//19
f 193//20 194//20 195//20
f 186//44 192//44 190//44
f 188//43 191//43 189//43
f 189//43 185//43 188//43
f 190//44 187//44 186//44
f 196//20 197//20 198//20
f 198//20 193//20 195//20
f 198//42 199//42 193//42
f 200//20 201//20 198//20
f 197//20 202//20 198//20
f 202//20 203//20 200//20
f 204//41 205//41 202//41
f 197//20 206//20 204//20
f 197//20 204//20 202//20
f 202//39 200//39 198//39
f 195//20 207//20 208//20
f 208//20 209//20 210//20
f 207//20 211//20 208//20
f 198//20 195//20 208//20
f 195//37 212//37 207//37
f 208//20 213//20 196//20
f 198//20 208//20 196//20
f 213//20 214//20 215//20
f 210//40 216//40 213//40
f 208//20 210//20 213//20
f 213//42 215//42 196//42
f 196//20 217//20 218//20
f 218//20 219//20 197//20
f 219//38 220//38 197//38
f 218//20 221//20 219//20
f 217//20 222//20 218//20
f 196//20 223//20 217//20
f 196//20 218//20 197//20
f 192//18 189//18 191//18
f 191//18 190//18 192//18
f 215//37 224//37 196//37
f 205//50 225//50 226//50
f 226//50 202//50 205//50
f 203//48 202//48 226//48
f 226//47 227//47 203//47
f 200//45 203//45 227//45
f 227//45 228//45 200//45
f 229//49 230//49 198//49
f 198//49 201//49 229//49
f 228//45 229//45 201//45
f 201//45 200//45 228//45
f 199//49 198//49 230//49
f 230//49 231//49 199//49
f 193//51 199//51 231//51
f 231//51 232//51 193//51
f 194//52 193//52 232//52
f 232//52 233//52 194//52
f 234//64 225//64 205//64
f 205//64 204//64 234//64
f 235//81 234//81 204//81
f 204//62 206//62 235//62
f 236//60 235//60 206//60
f 206//60 197//60 236//60
f 237//60 236//60 197//60
f 197//60 220//60 237//60
f 238//63 237//63 220//63
f 220//63 219//63 238//63
f 239//63 238//63 219//63
f 219//63 221//63 239//63
f 240//65 239//65 221//65
f 221//65 218//65 240//65
f 222//66 241//66 240//66
f 240//66 218//66 222//66
f 242//53 195//53 194//53
f 194//53 233//53 242//53
f 212//54 195//54 242//54
f 242//54 243//54 212//54
f 207//55 212//55 243//55
f 243//55 244//55 207//55
f 211//55 207//55 244//55
f 244//82 245//82 211//82
f 208//57 211//57 245//57
f 245//57 246//57 208//57
f 209//57 208//57 246//57
f 246//57 247//57 209//57
f 210//58 209//58 247//58
f 247//58 248//58 210//58
f 216//59 210//59 248//59
f 248//59 249//59 216//59
f 250//68 241//68 222//68
f 222//68 217//68 250//68
f 251//69 250//69 217//69
f 217//69 223//69 251//69
f 252//67 251//67 223//67
f 223//67 196//67 252//67
f 224//72 215//72 253//72
f 253//72 254//72 224//72
f 196//67 224//67 254//67
f 254//67 252//67 196//67
f 255//72 253//72 215//72
f 215//72 214//72 255//72
f 256//83 255//83 214//83
f 214//83 213//83 256//83
f 256//70 213//70 216//70
f 216//70 249//70 256//70
f 257//43 258//43 259//43
f 259//20 260//20 261//20
f 259//43 262//43 257//43
f 259//20 262//20 260//20
f 263//1 257//1 262//1
f 262//1 264//1 263//1
f 233//19 226//19 240//19
f 233//19 232//19 231//19
f 230//19 229//19 228//19
f 228//76 227//76 226//76
f 230//19 228//19 226//19
f 233//19 231//19 230//19
f 233//19 230//19 226//19
f 226//19 225//19 234//19
f 257//20 263//20 265//20
f 265//20 258//20 257//20
f 264//19 262//19 259//19
f 259//19 266//19 264//19
f 258//18 265//18 266//18
f 240//19 241//19 250//19
f 238//75 239//75 240//75
f 236//75 237//75 238//75
f 234//76 235//76 236//76
f 266//18 259//18 258//18
f 226//77 234//77 236//77
f 236//19 238//19 240//19
f 226//19 236//19 240//19
f 266//20 259//20 261//20
f 243//19 242//19 233//19
f 240//19 256//19 233//19
f 246//19 244//19 233//19
f 256//75 248//75 246//75
f 253//78 255//78 256//78
f 256//19 249//19 248//19
f 248//78 247//78 246//78
f 246//19 245//19 244//19
f 256//19 246//19 233//19
f 244//19 243//19 233//19
f 261//20 267//20 266//20
f 240//19 250//19 252//19
f 252//75 253//75 256//75
f 252//78 254//78 253//78
f 240//19 252//19 256//19
f 250//77 251//77 252//77
f 267//20 268//20 266//20
f 268//20 264//20 266//20
f 264//44 266//44 265//44
f 265//44 263//44 264//44
f 260//1 262//1 269//1
f 270//43 269//43 262//43
f 262//43 259//43 270//43
f 269//1 271//1 260//1
f 261//44 260//44 271//44
f 271//44 272//44 261//44
f 272//1 273//1 267//1
f 259//18 266//18 274//18
f 274//18 270//18 259//18
f 267//1 261//1 272//1
f 273//43 275//43 268//43
f 268//43 267//43 273//43
f 276//44 274//44 266//44
f 266//44 264//44 276//44
f 264//1 268//1 275//1
f 275//1 276//1 264//1
f 278//43 279//43 280//43
f 278//43 280//43 281//43
f 282//19 283//19 284//19
f 284//19 277//19 282//19
f 270//19 274//19 273//19
f 273//19 272//19 270//19
f 280//43 279//43 285//43
f 286//43 280//43 285//43
f 287//43 281//43 288//43
f 272//19 271//19 270//19
f 287//43 278//43 281//43
f 271//19 269//19 270//19
f 289//43 285//43 290//43
f 289//43 286//43 285//43
f 288//43 289//43 290//43
f 290//43 287//43 288//43
f 274//19 275//19 273//19
f 274//19 276//19 275//19
f 291//20 292//20 281//20
f 281//20 280//20 291//20
f 279//19 278//19 293//19
f 293//19 294//19 279//19
f 278//1 287//1 295//1
f 295//1 293//1 278//1
f 288//18 281//18 292//18
f 292//18 296//18 288//18
f 297//1 291//1 280//1
f 280//1 286//1 297//1
f 294//18 298//18 285//18
f 285//18 279//18 294//18
f 290//20 285//20 298//20
f 298//20 299//20 290//20
f 287//84 290//84 299//84
f 296//85 300//85 289//85
f 289//85 288//85 296//85
f 300//19 297//19 286//19
f 286//19 289//19 300//19
f 299//84 295//84 287//84
f 301//37 302//37 303//37
f 304//38 305//38 301//38
f 306//20 307//20 304//20
f 308//20 304//20 303//20
f 309//1 310//1 311//1
f 311//1 312//1 309//1
f 308//39 313//39 306//39
f 314//38 315//38 308//38
f 308//20 306//20 304//20
f 304//20 301//20 303//20
f 316//39 314//39 308//39
f 317//39 318//39 316//39
f 317//20 316//20 308//20
f 319//20 317//20 308//20
f 316//37 320//37 314//37
f 318//40 321//40 316//40
f 317//20 322//20 318//20
f 323//20 324//20 317//20
f 325//20 326//20 323//20
f 319//20 325//20 317//20
f 325//39 323//39 317//39
f 303//20 327//20 319//20
f 308//20 303//20 319//20
f 303//20 328//20 327//20
f 303//38 329//38 328//38
f 328//41 330//41 327//41
f 327//20 331//20 332//20
f 332//20 333//20 319//20
f 319//20 334//20 325//20
f 319//20 335//20 334//20
f 327//42 332//42 319//42
f 334//20 336//20 325//20
f 337//44 311//44 310//44
f 310//44 338//44 337//44
f 339//18 337//18 338//18
f 338//18 340//18 339//18
f 312//43 339//43 340//43
f 340//43 309//43 312//43
f 310//19 309//19 340//19
f 340//19 338//19 310//19
f 312//20 311//20 337//20
f 337//20 339//20 312//20
f 321//50 341//50 342//50
f 342//50 316//50 321//50
f 320//47 316//47 342//47
f 342//48 343//48 320//48
f 314//46 320//46 343//46
f 343//45 344//45 314//45
f 345//86 346//86 308//86
f 308//86 315//86 345//86
f 344//46 345//46 315//46
f 315//46 314//46 344//46
f 313//49 308//49 346//49
f 346//49 347//49 313//49
f 306//51 313//51 347//51
f 347//51 348//51 306//51
f 307//52 306//52 348//52
f 348//52 349//52 307//52
f 307//53 349//53 350//53
f 350//53 304//53 307//53
f 305//54 304//54 350//54
f 350//54 351//54 305//54
f 301//55 305//55 351//55
f 351//55 352//55 301//55
f 302//87 301//87 352//87
f 352//87 353//87 302//87
f 303//57 302//57 353//57
f 353//57 354//57 303//57
f 329//56 303//56 354//56
f 354//56 355//56 329//56
f 328//58 329//58 355//58
f 355//88 356//88 328//88
f 330//59 328//59 356//59
f 356//59 357//59 330//59
f 358//64 341//64 321//64
f 321//64 318//64 358//64
f 359//62 358//62 318//62
f 318//62 322//62 359//62
f 360//61 359//61 322//61
f 324//63 323//63 361//63
f 361//63 362//63 324//63
f 317//89 324//89 362//89
f 322//60 317//60 360//60
f 362//89 360//89 317//89
f 326//65 325//65 363//65
f 363//66 325//66 336//66
f 363//65 364//65 326//65
f 323//90 326//90 364//90
f 364//90 361//90 323//90
f 336//66 365//66 363//66
f 335//91 319//91 366//91
f 367//68 365//68 336//68
f 336//68 334//68 367//68
f 368//69 367//69 334//69
f 334//69 335//69 368//69
f 366//91 368//91 335//91
f 330//70 357//70 369//70
f 370//67 366//67 319//67
f 319//67 333//67 370//67
f 371//72 370//72 333//72
f 333//72 332//72 371//72
f 372//73 371//73 332//73
f 332//73 331//73 372//73
f 369//74 372//74 331//74
f 331//74 327//74 369//74
f 369//70 327//70 330//70
f 373//43 374//43 375//43
f 376//20 373//20 374//20
f 375//43 377//43 373//43
f 378//20 376//20 374//20
f 350//19 346//19 342//19
f 379//20 378//20 374//20
f 346//76 345//76 344//76
f 348//75 347//75 346//75
f 346//77 344//77 342//77
f 350//19 348//19 346//19
f 364//19 363//19 365//19
f 342//19 360//19 365//19
f 350//19 342//19 365//19
f 342//77 358//77 360//77
f 361//19 364//19 365//19
f 360//19 362//19 361//19
f 358//76 359//76 360//76
f 342//19 341//19 358//19
f 344//76 343//76 342//76
f 360//19 361//19 365//19
f 369//19 354//19 350//19
f 350//19 349//19 348//19
f 352//77 351//77 350//77
f 354//77 353//77 352//77
f 356//78 355//78 354//78
f 374//20 380//20 379//20
f 354//19 352//19 350//19
f 381//1 375//1 374//1
f 374//1 380//1 381//1
f 369//75 356//75 354//75
f 366//75 371//75 369//75
f 369//19 357//19 356//19
f 375//20 381//20 382//20
f 371//78 372//78 369//78
f 366//19 370//19 371//19
f 382//20 377//20 375//20
f 365//19 366//19 369//19
f 365//19 369//19 350//19
f 365//75 367//75 368//75
f 365//19 368//19 366//19
f 373//19 383//19 380//19
f 380//19 374//19 373//19
f 383//18 373//18 377//18
f 377//18 382//18 383//18
f 380//20 383//20 384//20
f 380//20 384//20 379//20
f 380//44 383//44 382//44
f 382//44 381//44 380//44
f 385//1 386//1 387//1
f 387//1 388//1 385//1
f 386//43 389//43 390//43
f 390//43 387//43 386//43
f 391//41 392//41 393//41
f 393//39 394//39 395//39
f 393//20 396//20 394//20
f 395//42 397//42 398//42
f 395//20 398//20 399//20
f 394//20 400//20 395//20
f 401//20 393//20 395//20
f 402//20 401//20 395//20
f 403//20 404//20 401//20
f 401//20 391//20 393//20
f 402//20 403//20 401//20
f 401//20 405//20 391//20
f 404//38 406//38 401//38
f 403//20 407//20 404//20
f 388//19 387//19 390//19
f 390//19 408//19 388//19
f 388//44 408//44 409//44
f 409//44 385//44 388//44
f 409//20 389//20 386//20
f 386//20 385//20 409//20
f 398//20 410//20 399//20
f 399//37 411//37 412//37
f 412//20 413//20 414//20
f 414//20 415//20 416//20
f 395//20 399//20 414//20
f 399//20 412//20 414//20
f 414//20 416//20 417//20
f 417//42 418//42 402//42
f 417//20 419//20 418//20
f 395//20 414//20 402//20
f 414//20 417//20 402//20
f 416//40 420//40 417//40
f 389//18 409//18 408//18
f 402//20 421//20 422//20
f 408//18 390//18 389//18
f 418//37 423//37 402//37
f 422//20 424//20 403//20
f 402//20 422//20 403//20
f 425//50 393//50 392//50
f 396//47 393//47 425//47
f 425//48 426//48 396//48
f 394//45 396//45 426//45
f 426//45 427//45 394//45
f 400//46 394//46 427//46
f 427//46 428//46 400//46
f 395//49 400//49 428//49
f 428//49 429//49 395//49
f 392//50 430//50 425//50
f 429//86 431//86 397//86
f 398//51 397//51 431//51
f 431//51 432//51 398//51
f 410//52 398//52 432//52
f 432//52 433//52 410//52
f 397//86 395//86 429//86
f 434//64 430//64 392//64
f 392//64 391//64 434//64
f 435//62 434//62 391//62
f 391//81 405//81 435//81
f 436//60 435//60 405//60
f 405//60 401//60 436//60
f 437//61 436//61 401//61
f 401//61 406//61 437//61
f 438//90 437//90 406//90
f 406//90 404//90 438//90
f 439//90 438//90 404//90
f 404//90 407//90 439//90
f 440//65 439//65 407//65
f 407//65 403//65 440//65
f 440//66 403//66 424//66
f 424//66 441//66 440//66
f 410//53 433//53 442//53
f 442//53 399//53 410//53
f 411//54 399//54 442//54
f 442//54 443//54 411//54
f 412//87 411//87 443//87
f 443//87 444//87 412//87
f 416//58 415//58 445//58
f 445//88 446//88 416//88
f 420//59 416//59 446//59
f 446//59 447//59 420//59
f 448//56 445//56 415//56
f 415//56 414//56 448//56
f 449//57 448//57 414//57
f 414//57 413//57 449//57
f 444//55 449//55 413//55
f 413//55 412//55 444//55
f 450//68 441//68 424//68
f 424//68 422//68 450//68
f 451//69 450//69 422//69
f 422//69 421//69 451//69
f 452//91 451//91 421//91
f 421//91 402//91 452//91
f 423//72 418//72 453//72
f 453//72 454//72 423//72
f 402//91 423//91 454//91
f 454//91 452//91 402//91
f 455//73 453//73 418//73
f 418//73 419//73 455//73
f 420//70 447//70 456//70
f 456//83 455//83 419//83
f 419//74 417//74 456//74
f 456//70 417//70 420//70
f 457//20 458//20 459//20
f 460//43 461//43 457//43
f 457//20 459//20 462//20
f 457//43 458//43 460//43
f 433//19 431//19 429//19
f 433//19 429//19 425//19
f 429//19 427//19 425//19
f 433//19 432//19 431//19
f 429//19 428//19 427//19
f 427//76 426//76 425//76
f 425//19 430//19 434//19
f 434//76 435//76 436//76
f 436//75 437//75 438//75
f 425//77 434//77 436//77
f 436//19 438//19 440//19
f 433//19 425//19 440//19
f 425//19 436//19 440//19
f 438//75 439//75 440//75
f 458//1 463//1 464//1
f 464//1 460//1 458//1
f 440//19 456//19 433//19
f 444//19 443//19 433//19
f 456//19 448//19 433//19
f 443//19 442//19 433//19
f 448//19 444//19 433//19
f 460//20 464//20 465//20
f 465//20 461//20 460//20
f 456//75 446//75 448//75
f 446//78 445//78 448//78
f 448//19 449//19 444//19
f 456//19 447//19 446//19
f 463//19 458//19 457//19
f 457//19 466//19 463//19
f 465//44 464//44 463//44
f 467//20 468//20 466//20
f 463//44 466//44 465//44
f 468//20 463//20 466//20
f 453//78 455//78 456//78
f 440//19 452//19 456//19
f 440//19 450//19 452//19
f 452//75 453//75 456//75
f 440//19 441//19 450//19
f 450//77 451//77 452//77
f 452//78 454//78 453//78
f 462//20 467//20 466//20
f 466//20 457//20 462//20
f 466//18 457//18 461//18
f 461//18 465//18 466//18
f 469//43 470//43 374//43
f 376//44 378//44 471//44
f 374//43 373//43 469//43
f 472//18 469//18 373//18
f 471//44 472//44 376//44
f 373//18 376//18 472//18
f 378//18 379//18 473//18
f 470//1 474//1 380//1
f 473//18 471//18 378//18
f 380//1 374//1 470//1
f 475//43 473//43 379//43
f 383//44 380//44 474//44
f 474//44 476//44 383//44
f 384//18 383//18 476//18
f 476//18 475//18 384//18
f 379//43 384//43 475//43
f 479//19 477//19 478//19
f 478//19 480//19 479//19
f 175//44 178//44 177//44
f 175//44 180//44 178//44
f 474//19 470//19 471//19
f 471//19 473//19 474//19
f 470//19 472//19 471//19
f 473//19 475//19 474//19
f 470//19 469//19 472//19
f 475//19 476//19 474//19
f 178//44 180//44 182//44
f 181//44 178//44 182//44
f 176//44 177//44 179//44
f 176//44 175//44 177//44
f 184//44 176//44 179//44
f 179//44 183//44 184//44
f 183//44 181//44 182//44
f 183//44 182//44 184//44
f 462//44 459//44 481//44
f 482//1 481//1 459//1
f 459//1 458//1 482//1
f 483//43 482//43 458//43
f 458//43 457//43 483//43
f 481//44 484//44 462//44
f 485//44 486//44 466//44
f 466//44 463//44 485//44
f 468//43 467//43 487//43
f 487//43 488//43 468//43
f 463//1 468//1 488//1
f 488//1 485//1 463//1
f 486//18 483//18 457//18
f 484//1 487//1 467//1
f 467//1 462//1 484//1
f 457//18 466//18 486//18
f 491//19 489//19 490//19
f 490//19 492//19 491//19
f 292//44 291//44 294//44
f 292//44 294//44 293//44
f 486//19 488//19 487//19
f 484//19 481//19 483//19
f 486//19 485//19 488//19
f 481//19 482//19 483//19
f 293//44 295//44 296//44
f 296//44 292//44 293//44
f 297//44 298//44 294//44
f 487//19 484//19 483//19
f 291//44 297//44 294//44
f 483//19 486//19 487//19
f 299//44 297//44 300//44
f 295//44 299//44 300//44
f 299//44 298//44 297//44
f 295//44 300//44 296//44
usemtl Black.001
f 4//2 18//2 19//2
f 19//2 5//2 4//2
f 20//3 21//3 8//3
f 8//3 7//3 20//3
f 22//4 20//4 7//4
f 1//5 5//5 19//5
f 7//4 6//4 22//4
f 23//6 22//6 6//6
f 6//6 1//6 23//6
f 19//5 23//5 1//5
f 10//7 9//7 24//7
f 24//7 25//7 10//7
f 2//8 8//8 21//8
f 21//8 26//8 2//8
f 9//9 2//9 26//9
f 26//9 24//9 9//9
f 11//10 3//10 27//10
f 27//10 28//10 11//10
f 10//11 25//11 29//11
f 29//12 27//12 3//12
f 3//12 17//12 29//12
f 29//11 17//11 10//11
f 14//13 13//13 30//13
f 31//14 30//14 13//14
f 30//13 32//13 14//13
f 15//15 14//15 32//15
f 33//16 34//16 16//16
f 13//14 12//14 31//14
f 28//17 31//17 12//17
f 12//17 11//17 28//17
f 16//16 15//16 33//16
f 32//15 33//15 15//15
f 40//19 16//19 34//19
f 34//19 38//19 40//19
f 37//20 18//20 4//20
f 4//20 39//20 37//20
f 54//21 37//21 39//21
f 39//21 36//21 54//21
f 55//22 54//22 36//22
f 36//22 46//22 55//22
f 45//23 43//23 56//23
f 56//23 57//23 45//23
f 42//24 45//24 57//24
f 57//24 58//24 42//24
f 46//25 42//25 58//25
f 58//25 55//25 46//25
f 59//26 56//26 43//26
f 43//26 44//26 59//26
f 60//27 59//27 44//27
f 44//27 41//27 60//27
f 60//28 41//28 50//28
f 50//28 61//28 60//28
f 50//29 49//29 62//29
f 62//29 61//29 50//29
f 63//30 62//30 49//30
f 49//30 51//30 63//30
f 64//31 63//31 51//31
f 51//31 48//31 64//31
f 47//32 53//32 65//32
f 65//32 66//32 47//32
f 52//33 47//33 66//33
f 66//33 67//33 52//33
f 48//34 52//34 67//34
f 67//34 64//34 48//34
f 68//35 65//35 53//35
f 53//35 35//35 68//35
f 68//36 35//36 40//36
f 40//36 38//36 68//36
